<?xml version="1.0" encoding="utf-8"?>
<!-- Generator: Adobe Illustrator 16.0.0, SVG Export Plug-In . SVG Version: 6.00 Build 0)  -->
<!DOCTYPE svg PUBLIC "-//W3C//DTD SVG 1.1//EN" "http://www.w3.org/Graphics/SVG/1.1/DTD/svg11.dtd">
<svg version="1.1" xmlns="http://www.w3.org/2000/svg" xmlns:xlink="http://www.w3.org/1999/xlink" x="0px" y="0px"
	 width="539.973px" height="127.494px" viewBox="0 0 539.973 127.494" enable-background="new 0 0 539.973 127.494"
	 xml:space="preserve">
<g id="Layer_1" display="none">
	<g id="Layer_1_1_">
		<g display="inline">
			<g>
				
					<linearGradient id="SVGID_1_" gradientUnits="userSpaceOnUse" x1="341.626" y1="58.0928" x2="362.8022" y2="79.2689" gradientTransform="matrix(0.8226 -0.5686 -0.5686 -0.8226 235.0638 317.1767)">
					<stop  offset="0" style="stop-color:#97CB59"/>
					<stop  offset="1" style="stop-color:#75AE39"/>
				</linearGradient>
				<path fill="url(#SVGID_1_)" d="M482.114,55.378c-2.873,1.986-3.595,5.927-1.607,8.8c1.988,2.875,5.928,3.593,8.801,1.606
					c2.875-1.986,3.595-5.926,1.607-8.8C488.929,54.111,484.989,53.392,482.114,55.378z M487.534,63.218
					c-1.457,1.008-3.453,0.644-4.461-0.812c-1.006-1.456-0.642-3.454,0.815-4.46c1.455-1.007,3.453-0.643,4.459,0.814
					C489.356,60.216,488.991,62.212,487.534,63.218z"/>
				
					<linearGradient id="SVGID_2_" gradientUnits="userSpaceOnUse" x1="348.0664" y1="64.5322" x2="356.2139" y2="72.6797" gradientTransform="matrix(0.8226 -0.5686 -0.5686 -0.8226 235.0638 317.1767)">
					<stop  offset="0" style="stop-color:#242E09"/>
					<stop  offset="1" style="stop-color:#797F52"/>
				</linearGradient>
				<circle fill="url(#SVGID_2_)" cx="485.712" cy="60.582" r="2.433"/>
				
					<linearGradient id="SVGID_3_" gradientUnits="userSpaceOnUse" x1="290.2002" y1="44.8804" x2="348.3464" y2="103.0266" gradientTransform="matrix(0.8226 -0.5686 -0.5686 -0.8226 235.0638 317.1767)">
					<stop  offset="0" style="stop-color:#242E09"/>
					<stop  offset="1" style="stop-color:#797F52"/>
				</linearGradient>
				<path fill="url(#SVGID_3_)" d="M479.948,64.565c-0.783-1.132-1.187-2.414-1.236-3.692c-2.037-0.053-4.414,0.442-6.768,1.522
					c-5.265,2.417-43.07,22.754-41.675,25.795l50.15-23.017C480.255,64.983,480.097,64.778,479.948,64.565z"/>
				
					<linearGradient id="SVGID_4_" gradientUnits="userSpaceOnUse" x1="253.6582" y1="232.9346" x2="329.447" y2="308.7233" gradientTransform="matrix(0.6324 -0.7747 -0.7747 -0.6324 494.4873 485.8115)">
					<stop  offset="0" style="stop-color:#242E09"/>
					<stop  offset="1" style="stop-color:#797F52"/>
				</linearGradient>
				<path fill="url(#SVGID_4_)" d="M481.2,65.89c-0.201-0.164-0.394-0.339-0.57-0.521l-26.94,48.155
					c2.922,1.638,26.209-34.428,29.036-39.483c1.265-2.258,1.947-4.59,2.058-6.625C483.511,67.263,482.265,66.76,481.2,65.89z"/>
				
					<linearGradient id="SVGID_5_" gradientUnits="userSpaceOnUse" x1="327.7227" y1="282.3857" x2="334.248" y2="282.3857" gradientTransform="matrix(0.6324 -0.7747 -0.7747 -0.6324 494.4873 485.8115)">
					<stop  offset="0" style="stop-color:#242E09"/>
					<stop  offset="1" style="stop-color:#797F52"/>
				</linearGradient>
				<path fill="url(#SVGID_5_)" d="M487.8,48.906l-2.746-2.24c-1.18,2.018-1.698,3.895-1.576,5.685
					c0.037,0.575,0.142,1.12,0.291,1.642c0.724-0.186,1.474-0.255,2.22-0.205c0.002-1.219,0.592-2.638,2.061-4.725
					C487.96,49.021,487.876,48.969,487.8,48.906z"/>
				
					<linearGradient id="SVGID_6_" gradientUnits="userSpaceOnUse" x1="354.1309" y1="287.9443" x2="354.1309" y2="278.9496" gradientTransform="matrix(0.6324 -0.7747 -0.7747 -0.6324 494.4873 485.8115)">
					<stop  offset="0" style="stop-color:#97CB59"/>
					<stop  offset="1" style="stop-color:#75AE39"/>
				</linearGradient>
				<path fill="url(#SVGID_6_)" d="M485.366,45.856c-0.26-0.212-0.279-0.753-0.035-1.2c6.002-10.754,15.738-18.462,21.451-29.451
					c0.233-0.458,0.832-0.493,1.35-0.072c1.91,1.561,3.82,3.121,5.732,4.682c0.516,0.422,0.602,1.015,0.198,1.334
					c-9.622,7.799-15.227,18.879-24.561,26.915c-0.389,0.329-0.922,0.418-1.182,0.205C487.337,47.465,486.353,46.661,485.366,45.856
					z"/>
				
					<linearGradient id="SVGID_7_" gradientUnits="userSpaceOnUse" x1="356.2402" y1="61.8887" x2="362.7637" y2="61.8887" gradientTransform="matrix(0.8226 -0.5686 -0.5686 -0.8226 235.0638 317.1767)">
					<stop  offset="0" style="stop-color:#242E09"/>
					<stop  offset="1" style="stop-color:#797F52"/>
				</linearGradient>
				<path fill="url(#SVGID_7_)" d="M497.726,59.255c-0.057-0.081-0.102-0.168-0.137-0.26c-2.197,1.299-3.658,1.773-4.873,1.678
					c-0.01,0.748-0.139,1.489-0.381,2.195c0.508,0.192,1.041,0.337,1.611,0.421c1.774,0.264,3.688-0.104,5.793-1.119L497.726,59.255
					z"/>
				
					<linearGradient id="SVGID_8_" gradientUnits="userSpaceOnUse" x1="382.8105" y1="299.3018" x2="382.8105" y2="290.3052" gradientTransform="matrix(0.8226 -0.5686 0.5686 0.8226 32.7212 24.7301)">
					<stop  offset="0" style="stop-color:#97CB59"/>
					<stop  offset="1" style="stop-color:#75AE39"/>
				</linearGradient>
				<path fill="url(#SVGID_8_)" d="M500.571,61.924c0.19,0.276,0.729,0.34,1.192,0.132c11.197-5.128,19.658-14.217,31.07-19.036
					c0.473-0.195,0.557-0.79,0.178-1.338c-1.403-2.029-2.807-4.06-4.209-6.089c-0.379-0.548-0.965-0.681-1.313-0.306
					c-8.543,8.972-20.033,13.674-28.789,22.337c-0.357,0.361-0.488,0.887-0.297,1.164C499.126,59.833,499.849,60.878,500.571,61.924
					z"/>
			</g>
			<g>
				
					<linearGradient id="SVGID_9_" gradientUnits="userSpaceOnUse" x1="333.7686" y1="142.458" x2="384.5382" y2="142.458" gradientTransform="matrix(0.7071 0.7071 0.7071 -0.7071 -152.9169 -111.3914)">
					<stop  offset="0" style="stop-color:#242E09"/>
					<stop  offset="1" style="stop-color:#797F52"/>
				</linearGradient>
				<path fill="url(#SVGID_9_)" d="M209.562,34.043c-4.302-4.302-11.278-4.302-15.58,0c-4.303,4.302-4.303,11.278,0,15.581
					c4.302,4.302,11.278,4.302,15.58,0C213.866,45.321,213.866,38.345,209.562,34.043z M192.077,42.865
					c-0.299-2.827,0.633-5.761,2.8-7.927c2.167-2.167,5.101-3.1,7.928-2.8c-2.1,1.112-4.204,2.654-6.138,4.589
					C194.731,38.662,193.189,40.766,192.077,42.865z"/>
				
					<linearGradient id="SVGID_10_" gradientUnits="userSpaceOnUse" x1="139.6025" y1="86.6592" x2="263.9414" y2="86.6592" gradientTransform="matrix(1 0 0 -1 0 128.4941)">
					<stop  offset="0" style="stop-color:#97CB59"/>
					<stop  offset="1" style="stop-color:#75AE39"/>
				</linearGradient>
				<path fill="url(#SVGID_10_)" d="M219.251,45.31c2.156-0.521,4.392-1.244,6.644-2.176c0.985-0.408,1.939-0.844,2.861-1.3
					c-0.922-0.456-1.875-0.892-2.861-1.3c-2.251-0.933-4.487-1.656-6.644-2.177c1.793-1.307,3.582-2.83,5.305-4.553
					c0.755-0.754,1.469-1.522,2.146-2.296c-1.026-0.069-2.074-0.106-3.14-0.106c-2.438,0-4.78,0.188-6.971,0.531
					c1.156-1.894,2.226-3.985,3.159-6.237c0.409-0.986,0.774-1.967,1.104-2.942c-0.974,0.33-1.957,0.695-2.942,1.104
					c-2.251,0.932-4.344,2.003-6.237,3.159c0.344-2.191,0.532-4.533,0.532-6.97c0-1.067-0.038-2.115-0.107-3.14
					c-0.774,0.677-1.542,1.39-2.296,2.145c-1.723,1.723-3.247,3.512-4.553,5.305c-0.521-2.156-1.243-4.392-2.176-6.643
					c-0.408-0.986-0.844-1.939-1.3-2.862c-0.457,0.922-0.893,1.876-1.301,2.861c-0.933,2.252-1.656,4.488-2.176,6.644
					c-1.307-1.793-2.83-3.582-4.553-5.305c-0.754-0.754-1.522-1.468-2.296-2.145c-0.069,1.026-0.107,2.073-0.107,3.14
					c0,2.437,0.188,4.779,0.532,6.971c-1.894-1.156-3.986-2.226-6.237-3.159c-0.985-0.409-1.967-0.774-2.942-1.103
					c0.33,0.974,0.695,1.957,1.103,2.942c0.933,2.25,2.003,4.343,3.159,6.236c-2.191-0.344-4.534-0.531-6.97-0.531
					c-1.067,0-2.114,0.037-3.141,0.106c0.677,0.774,1.391,1.542,2.146,2.296c1.723,1.723,3.512,3.247,5.305,4.553
					c-2.156,0.521-4.392,1.244-6.644,2.176c-0.986,0.409-1.939,0.845-2.861,1.301c0.922,0.457,1.875,0.892,2.861,1.3
					c2.251,0.933,4.487,1.655,6.644,2.176c-1.793,1.307-3.583,2.83-5.306,4.553c-0.754,0.754-1.468,1.521-2.145,2.296
					c1.026,0.069,2.074,0.106,3.141,0.106c2.436,0,4.778-0.188,6.97-0.531c-1.156,1.892-2.227,3.985-3.159,6.236
					c-0.408,0.985-0.774,1.969-1.103,2.943c0.975-0.33,1.957-0.695,2.942-1.104c2.251-0.932,4.343-2.002,6.237-3.159
					c-0.344,2.192-0.532,4.534-0.532,6.972c0,1.065,0.038,2.114,0.107,3.14c0.774-0.677,1.542-1.392,2.296-2.146
					c1.723-1.723,3.246-3.513,4.553-5.305c0.521,2.156,1.244,4.392,2.176,6.644c0.408,0.986,0.844,1.939,1.301,2.861
					c0.456-0.922,0.892-1.875,1.3-2.861c0.933-2.251,1.655-4.487,2.176-6.644c1.307,1.793,2.83,3.582,4.554,5.306
					c0.754,0.754,1.521,1.468,2.295,2.145c0.069-1.025,0.107-2.074,0.107-3.14c0-2.438-0.188-4.78-0.532-6.972
					c1.894,1.157,3.986,2.227,6.238,3.16c0.985,0.408,1.967,0.773,2.941,1.103c-0.33-0.974-0.695-1.957-1.104-2.942
					c-0.933-2.251-2.003-4.343-3.159-6.236c2.191,0.343,4.534,0.531,6.971,0.531c1.066,0,2.114-0.037,3.14-0.106
					c-0.676-0.774-1.39-1.541-2.145-2.295C222.833,48.14,221.044,46.617,219.251,45.31z M201.773,55.036
					c-7.292,0-13.203-5.911-13.203-13.202c0-7.292,5.91-13.203,13.203-13.203c7.292,0,13.202,5.911,13.202,13.203
					C214.975,49.125,209.064,55.036,201.773,55.036z"/>
				
					<linearGradient id="SVGID_11_" gradientUnits="userSpaceOnUse" x1="133.5737" y1="40.8555" x2="242.2029" y2="40.8555" gradientTransform="matrix(1 0 0 -1 0 128.4941)">
					<stop  offset="0" style="stop-color:#97CB59"/>
					<stop  offset="1" style="stop-color:#75AE39"/>
				</linearGradient>
				<path fill="url(#SVGID_11_)" d="M201.519,108.761c1.879,1.627,3.813,3.23,5.791,4.818h4.153
					c-2.482-1.955-4.89-3.939-7.219-5.953c4.019-3.214-0.814-20.42-7.583-27.99c-13.334-14.523-30.818-17.674-31.005-17.938
					c0.093,0.028-1.709,3.957-1.271,10.398c0.38,6.375,3,15.262,10.616,23.641C183.09,104.759,195.292,110.051,201.519,108.761z"/>
				
					<linearGradient id="SVGID_12_" gradientUnits="userSpaceOnUse" x1="187.6426" y1="39.2573" x2="225.7716" y2="39.2573" gradientTransform="matrix(1 0 0 -1 0 128.4941)">
					<stop  offset="0" style="stop-color:#242E09"/>
					<stop  offset="1" style="stop-color:#797F52"/>
				</linearGradient>
				<path fill="url(#SVGID_12_)" d="M206.459,103.099c1.032,2.75,2.159,5.49,3.38,8.217c0.692,0.56,1.387,1.115,2.09,1.67
					l0.756,0.595h1.019l0.203-0.367c0.369-0.666,0.727-1.323,1.074-1.972c-6.486-14.202-10.291-28.842-11.212-43.104
					c-0.207,0.451-0.42,0.902-0.641,1.35l-1.355,2.738l-1.356-2.738c-0.484-0.979-0.937-1.975-1.342-2.953
					c-0.225-0.544-0.438-1.092-0.642-1.641c0.283,6.518,1.148,13.118,2.577,19.732C204.239,90.464,206.533,97.925,206.459,103.099z"
					/>
				
					<linearGradient id="SVGID_13_" gradientUnits="userSpaceOnUse" x1="197.3613" y1="39.0146" x2="251.8784" y2="39.0146" gradientTransform="matrix(1 0 0 -1 0 128.4941)">
					<stop  offset="0" style="stop-color:#97CB59"/>
					<stop  offset="1" style="stop-color:#75AE39"/>
				</linearGradient>
				<path fill="url(#SVGID_13_)" d="M235.12,72.472c-1.544-4.746-3.969-7.045-3.911-7.093c-0.058,0.244-11.69,7.547-17.065,21.81
					c-2.671,7.381-1.176,21.117,2.634,22.263c-0.708,1.375-1.446,2.752-2.208,4.129h2.298c0.756-1.367,1.489-2.731,2.192-4.101
					c4.838-0.871,12.063-8.186,15.266-16.988C237.37,84.284,236.685,77.153,235.12,72.472z"/>
			</g>
			<g>
				
					<linearGradient id="SVGID_14_" gradientUnits="userSpaceOnUse" x1="260.6274" y1="-13.8423" x2="383.506" y2="109.0363" gradientTransform="matrix(1 0 0 -1 0 128.4941)">
					<stop  offset="0" style="stop-color:#242E09"/>
					<stop  offset="1" style="stop-color:#797F52"/>
				</linearGradient>
				<path fill="url(#SVGID_14_)" d="M352.489,57.987c-22.294,0-39.999,0-62.294,0c-1.397,16.573,2.158,33.877,7.701,50.583
					c0.447,2.779,3.158,5.011,5.937,5.011c14.154,0,23.723,0,37.878,0c2.777,0,5.538-2.231,6.035-5.011
					C352.6,91.864,354.841,74.56,352.489,57.987z M345.445,107.901l-0.036,0.121l-0.021,0.125c-0.284,1.59-2.036,3.035-3.677,3.035
					h-37.878c-1.646,0-3.313-1.398-3.571-2.994l-0.029-0.19l-0.062-0.183c-5.998-18.077-8.539-33.623-7.743-47.433h3.273
					c0.292,11.954,2.88,25.189,7.85,40.166l0.061,0.183l0.031,0.19c0.258,1.597,1.926,2.996,3.569,2.996h37.878
					c0.524,0,1.062-0.149,1.557-0.401C346.268,104.969,345.874,106.429,345.445,107.901z"/>
				
					<linearGradient id="SVGID_15_" gradientUnits="userSpaceOnUse" x1="283.5078" y1="46.7363" x2="357.5379" y2="120.7664" gradientTransform="matrix(1 0 0 -1 0 128.4941)">
					<stop  offset="0" style="stop-color:#97CB59"/>
					<stop  offset="1" style="stop-color:#75AE39"/>
				</linearGradient>
				<path fill="url(#SVGID_15_)" d="M320.524,23.508c-14.529,0-26.351,11.82-26.351,26.349v0.667h6.215v-0.667
					c0-11.103,9.031-20.135,20.136-20.135c11.103,0,20.134,9.032,20.134,20.135v0.667h6.215v-0.667
					C346.873,35.328,335.053,23.508,320.524,23.508z"/>
				<g>
					
						<linearGradient id="SVGID_16_" gradientUnits="userSpaceOnUse" x1="369.9229" y1="46.3394" x2="389.5439" y2="65.9604" gradientTransform="matrix(1 0 0 -1 0 128.4941)">
						<stop  offset="0" style="stop-color:#97CB59"/>
						<stop  offset="1" style="stop-color:#75AE39"/>
					</linearGradient>
					<path fill="url(#SVGID_16_)" d="M375.308,59.401c-4.115,4.437-4.517,11.331-0.663,16.243
						c3.855,4.912,10.646,6.164,15.935,3.224L375.308,59.401z M384.51,79.241C384.509,79.241,384.509,79.241,384.51,79.241
						c-3.51-0.001-6.762-1.581-8.923-4.336c-1.811-2.309-2.6-5.102-2.398-7.827c0.151,2.196,0.942,4.369,2.398,6.228
						c2.161,2.754,5.413,4.334,8.922,4.336c0,0,0,0,0.001,0c1.092,0,2.176-0.16,3.217-0.47l0.986,1.259
						C387.383,78.962,385.952,79.241,384.51,79.241z"/>
					
						<linearGradient id="SVGID_17_" gradientUnits="userSpaceOnUse" x1="380.5283" y1="56.6719" x2="387.5057" y2="63.6493" gradientTransform="matrix(1 0 0 -1 0 128.4941)">
						<stop  offset="0" style="stop-color:#242E09"/>
						<stop  offset="1" style="stop-color:#797F52"/>
					</linearGradient>
					<path fill="url(#SVGID_17_)" d="M391.172,78.517c0.362-0.229,0.717-0.479,1.062-0.748l-15.466-19.712
						c-0.344,0.271-0.671,0.556-0.979,0.854L391.172,78.517z"/>
				</g>
				
					<linearGradient id="SVGID_18_" gradientUnits="userSpaceOnUse" x1="283.4658" y1="35.3115" x2="359.3038" y2="111.1494" gradientTransform="matrix(1 0 0 -1 0 128.4941)">
					<stop  offset="0" style="stop-color:#242E09"/>
					<stop  offset="1" style="stop-color:#797F52"/>
				</linearGradient>
				<path fill="url(#SVGID_18_)" d="M352.572,56.99v-1.857c0-2.125-1.722-3.846-3.846-3.846h-54.688
					c-2.123,0-3.846,1.722-3.846,3.846v1.857H352.572z"/>
				
					<linearGradient id="SVGID_19_" gradientUnits="userSpaceOnUse" x1="331.4785" y1="17.8423" x2="386.3318" y2="72.6956" gradientTransform="matrix(1 0 0 -1 0 128.4941)">
					<stop  offset="0" style="stop-color:#97CB59"/>
					<stop  offset="1" style="stop-color:#75AE39"/>
				</linearGradient>
				<path fill="url(#SVGID_19_)" d="M354.545,75.719h13.21l-14.168,11.144c-0.54,4.117-1.291,8.318-2.257,12.597l25.776-20.272
					c-1.145-0.768-2.178-1.715-3.055-2.832c-0.948-1.209-1.654-2.535-2.127-3.914l-1.178,0.927h-16.146
					C354.591,74.147,354.574,74.931,354.545,75.719z"/>
			</g>
			<g>
				
					<linearGradient id="SVGID_20_" gradientUnits="userSpaceOnUse" x1="-368.9893" y1="181.9873" x2="-321.4567" y2="181.9873" gradientTransform="matrix(0.7071 -0.7071 -0.7071 -0.7071 458.3478 -25.6583)">
					<stop  offset="0" style="stop-color:#97CB59"/>
					<stop  offset="1" style="stop-color:#75AE39"/>
				</linearGradient>
				<path fill="url(#SVGID_20_)" d="M72.284,65.05l15.722,15.723c2.512,2.512,3.649,5.066,3.382,7.598
					c-0.223,2.111-1.384,3.556-2.056,4.229l0,0c-0.117,0.115-0.217,0.209-0.294,0.276c-0.068,0.076-0.161,0.178-0.277,0.294
					c-0.876,0.876-5.567,4.934-11.825-1.325L61.214,76.121l-11.5,11.5l19.365,19.364c0,0,13.715,13.714,35.657,1.588
					c12.127-21.942-1.588-35.657-1.588-35.657L83.784,53.551L72.284,65.05z M102.219,106.056
					c-18.959,9.945-30.611-1.365-30.729-1.481L54.538,87.621l2.853-2.854l14.1,14.101c0.118,0.116,11.77,11.43,30.729,1.481
					c2.401-4.574,3.565-8.711,3.956-12.365C106.717,92.813,105.974,98.903,102.219,106.056z"/>
				
					<linearGradient id="SVGID_21_" gradientUnits="userSpaceOnUse" x1="-351.0825" y1="194.9072" x2="-338.8369" y2="194.9072" gradientTransform="matrix(0.7071 -0.7071 -0.7071 -0.7071 458.3478 -25.6583)">
					<stop  offset="0" style="stop-color:#242E09"/>
					<stop  offset="1" style="stop-color:#797F52"/>
				</linearGradient>
				<path fill="url(#SVGID_21_)" d="M65.375,69.211l-4.33,4.329c0,0,11.191,11.191,17.096,17.096
					c5.905,5.906,9.686,1.027,9.686,1.027s4.878-3.781-1.026-9.686c-5.905-5.904-17.097-17.097-17.097-17.097L65.375,69.211z"/>
				
					<linearGradient id="SVGID_22_" gradientUnits="userSpaceOnUse" x1="-351.0845" y1="249.7266" x2="-338.8359" y2="249.7266" gradientTransform="matrix(0.7071 -0.7071 -0.7071 -0.7071 458.3478 -25.6583)">
					<stop  offset="0" style="stop-color:#97CB59"/>
					<stop  offset="1" style="stop-color:#75AE39"/>
				</linearGradient>
				<path fill="url(#SVGID_22_)" d="M11.459,15.295c-2.391,2.392-2.391,6.269,0,8.659L59.9,72.397l8.66-8.662L20.118,15.295
					C17.727,12.904,13.85,12.904,11.459,15.295z M13.87,21.543l47.236,47.235L59.9,69.985L12.664,22.748
					c-1.722-1.722-1.722-4.525,0-6.248c0.207-0.207,0.43-0.387,0.663-0.543C12.174,17.674,12.354,20.027,13.87,21.543z"/>
			</g>
		</g>
	</g>
	<g id="Layer_2" display="inline">
		<g>
			<g>
				
					<linearGradient id="SVGID_23_" gradientUnits="userSpaceOnUse" x1="434.5771" y1="67.0264" x2="513.3086" y2="67.0264" gradientTransform="matrix(1 0 0 -1 0 128.4941)">
					<stop  offset="0" style="stop-color:#97CB59"/>
					<stop  offset="1" style="stop-color:#75AE39"/>
				</linearGradient>
				<path fill="url(#SVGID_23_)" d="M484.229,89.728c-5.375-1.076-8.813-14.832-12.038-26.652
					c-3.226-11.824,3.963-44.71,3.963-44.71h-41.576c0.115,46.134,7.094,54.382,9.885,62.766c2.258,6.771,0.31,15.115-0.522,18.072
					c22.688,0.862,32.2,2.828,38.502,4.129c3.481,0.72,6,1.237,9.241,1.237c0.99,0,2.023-0.045,3.158-0.143
					c11.854-1.012,17.924-5.025,17.984-5.066l0.483-0.325C511.251,90.888,489.347,90.751,484.229,89.728z M494.685,102.606
					c-1.082,0.092-2.063,0.137-3.002,0.137c-3.059,0-5.496-0.504-8.871-1.201c-6.143-1.27-15.321-3.164-36.549-4.075
					c0.935-4.122,1.906-11-0.065-16.915c-0.463-1.389-1.037-2.775-1.646-4.246c-3.153-7.634-7.896-19.105-8.139-56.113h2.479
					c0.433,35.061,5.031,46.195,8.113,53.658c0.609,1.469,1.185,2.856,1.646,4.246c1.973,5.914,1,12.795,0.065,16.916
					c21.228,0.909,30.406,2.807,36.549,4.073c3.375,0.697,5.814,1.202,8.871,1.202c0.939,0,1.922-0.046,3.002-0.137
					c5.748-0.491,10.084-1.719,12.953-2.807c0.355,0.305,0.66,0.624,0.896,0.965C509.024,99.353,503.521,101.851,494.685,102.606z"
					/>
				
					<linearGradient id="SVGID_24_" gradientUnits="userSpaceOnUse" x1="442.9062" y1="22.3682" x2="513.4668" y2="22.3682" gradientTransform="matrix(1 0 0 -1 0 128.4941)">
					<stop  offset="0" style="stop-color:#242E09"/>
					<stop  offset="1" style="stop-color:#797F52"/>
				</linearGradient>
				<path fill="url(#SVGID_24_)" d="M494.938,105.565c-12.277,1.045-11.828-3.754-51.332-5.232
					c-0.232-0.009-0.466-0.018-0.699-0.025l0.918,10.25h1.481v-0.517c0-0.416,0.338-0.753,0.752-0.753h0.025
					c0.416,0,0.754,0.337,0.754,0.753v0.517h1.307v-0.517c0-0.416,0.337-0.753,0.755-0.753h0.024c0.416,0,0.752,0.337,0.752,0.753
					v0.517h1.308v-0.517c0-0.416,0.338-0.753,0.754-0.753h0.024c0.416,0,0.752,0.337,0.752,0.753v0.517h1.308v-0.517
					c0-0.416,0.338-0.753,0.754-0.753h0.024c0.416,0,0.752,0.337,0.752,0.753v0.517h1.31v-0.517c0-0.416,0.336-0.753,0.752-0.753
					h0.025c0.416,0,0.754,0.337,0.754,0.753v0.517h1.307v-0.517c0-0.416,0.336-0.753,0.752-0.753h0.025
					c0.416,0,0.754,0.337,0.754,0.753v0.517h1.586l2.102-3.021c0,0,10.646,0.524,14.849,2.494v1.315c0,0,23.26,3.285,33.901-5.521
					v-5.521C513.466,100.306,507.288,104.511,494.938,105.565z"/>
			</g>
			<g>
				
					<linearGradient id="SVGID_25_" gradientUnits="userSpaceOnUse" x1="272.7881" y1="103.3174" x2="290.752" y2="103.3174" gradientTransform="matrix(0.7071 0.7071 0.7071 -0.7071 -51.4032 -89.202)">
					<stop  offset="0" style="stop-color:#97CB59"/>
					<stop  offset="1" style="stop-color:#75AE39"/>
				</linearGradient>
				<path fill="url(#SVGID_25_)" d="M238.586,31.604c1.312-1.736,0.962-4.558-0.523-6.044c-1.917-1.917-3.834-3.833-5.751-5.75
					c-1.485-1.485-4.307-1.835-6.044-0.523c-8.644,6.737-13.38,17.382-22.024,24.12c-1.736,1.312-2.087,3.433-0.523,4.997
					c1.917,1.917,3.833,3.833,5.749,5.75c1.564,1.563,3.686,1.213,4.998-0.523C221.205,44.985,231.849,40.25,238.586,31.604z
					 M211.72,52.195c-0.029-0.015-0.088-0.052-0.163-0.129l-5.751-5.75c-0.076-0.076-0.113-0.134-0.129-0.163
					c0.021-0.061,0.11-0.215,0.346-0.393l0.034-0.026c4.618-3.599,8.134-8.168,11.537-12.587c3.316-4.308,6.449-8.377,10.464-11.514
					c0.508-0.369,1.675-0.228,2.168,0.264l0.825,0.825c-3.402,2.962-6.204,6.598-9.149,10.424
					c-3.401,4.419-6.918,8.988-11.536,12.587l-0.035,0.025c-0.235,0.179-0.324,0.333-0.345,0.394
					c0.015,0.029,0.053,0.087,0.128,0.162l3.608,3.607c-0.544,0.612-1.073,1.241-1.582,1.893l-0.026,0.035
					C211.935,52.086,211.781,52.174,211.72,52.195z"/>
				
					<linearGradient id="SVGID_26_" gradientUnits="userSpaceOnUse" x1="258.2656" y1="34.1343" x2="305.2783" y2="34.1343" gradientTransform="matrix(0.7071 0.7071 0.7071 -0.7071 -51.4032 -89.202)">
					<stop  offset="0" style="stop-color:#97CB59"/>
					<stop  offset="1" style="stop-color:#75AE39"/>
				</linearGradient>
				<path fill="url(#SVGID_26_)" d="M197.564,60.31c-9.18-9.179-16.936-16.306-26.115-7.127
					c-30.994,30.995-25.068,58.311-25.068,58.311s27.316,5.926,58.311-25.068C213.871,77.246,206.743,69.49,197.564,60.31z
					 M149.011,108.869c-0.228-2.671-0.318-7.849,1.243-14.627c2.141-9.3,7.918-23.609,23.282-38.973
					c3.448-3.447,6.48-4.131,9.984-2.614c-1.136,0.555-2.285,1.415-3.484,2.614c-15.364,15.364-21.14,29.673-23.281,38.973
					c-1.56,6.774-1.471,11.948-1.244,14.621C152.683,109.075,150.47,108.993,149.011,108.869z"/>
				
					<linearGradient id="SVGID_27_" gradientUnits="userSpaceOnUse" x1="278.4443" y1="76.7061" x2="285.0957" y2="76.7061" gradientTransform="matrix(0.7071 0.7071 0.7071 -0.7071 -51.4032 -89.202)">
					<stop  offset="0" style="stop-color:#242E09"/>
					<stop  offset="1" style="stop-color:#797F52"/>
				</linearGradient>
				<path fill="url(#SVGID_27_)" d="M202.939,50.231l-6.432,6.432c0.796,0.779,1.583,1.566,2.36,2.342
					c0.776,0.777,1.563,1.564,2.343,2.361l6.432-6.432L202.939,50.231z"/>
			</g>
			<g>
				
					<linearGradient id="SVGID_28_" gradientUnits="userSpaceOnUse" x1="-250.2173" y1="130.9336" x2="-232.0835" y2="130.9336" gradientTransform="matrix(0.7071 -0.7071 -0.7071 -0.7071 567.551 -42.4474)">
					<stop  offset="0" style="stop-color:#97CB59"/>
					<stop  offset="1" style="stop-color:#75AE39"/>
				</linearGradient>
				<path fill="url(#SVGID_28_)" d="M299.023,17.626c-1.752-1.325-4.6-0.971-6.102,0.529c-1.934,1.935-3.869,3.868-5.803,5.802
					c-1.5,1.5-1.854,4.349-0.531,6.102c6.803,8.725,17.547,13.506,24.348,22.23c1.324,1.752,3.466,2.107,5.043,0.528
					c1.937-1.934,3.869-3.869,5.806-5.803c1.578-1.579,1.225-3.721-0.529-5.045C312.53,35.17,307.751,24.426,299.023,17.626z
					 M319.808,44.743c-0.016,0.03-0.053,0.088-0.131,0.165l-5.805,5.804c-0.074,0.077-0.133,0.115-0.164,0.131
					c-0.061-0.022-0.215-0.11-0.396-0.349l-0.027-0.035c-3.633-4.662-8.244-8.211-12.703-11.644
					c-4.35-3.348-8.455-6.51-11.621-10.562c-0.373-0.513-0.23-1.69,0.266-2.188l0.834-0.832c2.99,3.433,6.66,6.262,10.521,9.233
					c4.459,3.436,9.07,6.984,12.703,11.646l0.027,0.034c0.182,0.238,0.336,0.328,0.396,0.349c0.031-0.016,0.09-0.054,0.162-0.13
					l3.643-3.642c0.619,0.549,1.252,1.084,1.912,1.597l0.035,0.026C319.698,44.526,319.786,44.682,319.808,44.743z"/>
				
					<linearGradient id="SVGID_29_" gradientUnits="userSpaceOnUse" x1="-244.5068" y1="104.0742" x2="-237.792" y2="104.0742" gradientTransform="matrix(0.7071 -0.7071 -0.7071 -0.7071 567.551 -42.4474)">
					<stop  offset="0" style="stop-color:#242E09"/>
					<stop  offset="1" style="stop-color:#797F52"/>
				</linearGradient>
				<path fill="url(#SVGID_29_)" d="M317.823,53.606l6.492,6.492c0.786-0.804,1.582-1.598,2.364-2.383
					c0.785-0.784,1.578-1.578,2.383-2.365l-6.491-6.492L317.823,53.606z"/>
				
					<linearGradient id="SVGID_30_" gradientUnits="userSpaceOnUse" x1="4.9033" y1="135.2207" x2="53.2754" y2="135.2207" gradientTransform="matrix(0.7071 -0.7071 -0.7071 -0.7071 423.3986 195.5721)">
					<stop  offset="0" style="stop-color:#97CB59"/>
					<stop  offset="1" style="stop-color:#75AE39"/>
				</linearGradient>
				<path fill="url(#SVGID_30_)" d="M338.999,47.514l-22.521,22.52c-3.227,3.226-3.227,8.458,0,11.684l40.544,30.229l0,0
					c-9.505-11.196-20.234-19.901-30.568-30.269c-1.459-1.457-1.969-3.311-1.07-4.207c0.412-0.414,0.822-0.824,1.236-1.238
					c0.899-0.897,2.75-0.387,4.207,1.07c9.733,9.703,23.776,17.624,34.42,26.418c-8.793-10.642-19.182-22.22-28.885-31.951
					c-1.457-1.457-1.97-3.311-1.07-4.209c0.412-0.412,0.826-0.826,1.236-1.235c0.897-0.897,2.752-0.388,4.209,1.069
					c9.729,9.705,21.311,20.092,31.95,28.887c-8.795-10.643-16.715-24.688-26.418-34.42c-1.459-1.457-1.969-3.31-1.069-4.207
					c0.414-0.413,0.826-0.826,1.235-1.238c0.898-0.897,2.752-0.388,4.209,1.071c10.365,10.334,19.07,21.065,30.269,30.57l0,0
					l-30.23-40.542C347.456,44.287,342.226,44.288,338.999,47.514z"/>
			</g>
			<g>
				
					<linearGradient id="SVGID_31_" gradientUnits="userSpaceOnUse" x1="23.4072" y1="40.7344" x2="80.562" y2="40.7344" gradientTransform="matrix(1 0 0 -1 0 128.4941)">
					<stop  offset="0" style="stop-color:#242E09"/>
					<stop  offset="1" style="stop-color:#797F52"/>
				</linearGradient>
				<path fill="url(#SVGID_31_)" d="M23.407,71.505c0,12.459,2.687,23.838,7.118,32.51h42.919c4.431-8.672,7.118-20.051,7.118-32.51
					H23.407z M32.805,100.378c-3.295-7.229-5.27-16.008-5.681-25.236h7.069c0.412,9.229,2.386,18.008,5.682,25.236H32.805z"/>
				
					<linearGradient id="SVGID_32_" gradientUnits="userSpaceOnUse" x1="78.6592" y1="20.147" x2="22.62" y2="20.147" gradientTransform="matrix(1 0 0 -1 0 128.4941)">
					<stop  offset="0" style="stop-color:#97CB59"/>
					<stop  offset="1" style="stop-color:#75AE39"/>
				</linearGradient>
				<path fill="url(#SVGID_32_)" d="M28.608,104.748l0.926,5.965c0,0.683,0.552,1.234,1.234,1.234h42.33
					c0.681,0,1.233-0.554,1.233-1.234l1.029-5.965H28.608z"/>
				
					<linearGradient id="SVGID_33_" gradientUnits="userSpaceOnUse" x1="24.3359" y1="93.8096" x2="79.6328" y2="93.8096" gradientTransform="matrix(1 0 0 -1 0 128.4941)">
					<stop  offset="0" style="stop-color:#97CB59"/>
					<stop  offset="1" style="stop-color:#75AE39"/>
				</linearGradient>
				<path fill="url(#SVGID_33_)" d="M79.633,34.684c0-3.312-5.194-6.05-11.947-6.503c4.454-5.097,6.19-10.705,3.848-13.046
					c-2.341-2.343-7.95-0.606-13.046,3.848c-0.454-6.753-3.192-11.947-6.503-11.947c-3.312,0-6.051,5.194-6.505,11.947
					c-5.095-4.455-10.705-6.191-13.046-3.848c-2.342,2.341-0.605,7.95,3.849,13.046c-6.753,0.454-11.947,3.191-11.947,6.503
					s5.193,6.051,11.947,6.504c-4.455,5.097-6.191,10.705-3.849,13.047c2.342,2.342,7.951,0.605,13.046-3.85
					c0.454,6.754,3.192,11.948,6.505,11.948c3.311,0,6.049-5.194,6.503-11.948c5.096,4.456,10.705,6.192,13.046,3.85
					c2.342-2.342,0.606-7.951-3.848-13.047C74.439,40.735,79.633,37.997,79.633,34.684z M61.965,37.358
					c0.484,0.93,0.499,2.078-0.063,3.053c-0.562,0.974-1.564,1.536-2.611,1.58c-0.044,1.047-0.606,2.05-1.581,2.613
					c-0.974,0.562-2.124,0.547-3.052,0.062c-0.562,0.884-1.549,1.472-2.674,1.472c-1.126,0-2.113-0.588-2.675-1.472
					c-0.929,0.485-2.078,0.5-3.052-0.062c-0.975-0.562-1.536-1.566-1.581-2.613c-1.046-0.044-2.048-0.606-2.611-1.581
					c-0.563-0.974-0.548-2.122-0.062-3.052c-0.884-0.561-1.472-1.548-1.472-2.674c0-1.125,0.587-2.112,1.472-2.674
					c-0.485-0.928-0.5-2.078,0.062-3.053c0.563-0.974,1.565-1.536,2.612-1.58c0.044-1.048,0.606-2.048,1.581-2.612
					c0.974-0.563,2.123-0.547,3.052-0.063c0.562-0.884,1.549-1.471,2.675-1.471c1.125,0,2.112,0.587,2.674,1.471
					c0.928-0.484,2.078-0.5,3.052,0.063s1.536,1.564,1.581,2.612c1.046,0.044,2.049,0.606,2.611,1.58
					c0.562,0.975,0.548,2.125,0.063,3.053c0.884,0.562,1.471,1.549,1.471,2.674C63.436,35.81,62.85,36.798,61.965,37.358z"/>
				
					<linearGradient id="SVGID_34_" gradientUnits="userSpaceOnUse" x1="42.0112" y1="93.8115" x2="61.957" y2="93.8115" gradientTransform="matrix(1 0 0 -1 0 128.4941)">
					<stop  offset="0" style="stop-color:#242E09"/>
					<stop  offset="1" style="stop-color:#797F52"/>
				</linearGradient>
				<path fill="url(#SVGID_34_)" d="M61.171,33.259l-1.146-0.729l0.629-1.206c0.27-0.516,0.257-1.125-0.033-1.627
					c-0.29-0.502-0.811-0.817-1.393-0.842l-1.358-0.058l-0.059-1.358c-0.024-0.582-0.339-1.102-0.842-1.393
					c-0.255-0.148-0.546-0.226-0.839-0.226c-0.272,0-0.545,0.067-0.787,0.193l-1.205,0.629l-0.729-1.147
					c-0.312-0.492-0.846-0.786-1.425-0.786c-0.581,0-1.114,0.294-1.426,0.785l-0.729,1.148l-1.205-0.63
					c-0.242-0.126-0.515-0.193-0.788-0.193c-0.297,0-0.579,0.075-0.839,0.226c-0.503,0.291-0.817,0.811-0.842,1.393l-0.057,1.358
					l-1.358,0.058c-0.582,0.025-1.103,0.339-1.393,0.842c-0.291,0.502-0.302,1.111-0.033,1.627l0.629,1.206l-1.146,0.729
					c-0.492,0.312-0.786,0.846-0.786,1.425c0,0.581,0.294,1.113,0.786,1.426l1.147,0.729l-0.629,1.205
					c-0.27,0.516-0.258,1.125,0.032,1.626c0.29,0.504,0.811,0.818,1.393,0.843l1.358,0.057l0.057,1.358
					c0.025,0.583,0.34,1.104,0.842,1.393c0.256,0.148,0.546,0.227,0.839,0.227c0.273,0,0.546-0.067,0.788-0.193l1.205-0.63
					l0.729,1.148c0.312,0.492,0.845,0.785,1.426,0.785c0.58,0,1.113-0.293,1.424-0.785l0.729-1.148l1.206,0.63
					c0.242,0.126,0.515,0.193,0.788,0.193c0.297,0,0.58-0.077,0.839-0.226c0.503-0.291,0.817-0.811,0.841-1.394l0.059-1.358
					l1.358-0.057c0.581-0.025,1.103-0.339,1.393-0.842c0.29-0.502,0.302-1.111,0.033-1.627l-0.629-1.205l1.146-0.729
					c0.492-0.312,0.786-0.845,0.786-1.426S61.663,33.571,61.171,33.259z M51.984,39.763c-2.805,0-5.079-2.274-5.079-5.079
					c0-2.804,2.274-5.077,5.079-5.077c2.804,0,5.078,2.273,5.078,5.077C57.062,37.489,54.789,39.763,51.984,39.763z"/>
				
					<linearGradient id="SVGID_35_" gradientUnits="userSpaceOnUse" x1="48.0718" y1="93.8096" x2="55.896" y2="93.8096" gradientTransform="matrix(1 0 0 -1 0 128.4941)">
					<stop  offset="0" style="stop-color:#97CB59"/>
					<stop  offset="1" style="stop-color:#75AE39"/>
				</linearGradient>
				<circle fill="url(#SVGID_35_)" cx="51.984" cy="34.684" r="3.912"/>
				
					<linearGradient id="SVGID_36_" gradientUnits="userSpaceOnUse" x1="49.7842" y1="61.6855" x2="54.1821" y2="61.6855" gradientTransform="matrix(1 0 0 -1 0 128.4941)">
					<stop  offset="0" style="stop-color:#242E09"/>
					<stop  offset="1" style="stop-color:#797F52"/>
				</linearGradient>
				<path fill="url(#SVGID_36_)" d="M51.984,63.929c-0.765,0-1.5-0.167-2.2-0.479v6.717h4.398V63.45
					C53.484,63.762,52.749,63.929,51.984,63.929z"/>
			</g>
		</g>
	</g>
</g>
<g id="Layer_2_1_" display="none">
	<g display="inline">
		<g>
			
				<linearGradient id="SVGID_37_" gradientUnits="userSpaceOnUse" x1="477.9648" y1="37.8286" x2="497.3867" y2="37.8286" gradientTransform="matrix(1 0 0 -1 0 128.4941)">
				<stop  offset="0" style="stop-color:#242E09"/>
				<stop  offset="1" style="stop-color:#797F52"/>
			</linearGradient>
			<rect x="477.965" y="88.676" fill="url(#SVGID_37_)" width="19.422" height="3.979"/>
			
				<linearGradient id="SVGID_38_" gradientUnits="userSpaceOnUse" x1="484.5264" y1="26.2861" x2="491.0449" y2="26.2861" gradientTransform="matrix(1 0 0 -1 0 128.4941)">
				<stop  offset="0" style="stop-color:#97CB59"/>
				<stop  offset="1" style="stop-color:#75AE39"/>
			</linearGradient>
			<polygon fill="url(#SVGID_38_)" points="491.045,110.939 484.75,110.939 484.526,93.477 490.823,93.477 			"/>
			
				<linearGradient id="SVGID_39_" gradientUnits="userSpaceOnUse" x1="474.498" y1="47.6504" x2="500.8535" y2="47.6504" gradientTransform="matrix(1 0 0 -1 0 128.4941)">
				<stop  offset="0" style="stop-color:#97CB59"/>
				<stop  offset="1" style="stop-color:#75AE39"/>
			</linearGradient>
			<path fill="url(#SVGID_39_)" d="M500.854,84.559c0,1.82-1.477,3.297-3.295,3.297h-19.767c-1.82,0-3.294-1.477-3.294-3.297v-7.43
				c0-1.82,1.474-3.297,3.294-3.297h19.767c1.818,0,3.295,1.477,3.295,3.297V84.559z"/>
			
				<linearGradient id="SVGID_40_" gradientUnits="userSpaceOnUse" x1="477.9648" y1="57.4731" x2="497.3867" y2="57.4731" gradientTransform="matrix(1 0 0 -1 0 128.4941)">
				<stop  offset="0" style="stop-color:#242E09"/>
				<stop  offset="1" style="stop-color:#797F52"/>
			</linearGradient>
			<rect x="477.965" y="69.031" fill="url(#SVGID_40_)" width="19.422" height="3.979"/>
			<g>
				
					<linearGradient id="SVGID_41_" gradientUnits="userSpaceOnUse" x1="513.7969" y1="80.1924" x2="513.7969" y2="66.4968" gradientTransform="matrix(1 0 0 -1 0 128.4941)">
					<stop  offset="0" style="stop-color:#242E09"/>
					<stop  offset="1" style="stop-color:#797F52"/>
				</linearGradient>
				<path fill="url(#SVGID_41_)" d="M525.685,64.362h-7.112v-3.516c0-0.516-0.421-0.936-0.938-0.936l-15.724,1.981V49.163
					l15.724,3.637c5.702,1.238,8.05,3.609,8.05,8.047V64.362z"/>
			</g>
			
				<linearGradient id="SVGID_42_" gradientUnits="userSpaceOnUse" x1="474.498" y1="71.1758" x2="500.8535" y2="71.1758" gradientTransform="matrix(1 0 0 -1 0 128.4941)">
				<stop  offset="0" style="stop-color:#97CB59"/>
				<stop  offset="1" style="stop-color:#75AE39"/>
			</linearGradient>
			<path fill="url(#SVGID_42_)" d="M474.498,46.426v18.488c0,1.822,1.474,3.297,3.294,3.297h19.767c1.818,0,3.295-1.475,3.295-3.297
				V46.426H474.498z"/>
			
				<linearGradient id="SVGID_43_" gradientUnits="userSpaceOnUse" x1="466.7402" y1="110.4316" x2="465.218" y2="101.6345" gradientTransform="matrix(1 0 0 -1 0 128.4941)">
				<stop  offset="0" style="stop-color:#97CB59"/>
				<stop  offset="1" style="stop-color:#75AE39"/>
			</linearGradient>
			<circle fill="url(#SVGID_43_)" cx="465.979" cy="22.471" r="4.473"/>
			
				<linearGradient id="SVGID_44_" gradientUnits="userSpaceOnUse" x1="476.1172" y1="117.3662" x2="476.1172" y2="106.7623" gradientTransform="matrix(1 0 0 -1 0 128.4941)">
				<stop  offset="0" style="stop-color:#242E09"/>
				<stop  offset="1" style="stop-color:#797F52"/>
			</linearGradient>
			<path fill="url(#SVGID_44_)" d="M481.993,13.18c0-0.725,0.145-1.413,0.396-2.051c-5.451,1.145-9.948,3.395-13.82,6.408
				c1.571,0.83,2.698,2.385,2.935,4.22c3.453-2.249,7.434-3.858,12.162-4.603C482.634,16.142,481.993,14.734,481.993,13.18z"/>
			
				<linearGradient id="SVGID_45_" gradientUnits="userSpaceOnUse" x1="488.3311" y1="119.7217" x2="486.8087" y2="110.925" gradientTransform="matrix(1 0 0 -1 0 128.4941)">
				<stop  offset="0" style="stop-color:#97CB59"/>
				<stop  offset="1" style="stop-color:#75AE39"/>
			</linearGradient>
			<circle fill="url(#SVGID_45_)" cx="487.567" cy="13.18" r="4.473"/>
			
				<linearGradient id="SVGID_46_" gradientUnits="userSpaceOnUse" x1="449.1055" y1="103.4111" x2="449.1055" y2="58.463" gradientTransform="matrix(1 0 0 -1 0 128.4941)">
				<stop  offset="0" style="stop-color:#242E09"/>
				<stop  offset="1" style="stop-color:#797F52"/>
			</linearGradient>
			<path fill="url(#SVGID_46_)" d="M461.057,25.084c-4.337,5.4-7.967,11.762-11.755,18.174c-4.543,8.029-9.307,16.08-15.557,22.211
				l0.445,4.674c7.313-5.84,12.482-14.506,17.371-23.146c4.077-6.898,7.948-13.732,12.906-19.166
				C462.994,27.414,461.767,26.412,461.057,25.084z"/>
			<g>
				
					<linearGradient id="SVGID_47_" gradientUnits="userSpaceOnUse" x1="487.873" y1="110.0029" x2="487.873" y2="95.3727" gradientTransform="matrix(1 0 0 -1 0 128.4941)">
					<stop  offset="0" style="stop-color:#242E09"/>
					<stop  offset="1" style="stop-color:#797F52"/>
				</linearGradient>
				<path fill="url(#SVGID_47_)" d="M488.001,33.098c0.431,0,0.847,0.012,1.254,0.025V18.492c-0.531,0.17-1.101,0.262-1.688,0.262
					c-0.367,0-0.727-0.037-1.073-0.105v14.508C486.987,33.119,487.49,33.098,488.001,33.098z"/>
				
					<linearGradient id="SVGID_48_" gradientUnits="userSpaceOnUse" x1="482.7402" y1="103.374" x2="482.7402" y2="83.4783" gradientTransform="matrix(1 0 0 -1 0 128.4941)">
					<stop  offset="0" style="stop-color:#242E09"/>
					<stop  offset="1" style="stop-color:#797F52"/>
				</linearGradient>
				<path fill="url(#SVGID_48_)" d="M488.001,34.199c-5.159,0-9.601,2.268-9.601,2.268l-7.521-11.346
					c-0.943,1.741-2.787,2.924-4.902,2.924c-0.57,0-1.121-0.086-1.641-0.245c0.034,1.021,0.035,2.28,0.072,3.979
					c0.155,7.189,1.991,9.021,4.376,10.629c1.146,0.771,4.847,2.656,4.847,2.656h27.514v-6.279
					C501.146,38.785,498.006,34.199,488.001,34.199z"/>
			</g>
			
				<linearGradient id="SVGID_49_" gradientUnits="userSpaceOnUse" x1="494.6484" y1="165.1699" x2="494.6484" y2="135.6582" gradientTransform="matrix(1 0 0 -1 27.1709 232.6211)">
				<stop  offset="0" style="stop-color:#97CB59"/>
				<stop  offset="1" style="stop-color:#75AE39"/>
			</linearGradient>
			<path fill="url(#SVGID_49_)" d="M521.821,67.451c0,0-9.998,13.994-9.998,19.516c0,5.521,4.478,9.994,9.996,9.996
				c5.521-0.002,9.995-4.477,9.997-9.996C531.816,81.445,521.821,67.451,521.821,67.451z M521.821,95.447
				c-4.679-0.002-8.481-3.805-8.479-8.481c0-3.601,5.322-12.204,8.479-16.859c0.062,0.094,0.126,0.19,0.191,0.286
				c-2.99,4.814-6.156,10.646-6.156,13.499c0,4.944,4.023,8.973,8.97,8.973c1.36,0,2.652-0.312,3.808-0.854
				C527.085,94.092,524.608,95.445,521.821,95.447z"/>
			
				<linearGradient id="SVGID_50_" gradientUnits="userSpaceOnUse" x1="522.1035" y1="63.7456" x2="522.1035" y2="62.2827" gradientTransform="matrix(1 0 0 -1 0 128.4941)">
				<stop  offset="0" style="stop-color:#97CB59"/>
				<stop  offset="1" style="stop-color:#75AE39"/>
			</linearGradient>
			<path fill="url(#SVGID_50_)" d="M526.319,65.668c0,0.301-0.243,0.543-0.542,0.543h-7.345c-0.299,0-0.542-0.242-0.542-0.543
				v-0.375c0-0.301,0.243-0.545,0.542-0.545h7.345c0.299,0,0.542,0.244,0.542,0.545V65.668z"/>
		</g>
		<g>
			
				<linearGradient id="SVGID_51_" gradientUnits="userSpaceOnUse" x1="164.9175" y1="59.7852" x2="209.5244" y2="59.7852" gradientTransform="matrix(1 0 0 -1 0 128.4941)">
				<stop  offset="0" style="stop-color:#242E09"/>
				<stop  offset="1" style="stop-color:#797F52"/>
			</linearGradient>
			<path fill="url(#SVGID_51_)" d="M185.73,72.098c8.009,0,15.964,0.802,23.794,2.386c-0.414-2.525-1.137-5.013-2.182-7.396
				c-1.088-2.367-4.25-4.153-6.603-4.153c-9.045,0-18.09,0-27.135,0c-2.353,0-5.516,1.786-6.603,4.153
				c-0.972,2.215-1.659,4.519-2.084,6.857C171.757,72.721,178.709,72.098,185.73,72.098z"/>
			
				<linearGradient id="SVGID_52_" gradientUnits="userSpaceOnUse" x1="152.3682" y1="22.5664" x2="152.3682" y2="28.7559" gradientTransform="matrix(1 0 0 -1 0 128.4941)">
				<stop  offset="0" style="stop-color:#242E09"/>
				<stop  offset="1" style="stop-color:#797F52"/>
			</linearGradient>
			<path fill="url(#SVGID_52_)" d="M155.505,102.65c0-0.57,0.06-1.131,0.156-1.677h-4.91c-0.925,0-1.676,0.75-1.676,1.677
				c0,0.929,0.751,1.676,1.676,1.676h4.91C155.564,103.783,155.505,103.223,155.505,102.65z"/>
			
				<linearGradient id="SVGID_53_" gradientUnits="userSpaceOnUse" x1="165.0596" y1="33.793" x2="165.0596" y2="17.3567" gradientTransform="matrix(1 0 0 -1 0 128.4941)">
				<stop  offset="0" style="stop-color:#242E09"/>
				<stop  offset="1" style="stop-color:#797F52"/>
			</linearGradient>
			<path fill="url(#SVGID_53_)" d="M165.059,94.363c-4.577,0-8.287,3.711-8.287,8.287c0,4.578,3.71,8.289,8.287,8.289
				s8.288-3.711,8.288-8.289C173.346,98.074,169.635,94.363,165.059,94.363z M165.059,106.721c-2.247,0-4.069-1.821-4.069-4.069
				c0-2.246,1.822-4.068,4.069-4.068c2.248,0,4.07,1.822,4.07,4.068C169.128,104.898,167.306,106.721,165.059,106.721z"/>
			
				<linearGradient id="SVGID_54_" gradientUnits="userSpaceOnUse" x1="165.0591" y1="28.7178" x2="165.0591" y2="22.7714" gradientTransform="matrix(1 0 0 -1 0 128.4941)">
				<stop  offset="0" style="stop-color:#97CB59"/>
				<stop  offset="1" style="stop-color:#75AE39"/>
			</linearGradient>
			<circle fill="url(#SVGID_54_)" cx="165.059" cy="102.65" r="2.998"/>
			<g>
				
					<linearGradient id="SVGID_55_" gradientUnits="userSpaceOnUse" x1="222.3062" y1="22.5664" x2="222.3062" y2="28.7559" gradientTransform="matrix(1 0 0 -1 0 128.4941)">
					<stop  offset="0" style="stop-color:#242E09"/>
					<stop  offset="1" style="stop-color:#797F52"/>
				</linearGradient>
				<path fill="url(#SVGID_55_)" d="M223.875,100.975h-4.812c0.096,0.546,0.156,1.105,0.156,1.677s-0.06,1.133-0.156,1.676h4.812
					c0.925,0,1.676-0.747,1.676-1.676C225.551,101.725,224.8,100.975,223.875,100.975z"/>
				
					<linearGradient id="SVGID_56_" gradientUnits="userSpaceOnUse" x1="187.3618" y1="22.5664" x2="187.3618" y2="28.7559" gradientTransform="matrix(1 0 0 -1 0 128.4941)">
					<stop  offset="0" style="stop-color:#242E09"/>
					<stop  offset="1" style="stop-color:#797F52"/>
				</linearGradient>
				<path fill="url(#SVGID_56_)" d="M200.269,104.326c-0.097-0.543-0.156-1.104-0.156-1.676c0-0.57,0.06-1.131,0.156-1.677h-25.813
					c0.097,0.546,0.156,1.105,0.156,1.677s-0.059,1.133-0.156,1.676H200.269z"/>
			</g>
			
				<linearGradient id="SVGID_57_" gradientUnits="userSpaceOnUse" x1="187.3135" y1="54.5488" x2="187.3135" y2="28.6395" gradientTransform="matrix(1 0 0 -1 0 128.4941)">
				<stop  offset="0" style="stop-color:#97CB59"/>
				<stop  offset="1" style="stop-color:#75AE39"/>
			</linearGradient>
			<path fill="url(#SVGID_57_)" d="M226.216,80.521c-25.179-9.111-52.644-9.531-77.808-0.873c-3.283,1.184-4.437,4.771-2.636,7.785
				c2.367,4.146,4.732,7.921,7.099,12.065c1.062-0.008,2.123-0.01,3.184-0.014c1.308-3.72,4.84-6.39,9.004-6.39
				c4.155,0,7.681,2.659,8.995,6.363c8.864,0.02,17.727,0.062,26.588,0.081c1.291-3.747,4.839-6.444,9.024-6.444
				c4.175,0,7.715,2.685,9.014,6.416c1.026-0.006,2.051-0.006,3.077-0.014c2.366-3.75,4.732-7.877,7.099-11.629
				C230.656,85.156,229.5,81.77,226.216,80.521z"/>
			
				<linearGradient id="SVGID_58_" gradientUnits="userSpaceOnUse" x1="209.666" y1="33.793" x2="209.666" y2="17.3567" gradientTransform="matrix(1 0 0 -1 0 128.4941)">
				<stop  offset="0" style="stop-color:#242E09"/>
				<stop  offset="1" style="stop-color:#797F52"/>
			</linearGradient>
			<path fill="url(#SVGID_58_)" d="M209.666,94.363c-4.578,0-8.288,3.711-8.288,8.287c0,4.578,3.71,8.289,8.288,8.289
				c4.577,0,8.288-3.711,8.288-8.289C217.954,98.074,214.243,94.363,209.666,94.363z M209.666,106.721
				c-2.248,0-4.07-1.821-4.07-4.069c0-2.246,1.822-4.068,4.07-4.068c2.247,0,4.069,1.822,4.069,4.068
				C213.734,104.898,211.913,106.721,209.666,106.721z"/>
			
				<linearGradient id="SVGID_59_" gradientUnits="userSpaceOnUse" x1="209.666" y1="28.7178" x2="209.666" y2="22.7714" gradientTransform="matrix(1 0 0 -1 0 128.4941)">
				<stop  offset="0" style="stop-color:#97CB59"/>
				<stop  offset="1" style="stop-color:#75AE39"/>
			</linearGradient>
			<circle fill="url(#SVGID_59_)" cx="209.666" cy="102.65" r="2.998"/>
			
				<linearGradient id="SVGID_60_" gradientUnits="userSpaceOnUse" x1="220.8618" y1="75.9316" x2="232.5737" y2="75.9316" gradientTransform="matrix(1 0 0 -1 0 128.4941)">
				<stop  offset="0" style="stop-color:#242E09"/>
				<stop  offset="1" style="stop-color:#797F52"/>
			</linearGradient>
			<path fill="url(#SVGID_60_)" d="M232.402,29.885V26.49c-4.748,1.826-6.285,7.688-6.404,11.117l-5.137,39.805
				c1.264,0.388,2.523,0.795,3.779,1.223l5.242-40.621l0.016-0.197c0.001-0.062,0.167-4.723,2.675-6.892
				C232.465,30.596,232.402,30.25,232.402,29.885z"/>
			
				<linearGradient id="SVGID_61_" gradientUnits="userSpaceOnUse" x1="243.0215" y1="104.9473" x2="243.0215" y2="96.3313" gradientTransform="matrix(1 0 0 -1 0 128.4941)">
				<stop  offset="0" style="stop-color:#97CB59"/>
				<stop  offset="1" style="stop-color:#75AE39"/>
			</linearGradient>
			<path fill="url(#SVGID_61_)" d="M252.38,29.885c0,1.119-0.907,2.023-2.025,2.023h-14.67c-1.118,0-2.024-0.904-2.024-2.023v-4.439
				c0-1.119,0.906-2.025,2.024-2.025h14.67c1.118,0,2.025,0.906,2.025,2.025V29.885z"/>
		</g>
		<g>
			
				<linearGradient id="SVGID_62_" gradientUnits="userSpaceOnUse" x1="331.0215" y1="17.1914" x2="331.0215" y2="62.7911" gradientTransform="matrix(1 0 0 -1 0 128.4941)">
				<stop  offset="0" style="stop-color:#242E09"/>
				<stop  offset="1" style="stop-color:#797F52"/>
			</linearGradient>
			<polygon fill="url(#SVGID_62_)" points="332.932,92.551 326.771,110.939 330.026,110.939 335.271,92.551 			"/>
			
				<linearGradient id="SVGID_63_" gradientUnits="userSpaceOnUse" x1="324.6104" y1="17.1914" x2="324.6104" y2="62.7911" gradientTransform="matrix(1 0 0 -1 0 128.4941)">
				<stop  offset="0" style="stop-color:#242E09"/>
				<stop  offset="1" style="stop-color:#797F52"/>
			</linearGradient>
			<polygon fill="url(#SVGID_63_)" points="328.073,92.551 318.486,110.939 322.222,110.939 330.732,92.551 			"/>
			
				<linearGradient id="SVGID_64_" gradientUnits="userSpaceOnUse" x1="336.6426" y1="17.1914" x2="336.6426" y2="62.7911" gradientTransform="matrix(1 0 0 -1 0 128.4941)">
				<stop  offset="0" style="stop-color:#242E09"/>
				<stop  offset="1" style="stop-color:#797F52"/>
			</linearGradient>
			<polygon fill="url(#SVGID_64_)" points="337.143,92.551 333.964,110.939 336.973,110.939 339.319,92.551 			"/>
			
				<linearGradient id="SVGID_65_" gradientUnits="userSpaceOnUse" x1="316.7168" y1="17.1914" x2="316.7168" y2="62.7911" gradientTransform="matrix(1 0 0 -1 0 128.4941)">
				<stop  offset="0" style="stop-color:#242E09"/>
				<stop  offset="1" style="stop-color:#797F52"/>
			</linearGradient>
			<polygon fill="url(#SVGID_65_)" points="322.021,92.551 308.179,110.939 312.785,110.939 325.252,92.551 			"/>
			
				<linearGradient id="SVGID_66_" gradientUnits="userSpaceOnUse" x1="342.1025" y1="17.1904" x2="342.1025" y2="62.793" gradientTransform="matrix(1 0 0 -1 0 128.4941)">
				<stop  offset="0" style="stop-color:#242E09"/>
				<stop  offset="1" style="stop-color:#797F52"/>
			</linearGradient>
			<path fill="url(#SVGID_66_)" d="M324.803,88.857h2.952l9.275-13.684c0.022,0.021,0.044,0.042,0.067,0.065l-7.099,13.617h2.44
				l5.871-12.687c0.03,0.019,0.06,0.035,0.088,0.051l-4.23,12.636h2.155l3.434-12.028c0.031,0.009,0.063,0.019,0.099,0.03
				l-2.075,11.998h2.011l1.492-11.707c0.027,0.004,0.055,0.008,0.081,0.012l-0.256,11.695h1.964l-0.256-11.695
				c0.033-0.006,0.067-0.008,0.102-0.012l1.493,11.707h2.01l-2.074-12.003c0.031-0.014,0.064-0.022,0.097-0.032l3.436,12.035h2.155
				L345.8,76.211c0.028-0.016,0.058-0.033,0.087-0.051l5.874,12.695h2.441l-7.104-13.632c0.021-0.021,0.042-0.045,0.063-0.065
				l9.285,13.697h2.953L348.13,73.879c0.441-0.79,0.691-1.681,0.691-2.622c0-3.278-3.015-5.936-6.732-5.936s-6.73,2.655-6.73,5.936
				c0,0.947,0.254,1.842,0.702,2.64L324.803,88.857z"/>
			
				<linearGradient id="SVGID_67_" gradientUnits="userSpaceOnUse" x1="359.5938" y1="17.1914" x2="359.5938" y2="62.7911" gradientTransform="matrix(1 0 0 -1 0 128.4941)">
				<stop  offset="0" style="stop-color:#242E09"/>
				<stop  offset="1" style="stop-color:#797F52"/>
			</linearGradient>
			<polygon fill="url(#SVGID_67_)" points="353.469,92.551 361.981,110.939 365.716,110.939 356.128,92.551 			"/>
			
				<linearGradient id="SVGID_68_" gradientUnits="userSpaceOnUse" x1="367.4893" y1="17.1914" x2="367.4893" y2="62.7911" gradientTransform="matrix(1 0 0 -1 0 128.4941)">
				<stop  offset="0" style="stop-color:#242E09"/>
				<stop  offset="1" style="stop-color:#797F52"/>
			</linearGradient>
			<polygon fill="url(#SVGID_68_)" points="362.181,92.551 358.952,92.551 371.419,110.939 376.024,110.939 			"/>
			
				<linearGradient id="SVGID_69_" gradientUnits="userSpaceOnUse" x1="353.1816" y1="17.1914" x2="353.1816" y2="62.7911" gradientTransform="matrix(1 0 0 -1 0 128.4941)">
				<stop  offset="0" style="stop-color:#242E09"/>
				<stop  offset="1" style="stop-color:#797F52"/>
			</linearGradient>
			<polygon fill="url(#SVGID_69_)" points="348.93,92.551 354.177,110.939 357.433,110.939 351.271,92.551 			"/>
			
				<linearGradient id="SVGID_70_" gradientUnits="userSpaceOnUse" x1="347.5615" y1="17.1914" x2="347.5615" y2="62.7911" gradientTransform="matrix(1 0 0 -1 0 128.4941)">
				<stop  offset="0" style="stop-color:#242E09"/>
				<stop  offset="1" style="stop-color:#797F52"/>
			</linearGradient>
			<polygon fill="url(#SVGID_70_)" points="344.883,92.551 347.229,110.939 350.238,110.939 347.06,92.551 			"/>
			
				<linearGradient id="SVGID_71_" gradientUnits="userSpaceOnUse" x1="342.0918" y1="17.1914" x2="342.0918" y2="62.7911" gradientTransform="matrix(1 0 0 -1 0 128.4941)">
				<stop  offset="0" style="stop-color:#242E09"/>
				<stop  offset="1" style="stop-color:#797F52"/>
			</linearGradient>
			<polygon fill="url(#SVGID_71_)" points="341.027,92.551 340.625,110.939 343.558,110.939 343.155,92.551 			"/>
			
				<linearGradient id="SVGID_72_" gradientUnits="userSpaceOnUse" x1="322.6758" y1="37.7896" x2="361.5273" y2="37.7896" gradientTransform="matrix(1 0 0 -1 0 128.4941)">
				<stop  offset="0" style="stop-color:#97CB59"/>
				<stop  offset="1" style="stop-color:#75AE39"/>
			</linearGradient>
			<polygon fill="url(#SVGID_72_)" points="361.527,91.68 322.676,91.68 324.146,89.729 360.058,89.729 			"/>
			
				<linearGradient id="SVGID_73_" gradientUnits="userSpaceOnUse" x1="338.0771" y1="91.5518" x2="345.7104" y2="91.5518" gradientTransform="matrix(1 0 0 -1 0 128.4941)">
				<stop  offset="0" style="stop-color:#97CB59"/>
				<stop  offset="1" style="stop-color:#75AE39"/>
			</linearGradient>
			<path fill="url(#SVGID_73_)" d="M342.09,63.127c1.249,0,2.437,0.236,3.515,0.658V12.158c0-1.137-0.922-2.057-2.055-2.057h-2.896
				c-1.136,0-2.056,0.92-2.056,2.057v51.617C339.67,63.357,340.851,63.127,342.09,63.127z"/>
		</g>
		<g>
			
				<linearGradient id="SVGID_74_" gradientUnits="userSpaceOnUse" x1="47.6064" y1="27.188" x2="64.5278" y2="27.188" gradientTransform="matrix(1 0 0 -1 0 128.4941)">
				<stop  offset="0" style="stop-color:#242E09"/>
				<stop  offset="1" style="stop-color:#797F52"/>
			</linearGradient>
			<rect x="48.76" y="91.672" fill="url(#SVGID_74_)" width="15.533" height="19.269"/>
			
				<linearGradient id="SVGID_75_" gradientUnits="userSpaceOnUse" x1="50.4316" y1="41.7402" x2="61.9933" y2="41.7402" gradientTransform="matrix(1 0 0 -1 0 128.4941)">
				<stop  offset="0" style="stop-color:#97CB59"/>
				<stop  offset="1" style="stop-color:#75AE39"/>
			</linearGradient>
			<rect x="51.22" y="83.664" fill="url(#SVGID_75_)" width="10.613" height="6.18"/>
			
				<linearGradient id="SVGID_76_" gradientUnits="userSpaceOnUse" x1="66.8291" y1="66.2119" x2="89.8519" y2="66.2119" gradientTransform="matrix(1 0 0 -1 0 128.4941)">
				<stop  offset="0" style="stop-color:#97CB59"/>
				<stop  offset="1" style="stop-color:#75AE39"/>
			</linearGradient>
			<polygon fill="url(#SVGID_76_)" points="69.321,68.895 89.531,63.352 87.473,55.67 68.397,60.908 			"/>
			
				<linearGradient id="SVGID_77_" gradientUnits="userSpaceOnUse" x1="28.0454" y1="77.291" x2="24.1798" y2="59.3073" gradientTransform="matrix(1 0 0 -1 0 128.4941)">
				<stop  offset="0" style="stop-color:#97CB59"/>
				<stop  offset="1" style="stop-color:#75AE39"/>
			</linearGradient>
			<path fill="url(#SVGID_77_)" d="M19.281,49.885c-5.349-1.434-10.723,1.285-12.004,6.069c-1.282,4.783,2.015,9.821,7.361,11.255
				c2.965,0.795,16.811,3.228,28.775,4.42l1.377-11.906C34.186,55.037,22.101,50.643,19.281,49.885z M41.71,69.504
				c-11.57-1.254-23.949-3.462-26.571-4.166c-4.308-1.151-6.997-5.139-5.993-8.884c0.101-0.375,0.238-0.735,0.406-1.081
				c-0.508,3.514,2.199,7.062,6.374,8.141c2.603,0.673,14.476,2.725,26.014,3.996L41.71,69.504z"/>
			
				<linearGradient id="SVGID_78_" gradientUnits="userSpaceOnUse" x1="43.8096" y1="64.3535" x2="69.2407" y2="64.3535" gradientTransform="matrix(1 0 0 -1 0 128.4941)">
				<stop  offset="0" style="stop-color:#242E09"/>
				<stop  offset="1" style="stop-color:#797F52"/>
			</linearGradient>
			<path fill="url(#SVGID_78_)" d="M66.591,59.326c0-0.201-0.021-0.396-0.06-0.586c-0.139-7.049-4.563-12.707-10.004-12.707
				c-5.443,0-9.868,5.658-10.005,12.707c-0.04,0.189-0.061,0.385-0.061,0.586L43.81,82.248h11.461h2.509h11.461L66.591,59.326z
				 M55.271,56.434h-4.834c0.832-3.541,3.242-6.471,6.09-6.471c2.846,0,5.256,2.93,6.089,6.471h-4.835H55.271z"/>
			
				<linearGradient id="SVGID_79_" gradientUnits="userSpaceOnUse" x1="811.9609" y1="63.0884" x2="811.9609" y2="39.6162" gradientTransform="matrix(-0.3396 -0.9406 -0.9406 0.3396 427.0208 800.8043)">
				<stop  offset="0" style="stop-color:#97CB59"/>
				<stop  offset="1" style="stop-color:#75AE39"/>
			</linearGradient>
			<path fill="url(#SVGID_79_)" d="M91.936,58.496c0,0,13.171,3.699,17.3,2.209c4.13-1.489,6.269-6.049,4.779-10.176
				c-1.492-4.133-6.049-6.27-10.179-4.779C99.706,47.24,91.936,58.496,91.936,58.496z M112.88,50.936
				c1.262,3.5-0.554,7.373-4.055,8.635c-2.691,0.973-10.565-0.686-14.903-1.791c0.054-0.072,0.11-0.146,0.163-0.221
				c4.41,0.936,9.626,1.729,11.76,0.959c3.7-1.334,5.625-5.433,4.289-9.133c-0.368-1.019-0.947-1.9-1.666-2.617
				C110.446,47.362,112.126,48.85,112.88,50.936z"/>
			
				<linearGradient id="SVGID_80_" gradientUnits="userSpaceOnUse" x1="189.9902" y1="139.7998" x2="189.9902" y2="130.4414" gradientTransform="matrix(0.9637 -0.267 -0.267 -0.9637 -57.0682 240.0374)">
				<stop  offset="0" style="stop-color:#242E09"/>
				<stop  offset="1" style="stop-color:#797F52"/>
			</linearGradient>
			<path fill="url(#SVGID_80_)" d="M91.968,62.664c0.104,0.373-0.114,0.761-0.487,0.861l-0.568,0.157
				c-0.373,0.104-0.76-0.112-0.862-0.487l-2.125-7.666c-0.102-0.375,0.115-0.762,0.489-0.865l0.569-0.157
				c0.373-0.103,0.758,0.114,0.862,0.487L91.968,62.664z"/>
		</g>
	</g>
</g>
<g id="Layer_3">
	<g>
		<g>
			
				<linearGradient id="SVGID_81_" gradientUnits="userSpaceOnUse" x1="422.04" y1="57.1011" x2="434.7773" y2="57.1011" gradientTransform="matrix(1 0 0.0459 -1 9.7526 128.4941)">
				<stop  offset="0" style="stop-color:#242E09"/>
				<stop  offset="1" style="stop-color:#797F52"/>
			</linearGradient>
			<path fill="url(#SVGID_81_)" d="M445.629,104.537c-7.612-21.502-10.835-44.246-9.225-66.288
				c-2.7,21.425-0.75,44.155,5.797,66.288H445.629z"/>
			
				<linearGradient id="SVGID_82_" gradientUnits="userSpaceOnUse" x1="413.7314" y1="57.1011" x2="426.8105" y2="57.1011" gradientTransform="matrix(1 0 0.0921 -1 19.3857 128.4941)">
				<stop  offset="0" style="stop-color:#97CB59"/>
				<stop  offset="1" style="stop-color:#75AE39"/>
			</linearGradient>
			<path fill="url(#SVGID_82_)" d="M448.402,104.537c-6.752-21.502-9.064-44.246-6.574-66.288
				c-3.556,21.425-2.514,44.155,3.147,66.288H448.402z"/>
			
				<linearGradient id="SVGID_83_" gradientUnits="userSpaceOnUse" x1="388.2021" y1="57.1011" x2="402.1279" y2="57.1011" gradientTransform="matrix(1 0 0.2042 -1 44.0234 128.4941)">
				<stop  offset="0" style="stop-color:#242E09"/>
				<stop  offset="1" style="stop-color:#797F52"/>
			</linearGradient>
			<path fill="url(#SVGID_83_)" d="M451.044,104.537c-4.665-21.502-4.768-44.246-0.138-66.288
				c-5.638,21.425-6.801,44.155-3.291,66.288H451.044z"/>
			
				<linearGradient id="SVGID_84_" gradientUnits="userSpaceOnUse" x1="393.8457" y1="57.1011" x2="407.709" y2="57.1011" gradientTransform="matrix(1 0 0.1954 -1 41.6302 128.4941)">
				<stop  offset="0" style="stop-color:#97CB59"/>
				<stop  offset="1" style="stop-color:#75AE39"/>
			</linearGradient>
			<path fill="url(#SVGID_84_)" d="M454.019,104.537c-4.829-21.502-5.108-44.246-0.647-66.288
				c-5.47,21.425-6.461,44.155-2.78,66.288H454.019z"/>
			
				<linearGradient id="SVGID_85_" gradientUnits="userSpaceOnUse" x1="393.4043" y1="57.1011" x2="407.3516" y2="57.1011" gradientTransform="matrix(1 0 0.2068 -1 44.3873 128.4941)">
				<stop  offset="0" style="stop-color:#242E09"/>
				<stop  offset="1" style="stop-color:#797F52"/>
			</linearGradient>
			<path fill="url(#SVGID_85_)" d="M456.693,104.537c-4.617-21.502-4.671-44.246,0.01-66.288
				c-5.685,21.425-6.899,44.155-3.438,66.288H456.693z"/>
			
				<linearGradient id="SVGID_86_" gradientUnits="userSpaceOnUse" x1="369.207" y1="57.1011" x2="383.9668" y2="57.1011" gradientTransform="matrix(1 0 0.3097 -1 66.4126 128.4941)">
				<stop  offset="0" style="stop-color:#97CB59"/>
				<stop  offset="1" style="stop-color:#75AE39"/>
			</linearGradient>
			<path fill="url(#SVGID_86_)" d="M457.799,104.537c-2.701-21.502-0.729-44.246,5.914-66.288
				c-7.591,21.425-10.833,44.155-9.342,66.288H457.799z"/>
			<g>
				
					<linearGradient id="SVGID_87_" gradientUnits="userSpaceOnUse" x1="386.5127" y1="57.1011" x2="400.8018" y2="57.1011" gradientTransform="matrix(1 0 0.2504 -1 53.6848 128.4941)">
					<stop  offset="0" style="stop-color:#242E09"/>
					<stop  offset="1" style="stop-color:#797F52"/>
				</linearGradient>
				<path fill="url(#SVGID_87_)" d="M460.485,104.537c-3.807-21.502-3-44.246,2.511-66.288c-6.492,21.425-8.565,44.155-5.939,66.288
					H460.485z"/>
				
					<linearGradient id="SVGID_88_" gradientUnits="userSpaceOnUse" x1="378.1797" y1="57.1011" x2="392.8359" y2="57.1011" gradientTransform="matrix(1 0 0.2966 -1 63.3179 128.4941)">
					<stop  offset="0" style="stop-color:#242E09"/>
					<stop  offset="1" style="stop-color:#797F52"/>
				</linearGradient>
				<path fill="url(#SVGID_88_)" d="M463.26,104.537c-2.944-21.502-1.23-44.246,5.16-66.288
					c-7.348,21.425-10.33,44.155-8.588,66.288H463.26z"/>
				
					<linearGradient id="SVGID_89_" gradientUnits="userSpaceOnUse" x1="353.4033" y1="57.1011" x2="368.9756" y2="57.1011" gradientTransform="matrix(1 0 0.4088 -1 87.1322 128.4941)">
					<stop  offset="0" style="stop-color:#97CB59"/>
					<stop  offset="1" style="stop-color:#75AE39"/>
				</linearGradient>
				<path fill="url(#SVGID_89_)" d="M465.901,104.537c-0.859-21.502,3.064-44.246,11.597-66.288
					c-9.429,21.425-14.616,44.155-15.024,66.288H465.901z"/>
				
					<linearGradient id="SVGID_90_" gradientUnits="userSpaceOnUse" x1="358.2354" y1="57.1011" x2="373.7334" y2="57.1011" gradientTransform="matrix(1 0 0.3999 -1 85.5615 128.4941)">
					<stop  offset="0" style="stop-color:#97CB59"/>
					<stop  offset="1" style="stop-color:#75AE39"/>
				</linearGradient>
				<path fill="url(#SVGID_90_)" d="M468.876,104.537c-1.023-21.502,2.725-44.246,11.087-66.288
					c-9.263,21.425-14.278,44.155-14.516,66.288H468.876z"/>
				
					<linearGradient id="SVGID_91_" gradientUnits="userSpaceOnUse" x1="357.7881" y1="57.1011" x2="373.376" y2="57.1011" gradientTransform="matrix(1 0 0.4113 -1 88.3195 128.4941)">
					<stop  offset="0" style="stop-color:#242E09"/>
					<stop  offset="1" style="stop-color:#797F52"/>
				</linearGradient>
				<path fill="url(#SVGID_91_)" d="M471.55,104.537c-0.811-21.502,3.164-44.246,11.745-66.288
					c-9.477,21.425-14.717,44.155-15.173,66.288H471.55z"/>
				
					<linearGradient id="SVGID_92_" gradientUnits="userSpaceOnUse" x1="333.5332" y1="57.1011" x2="349.9922" y2="57.1011" gradientTransform="matrix(1 0 0.5142 -1 110.3449 128.4941)">
					<stop  offset="0" style="stop-color:#97CB59"/>
					<stop  offset="1" style="stop-color:#75AE39"/>
				</linearGradient>
				<path fill="url(#SVGID_92_)" d="M472.655,104.537c1.105-21.502,7.104-44.246,17.648-66.288
					c-11.383,21.425-18.648,44.155-21.077,66.288H472.655z"/>
			</g>
			
				<linearGradient id="SVGID_93_" gradientUnits="userSpaceOnUse" x1="449.5791" y1="57.1011" x2="462.3145" y2="57.1011" gradientTransform="matrix(1 0 0.0459 -1 9.7526 128.4941)">
				<stop  offset="0" style="stop-color:#97CB59"/>
				<stop  offset="1" style="stop-color:#75AE39"/>
			</linearGradient>
			<path fill="url(#SVGID_93_)" d="M473.166,104.537c-7.612-21.502-10.833-44.246-9.224-66.288
				c-2.697,21.425-0.749,44.155,5.797,66.288H473.166z"/>
			
				<linearGradient id="SVGID_94_" gradientUnits="userSpaceOnUse" x1="441.2705" y1="57.1011" x2="454.3506" y2="57.1011" gradientTransform="matrix(1 0 0.0921 -1 19.3857 128.4941)">
				<stop  offset="0" style="stop-color:#97CB59"/>
				<stop  offset="1" style="stop-color:#75AE39"/>
			</linearGradient>
			<path fill="url(#SVGID_94_)" d="M475.942,104.537c-6.754-21.502-9.065-44.246-6.575-66.288
				c-3.557,21.425-2.514,44.155,3.146,66.288H475.942z"/>
			
				<linearGradient id="SVGID_95_" gradientUnits="userSpaceOnUse" x1="415.7402" y1="57.1011" x2="429.667" y2="57.1011" gradientTransform="matrix(1 0 0.2042 -1 44.0234 128.4941)">
				<stop  offset="0" style="stop-color:#242E09"/>
				<stop  offset="1" style="stop-color:#797F52"/>
			</linearGradient>
			<path fill="url(#SVGID_95_)" d="M478.583,104.537c-4.664-21.502-4.769-44.246-0.139-66.288
				c-5.636,21.425-6.802,44.155-3.289,66.288H478.583z"/>
			
				<linearGradient id="SVGID_96_" gradientUnits="userSpaceOnUse" x1="421.3867" y1="57.1011" x2="435.2461" y2="57.1011" gradientTransform="matrix(1 0 0.1954 -1 41.6302 128.4941)">
				<stop  offset="0" style="stop-color:#97CB59"/>
				<stop  offset="1" style="stop-color:#75AE39"/>
			</linearGradient>
			<path fill="url(#SVGID_96_)" d="M481.557,104.537c-4.83-21.502-5.107-44.246-0.646-66.288
				c-5.471,21.425-6.462,44.155-2.78,66.288H481.557z"/>
			
				<linearGradient id="SVGID_97_" gradientUnits="userSpaceOnUse" x1="420.9434" y1="57.1011" x2="434.8906" y2="57.1011" gradientTransform="matrix(1 0 0.2068 -1 44.3873 128.4941)">
				<stop  offset="0" style="stop-color:#242E09"/>
				<stop  offset="1" style="stop-color:#797F52"/>
			</linearGradient>
			<path fill="url(#SVGID_97_)" d="M484.232,104.537c-4.616-21.502-4.672-44.246,0.01-66.288c-5.685,21.425-6.9,44.155-3.438,66.288
				H484.232z"/>
			
				<linearGradient id="SVGID_98_" gradientUnits="userSpaceOnUse" x1="396.7461" y1="57.1011" x2="411.5059" y2="57.1011" gradientTransform="matrix(1 0 0.3097 -1 66.4126 128.4941)">
				<stop  offset="0" style="stop-color:#97CB59"/>
				<stop  offset="1" style="stop-color:#75AE39"/>
			</linearGradient>
			<path fill="url(#SVGID_98_)" d="M485.338,104.537c-2.701-21.502-0.729-44.246,5.914-66.288
				c-7.591,21.425-10.832,44.155-9.341,66.288H485.338z"/>
			<g>
				
					<linearGradient id="SVGID_99_" gradientUnits="userSpaceOnUse" x1="414.0527" y1="57.1011" x2="428.3408" y2="57.1011" gradientTransform="matrix(1 0 0.2504 -1 53.6848 128.4941)">
					<stop  offset="0" style="stop-color:#242E09"/>
					<stop  offset="1" style="stop-color:#797F52"/>
				</linearGradient>
				<path fill="url(#SVGID_99_)" d="M488.024,104.537c-3.807-21.502-3.001-44.246,2.511-66.288
					c-6.49,21.425-8.564,44.155-5.938,66.288H488.024z"/>
				
					<linearGradient id="SVGID_100_" gradientUnits="userSpaceOnUse" x1="405.7188" y1="57.1011" x2="420.375" y2="57.1011" gradientTransform="matrix(1 0 0.2966 -1 63.3179 128.4941)">
					<stop  offset="0" style="stop-color:#242E09"/>
					<stop  offset="1" style="stop-color:#797F52"/>
				</linearGradient>
				<path fill="url(#SVGID_100_)" d="M490.799,104.537c-2.945-21.502-1.23-44.246,5.16-66.288
					c-7.348,21.425-10.33,44.155-8.587,66.288H490.799z"/>
				
					<linearGradient id="SVGID_101_" gradientUnits="userSpaceOnUse" x1="380.9424" y1="57.1011" x2="396.5156" y2="57.1011" gradientTransform="matrix(1 0 0.4088 -1 87.1322 128.4941)">
					<stop  offset="0" style="stop-color:#97CB59"/>
					<stop  offset="1" style="stop-color:#75AE39"/>
				</linearGradient>
				<path fill="url(#SVGID_101_)" d="M493.441,104.537c-0.86-21.502,3.063-44.246,11.596-66.288
					c-9.428,21.425-14.618,44.155-15.024,66.288H493.441z"/>
				
					<linearGradient id="SVGID_102_" gradientUnits="userSpaceOnUse" x1="385.7754" y1="57.1011" x2="401.2715" y2="57.1011" gradientTransform="matrix(1 0 0.3999 -1 85.5615 128.4941)">
					<stop  offset="0" style="stop-color:#97CB59"/>
					<stop  offset="1" style="stop-color:#75AE39"/>
				</linearGradient>
				<path fill="url(#SVGID_102_)" d="M496.414,104.537c-1.022-21.502,2.725-44.246,11.089-66.288
					c-9.264,21.425-14.279,44.155-14.516,66.288H496.414z"/>
				
					<linearGradient id="SVGID_103_" gradientUnits="userSpaceOnUse" x1="385.3281" y1="57.1011" x2="400.915" y2="57.1011" gradientTransform="matrix(1 0 0.4113 -1 88.3195 128.4941)">
					<stop  offset="0" style="stop-color:#242E09"/>
					<stop  offset="1" style="stop-color:#797F52"/>
				</linearGradient>
				<path fill="url(#SVGID_103_)" d="M499.089,104.537c-0.811-21.502,3.163-44.246,11.746-66.288
					c-9.477,21.425-14.718,44.155-15.174,66.288H499.089z"/>
				
					<linearGradient id="SVGID_104_" gradientUnits="userSpaceOnUse" x1="361.0732" y1="57.1011" x2="377.5312" y2="57.1011" gradientTransform="matrix(1 0 0.5142 -1 110.3449 128.4941)">
					<stop  offset="0" style="stop-color:#97CB59"/>
					<stop  offset="1" style="stop-color:#75AE39"/>
				</linearGradient>
				<path fill="url(#SVGID_104_)" d="M500.195,104.537c1.104-21.502,7.104-44.246,17.648-66.288
					c-11.385,21.425-18.648,44.155-21.076,66.288H500.195z"/>
			</g>
			
				<linearGradient id="SVGID_105_" gradientUnits="userSpaceOnUse" x1="432.8516" y1="20.1758" x2="507.8633" y2="20.1758" gradientTransform="matrix(1 0 0 -1 0 128.4941)">
				<stop  offset="0" style="stop-color:#242E09"/>
				<stop  offset="1" style="stop-color:#797F52"/>
			</linearGradient>
			<path fill="url(#SVGID_105_)" d="M432.852,113.131l1.82-3.567l3.153-1.783l2.434-3.242l4.308-0.922c0,0,25.71,0,43.385,0
				c0.842,0,1.666,0,2.458,0c6.918-0.297,14.819-0.741,17.454,9.514c-5.598,0-11.525,0-16.995,0c-0.783,0-1.586,0-2.4,0
				c-11.063,0-24.55,0-35.757,0c-0.746,0-1.482,0-2.208,0c-5.559,0-11.486,0-17.02,0.002
				C432.852,113.131,434.562,113.131,432.852,113.131z"/>
		</g>
		<g>
			
				<linearGradient id="SVGID_106_" gradientUnits="userSpaceOnUse" x1="137.1802" y1="31.0962" x2="168.6011" y2="31.0962" gradientTransform="matrix(1 0 0 -1 0 128.4941)">
				<stop  offset="0" style="stop-color:#97CB59"/>
				<stop  offset="1" style="stop-color:#75AE39"/>
			</linearGradient>
			<path fill="url(#SVGID_106_)" d="M152.89,81.688c-8.677,0-15.71,7.032-15.71,15.71s7.034,15.711,15.71,15.711
				c8.677,0,15.711-7.033,15.711-15.711S161.567,81.688,152.89,81.688z M154.854,109.266V101.7c-0.6,0.271-1.263,0.425-1.965,0.425
				c-0.701,0-1.364-0.154-1.964-0.425v7.565c-5.071-0.833-9.072-4.833-9.905-9.905h7.541c-0.286-0.613-0.45-1.293-0.45-2.016
				c0-0.681,0.144-1.327,0.4-1.911h-7.491c0.833-5.071,4.834-9.073,9.905-9.907v7.465c0.6-0.271,1.263-0.424,1.964-0.424
				c0.702,0,1.365,0.153,1.965,0.424v-7.465c5.07,0.834,9.072,4.836,9.905,9.907h-7.491c0.256,0.584,0.401,1.23,0.401,1.911
				c0,0.723-0.165,1.401-0.45,2.016h7.54C163.926,104.433,159.925,108.433,154.854,109.266z"/>
			
				<linearGradient id="SVGID_107_" gradientUnits="userSpaceOnUse" x1="149.1089" y1="31.0981" x2="156.6719" y2="31.0981" gradientTransform="matrix(1 0 0 -1 0 128.4941)">
				<stop  offset="0" style="stop-color:#242E09"/>
				<stop  offset="1" style="stop-color:#797F52"/>
			</linearGradient>
			<path fill="url(#SVGID_107_)" d="M152.89,93.615c-2.088,0-3.781,1.692-3.781,3.781c0,2.088,1.693,3.78,3.781,3.78
				c2.089,0,3.782-1.692,3.782-3.78C156.672,95.308,154.979,93.615,152.89,93.615z M152.89,99.018c-0.896,0-1.621-0.727-1.621-1.62
				c0-0.896,0.725-1.622,1.621-1.622s1.622,0.726,1.622,1.622C154.511,98.291,153.785,99.018,152.89,99.018z"/>
			
				<linearGradient id="SVGID_108_" gradientUnits="userSpaceOnUse" x1="151.6899" y1="31.0981" x2="154.0898" y2="31.0981" gradientTransform="matrix(1 0 0 -1 0 128.4941)">
				<stop  offset="0" style="stop-color:#97CB59"/>
				<stop  offset="1" style="stop-color:#75AE39"/>
			</linearGradient>
			<circle fill="url(#SVGID_108_)" cx="152.89" cy="97.396" r="1.2"/>
			
				<linearGradient id="SVGID_109_" gradientUnits="userSpaceOnUse" x1="243.2876" y1="68.8828" x2="243.2876" y2="61.1423" gradientTransform="matrix(1 0 0 -1 0 128.4941)">
				<stop  offset="0" style="stop-color:#97CB59"/>
				<stop  offset="1" style="stop-color:#75AE39"/>
			</linearGradient>
			<path fill="url(#SVGID_109_)" d="M250.8,64.906c0,1.021-0.828,1.852-1.851,1.852h-11.321c-1.023,0-1.853-0.829-1.853-1.852
				v-3.277c0-1.021,0.83-1.854,1.853-1.854h11.321c1.023,0,1.851,0.832,1.851,1.854V64.906z"/>
			
				<linearGradient id="SVGID_110_" gradientUnits="userSpaceOnUse" x1="229.9062" y1="65.2256" x2="234.2651" y2="65.2256" gradientTransform="matrix(1 0 0 -1 0 128.4941)">
				<stop  offset="0" style="stop-color:#242E09"/>
				<stop  offset="1" style="stop-color:#797F52"/>
			</linearGradient>
			<path fill="url(#SVGID_110_)" d="M234.249,64.906v-3.277c0-0.053,0.014-0.104,0.016-0.155h-3.188l-1.171,3.589h4.359
				C234.263,65.013,234.249,64.959,234.249,64.906z"/>
			
				<linearGradient id="SVGID_111_" gradientUnits="userSpaceOnUse" x1="199.0742" y1="27.0312" x2="219.9849" y2="27.0312" gradientTransform="matrix(1 0 0 -1 0 128.4941)">
				<stop  offset="0" style="stop-color:#242E09"/>
				<stop  offset="1" style="stop-color:#797F52"/>
			</linearGradient>
			<path fill="url(#SVGID_111_)" d="M215.92,90.486l-5.893,16.354l-7.242-14.129l-3.711,0.629l9.645,18.812
				c0.309,0.602,0.927,0.977,1.597,0.977c0.039,0,0.077-0.002,0.116-0.004c0.713-0.045,1.332-0.51,1.573-1.184l7.98-22.146
				L215.92,90.486z"/>
			<g>
				
					<linearGradient id="SVGID_112_" gradientUnits="userSpaceOnUse" x1="151.0962" y1="51.6367" x2="154.6851" y2="51.6367" gradientTransform="matrix(1 0 0 -1 0 128.4941)">
					<stop  offset="0" style="stop-color:#242E09"/>
					<stop  offset="1" style="stop-color:#797F52"/>
				</linearGradient>
				<path fill="url(#SVGID_112_)" d="M152.89,80.158c0.606,0,1.205,0.033,1.795,0.095V76.47l-3.589-3.008v6.791
					C151.686,80.191,152.284,80.158,152.89,80.158z"/>
				
					<linearGradient id="SVGID_113_" gradientUnits="userSpaceOnUse" x1="168.7441" y1="36.5142" x2="173.8491" y2="36.5142" gradientTransform="matrix(1 0 0 -1 0 128.4941)">
					<stop  offset="0" style="stop-color:#242E09"/>
					<stop  offset="1" style="stop-color:#797F52"/>
				</linearGradient>
				<path fill="url(#SVGID_113_)" d="M170.698,89.889l-1.954,0.747c0.467,1.089,0.823,2.241,1.059,3.436l4.046-1.538L170.698,89.889
					z"/>
			</g>
			
				<linearGradient id="SVGID_114_" gradientUnits="userSpaceOnUse" x1="183.7163" y1="33.5508" x2="183.7163" y2="67.9229" gradientTransform="matrix(1 0 0 -1 0 128.4941)">
				<stop  offset="0" style="stop-color:#97CB59"/>
				<stop  offset="1" style="stop-color:#75AE39"/>
			</linearGradient>
			<polygon fill="url(#SVGID_114_)" points="220.786,88.115 179.34,95.139 137.512,60.088 229.922,60.088 			"/>
			
				<linearGradient id="SVGID_115_" gradientUnits="userSpaceOnUse" x1="147.9321" y1="73.9717" x2="222.436" y2="73.9717" gradientTransform="matrix(1 0 0 -1 0 128.4941)">
				<stop  offset="0" style="stop-color:#242E09"/>
				<stop  offset="1" style="stop-color:#797F52"/>
			</linearGradient>
			<path fill="url(#SVGID_115_)" d="M147.932,58.842h74.504c0,0-13.634-5.76-15.17-5.76c-1.536,0-8.192,0-8.192,0l-6.594-2.879
				c0,0-7.296,1.918-7.296,2.112c0,0.192-8.641,0.384-8.641,0.384l-9.601,1.825h-7.298L147.932,58.842z"/>
		</g>
		<g>
			
				<linearGradient id="SVGID_116_" gradientUnits="userSpaceOnUse" x1="96.0327" y1="-228.9917" x2="110.1484" y2="-228.9917" gradientTransform="matrix(0 1 1 0 580.1338 -70.1826)">
				<stop  offset="0" style="stop-color:#97CB59"/>
				<stop  offset="1" style="stop-color:#75AE39"/>
			</linearGradient>
			<polygon fill="url(#SVGID_116_)" points="362.499,35.824 362.499,34.137 362.498,31.678 362.498,29.995 339.785,25.85 
				339.785,31.678 339.785,34.137 339.785,39.966 			"/>
			
				<linearGradient id="SVGID_117_" gradientUnits="userSpaceOnUse" x1="94.5737" y1="-242.0425" x2="111.6094" y2="-242.0425" gradientTransform="matrix(0 1 1 0 580.1338 -70.1826)">
				<stop  offset="0" style="stop-color:#242E09"/>
				<stop  offset="1" style="stop-color:#797F52"/>
			</linearGradient>
			<path fill="url(#SVGID_117_)" d="M337.849,41.427c-0.39,0-0.701-0.315-0.701-0.702v-15.63c0-0.39,0.312-0.704,0.702-0.704h0.482
				c0.388,0,0.703,0.314,0.703,0.704v15.63c0,0.387-0.315,0.702-0.702,0.702H337.849z"/>
			
				<linearGradient id="SVGID_118_" gradientUnits="userSpaceOnUse" x1="94.5737" y1="-251.3926" x2="111.6099" y2="-251.3926" gradientTransform="matrix(0 1 1 0 580.1338 -70.1826)">
				<stop  offset="0" style="stop-color:#242E09"/>
				<stop  offset="1" style="stop-color:#797F52"/>
			</linearGradient>
			<path fill="url(#SVGID_118_)" d="M328.5,41.427c-0.389,0-0.702-0.315-0.702-0.703V25.092c0-0.387,0.313-0.701,0.702-0.701h0.482
				c0.389,0,0.702,0.314,0.702,0.704v15.63c0,0.387-0.313,0.702-0.702,0.702L328.5,41.427L328.5,41.427z"/>
			
				<linearGradient id="SVGID_119_" gradientUnits="userSpaceOnUse" x1="96.0327" y1="-246.7173" x2="110.1484" y2="-246.7173" gradientTransform="matrix(0 1 1 0 580.1338 -70.1826)">
				<stop  offset="0" style="stop-color:#97CB59"/>
				<stop  offset="1" style="stop-color:#75AE39"/>
			</linearGradient>
			<rect x="330.436" y="25.85" fill="url(#SVGID_119_)" width="5.962" height="14.116"/>
			
				<linearGradient id="SVGID_120_" gradientUnits="userSpaceOnUse" x1="96.3037" y1="-257.7539" x2="109.8784" y2="-257.7539" gradientTransform="matrix(0 1 1 0 580.1338 -70.1826)">
				<stop  offset="0" style="stop-color:#242E09"/>
				<stop  offset="1" style="stop-color:#797F52"/>
			</linearGradient>
			<path fill="url(#SVGID_120_)" d="M326.815,26.121h-5.069c-2.1,0-3.802,1.703-3.802,3.803v5.969c0,2.1,1.702,3.803,3.802,3.803
				h5.069V26.121z"/>
			<g>
				
					<linearGradient id="SVGID_121_" gradientUnits="userSpaceOnUse" x1="317.2598" y1="70.5996" x2="317.2598" y2="15.3643" gradientTransform="matrix(1 0 0 -1 0 128.4941)">
					<stop  offset="0" style="stop-color:#242E09"/>
					<stop  offset="1" style="stop-color:#797F52"/>
				</linearGradient>
				<path fill="url(#SVGID_121_)" d="M320.39,110.857c0,1.258-1.019,2.272-2.274,2.272h-1.709c-1.256,0-2.273-1.016-2.273-2.272
					V60.17c0-1.258,1.019-2.275,2.273-2.275h1.709c1.257,0,2.274,1.018,2.274,2.275V110.857z"/>
				
					<linearGradient id="SVGID_122_" gradientUnits="userSpaceOnUse" x1="376.4395" y1="70.5996" x2="376.4395" y2="15.3643" gradientTransform="matrix(1 0 0 -1 0 128.4941)">
					<stop  offset="0" style="stop-color:#242E09"/>
					<stop  offset="1" style="stop-color:#797F52"/>
				</linearGradient>
				<path fill="url(#SVGID_122_)" d="M379.569,110.857c0,1.258-1.02,2.272-2.273,2.272h-1.711c-1.256,0-2.274-1.016-2.274-2.272
					V60.17c0-1.258,1.02-2.275,2.274-2.275h1.711c1.255,0,2.273,1.018,2.273,2.275V110.857z"/>
			</g>
			
				<linearGradient id="SVGID_123_" gradientUnits="userSpaceOnUse" x1="346.8496" y1="61.1353" x2="346.8496" y2="24.8257" gradientTransform="matrix(1 0 0 -1 0 128.4941)">
				<stop  offset="0" style="stop-color:#242E09"/>
				<stop  offset="1" style="stop-color:#797F52"/>
			</linearGradient>
			<rect x="322.393" y="67.358" fill="url(#SVGID_123_)" width="48.917" height="36.31"/>
			<g>
				
					<linearGradient id="SVGID_124_" gradientUnits="userSpaceOnUse" x1="305.2744" y1="42.981" x2="305.5211" y2="42.981" gradientTransform="matrix(1 0 0 -1 0 128.4941)">
					<stop  offset="0" style="stop-color:#97CB59"/>
					<stop  offset="1" style="stop-color:#75AE39"/>
				</linearGradient>
				<path fill="url(#SVGID_124_)" d="M329.425,107.245c0,0.979-0.794,1.773-1.774,1.773h-1.338c-0.979,0-1.775-0.795-1.775-1.773
					V63.783c0-0.981,0.796-1.775,1.775-1.775h1.338c0.98,0,1.774,0.794,1.774,1.775V107.245z"/>
				
					<linearGradient id="SVGID_125_" gradientUnits="userSpaceOnUse" x1="305.2705" y1="42.981" x2="305.5172" y2="42.981" gradientTransform="matrix(1 0 0 -1 0 128.4941)">
					<stop  offset="0" style="stop-color:#97CB59"/>
					<stop  offset="1" style="stop-color:#75AE39"/>
				</linearGradient>
				<path fill="url(#SVGID_125_)" d="M337.145,107.245c0,0.979-0.795,1.773-1.775,1.773h-1.337c-0.98,0-1.776-0.795-1.776-1.773
					V63.783c0-0.981,0.796-1.775,1.776-1.775h1.337c0.98,0,1.775,0.794,1.775,1.775V107.245z"/>
				
					<linearGradient id="SVGID_126_" gradientUnits="userSpaceOnUse" x1="305.2725" y1="42.981" x2="305.5192" y2="42.981" gradientTransform="matrix(1 0 0 -1 0 128.4941)">
					<stop  offset="0" style="stop-color:#97CB59"/>
					<stop  offset="1" style="stop-color:#75AE39"/>
				</linearGradient>
				<path fill="url(#SVGID_126_)" d="M344.864,107.245c0,0.979-0.795,1.773-1.776,1.773h-1.337c-0.979,0-1.776-0.795-1.776-1.773
					V63.783c0-0.981,0.797-1.775,1.776-1.775h1.337c0.981,0,1.776,0.794,1.776,1.775V107.245z"/>
				
					<linearGradient id="SVGID_127_" gradientUnits="userSpaceOnUse" x1="305.2734" y1="42.981" x2="305.5201" y2="42.981" gradientTransform="matrix(1 0 0 -1 0 128.4941)">
					<stop  offset="0" style="stop-color:#97CB59"/>
					<stop  offset="1" style="stop-color:#75AE39"/>
				</linearGradient>
				<path fill="url(#SVGID_127_)" d="M352.584,107.245c0,0.979-0.795,1.773-1.776,1.773h-1.336c-0.982,0-1.776-0.795-1.776-1.773
					V63.783c0-0.981,0.794-1.775,1.776-1.775h1.336c0.981,0,1.776,0.794,1.776,1.775V107.245z"/>
				
					<linearGradient id="SVGID_128_" gradientUnits="userSpaceOnUse" x1="305.2637" y1="42.981" x2="305.5104" y2="42.981" gradientTransform="matrix(1 0 0 -1 0 128.4941)">
					<stop  offset="0" style="stop-color:#97CB59"/>
					<stop  offset="1" style="stop-color:#75AE39"/>
				</linearGradient>
				<path fill="url(#SVGID_128_)" d="M360.304,107.245c0,0.979-0.795,1.773-1.777,1.773h-1.336c-0.981,0-1.776-0.795-1.776-1.773
					V63.783c0-0.981,0.795-1.775,1.776-1.775h1.336c0.982,0,1.777,0.794,1.777,1.775V107.245z"/>
				
					<linearGradient id="SVGID_129_" gradientUnits="userSpaceOnUse" x1="305.2627" y1="42.981" x2="305.5094" y2="42.981" gradientTransform="matrix(1 0 0 -1 0 128.4941)">
					<stop  offset="0" style="stop-color:#97CB59"/>
					<stop  offset="1" style="stop-color:#75AE39"/>
				</linearGradient>
				<path fill="url(#SVGID_129_)" d="M368.023,107.245c0,0.979-0.798,1.773-1.777,1.773h-1.337c-0.981,0-1.776-0.795-1.776-1.773
					V63.783c0-0.981,0.795-1.775,1.776-1.775h1.337c0.979,0,1.777,0.794,1.777,1.775V107.245z"/>
			</g>
			<g>
				
					<linearGradient id="SVGID_130_" gradientUnits="userSpaceOnUse" x1="283.5107" y1="69.2822" x2="315.9688" y2="69.2822" gradientTransform="matrix(1 0 0 -1 0 128.4941)">
					<stop  offset="0" style="stop-color:#97CB59"/>
					<stop  offset="1" style="stop-color:#75AE39"/>
				</linearGradient>
				<path fill="url(#SVGID_130_)" d="M312.157,87.857c-15.795,0-28.646-12.851-28.646-28.646s12.853-28.646,28.646-28.646h3.812
					v4.688h-3.812c-13.211,0-23.958,10.746-23.958,23.959c0,13.21,10.747,23.958,23.958,23.958V87.857z"/>
			</g>
			
				<linearGradient id="SVGID_131_" gradientUnits="userSpaceOnUse" x1="538.0234" y1="102.9678" x2="538.0234" y2="77.8564" gradientTransform="matrix(0.7071 -0.7071 -0.7071 -0.7071 57.9489 485.0995)">
				<stop  offset="0" style="stop-color:#97CB59"/>
				<stop  offset="1" style="stop-color:#75AE39"/>
			</linearGradient>
			<path fill="url(#SVGID_131_)" d="M365.578,31.854c0,0,2.406,14.434,5.728,17.756c3.321,3.32,8.707,3.32,12.029,0
				c3.32-3.322,3.32-8.706,0-12.027C380.013,34.262,365.578,31.854,365.578,31.854z M382.423,48.699
				c-2.813,2.812-7.392,2.812-10.205,0c-2.166-2.167-4.14-10.546-5.042-15.248c0.096,0.019,0.192,0.039,0.288,0.057
				c1.1,4.695,2.7,10.107,4.419,11.826c2.975,2.975,7.815,2.975,10.792,0c0.819-0.82,1.411-1.781,1.778-2.805
				C384.776,44.713,384.101,47.02,382.423,48.699z"/>
		</g>
		<g>
			
				<linearGradient id="SVGID_132_" gradientUnits="userSpaceOnUse" x1="18.9878" y1="17.3579" x2="39.2129" y2="17.3579" gradientTransform="matrix(1 0 0 -1 0 128.4941)">
				<stop  offset="0" style="stop-color:#242E09"/>
				<stop  offset="1" style="stop-color:#797F52"/>
			</linearGradient>
			<path fill="url(#SVGID_132_)" d="M39.213,113.131v-2.266c0-0.951-0.77-1.724-1.72-1.724H20.708c-0.95,0-1.72,0.771-1.72,1.724
				v2.266H39.213z"/>
			
				<linearGradient id="SVGID_133_" gradientUnits="userSpaceOnUse" x1="43.7051" y1="17.3579" x2="63.9312" y2="17.3579" gradientTransform="matrix(1 0 0 -1 0 128.4941)">
				<stop  offset="0" style="stop-color:#242E09"/>
				<stop  offset="1" style="stop-color:#797F52"/>
			</linearGradient>
			<path fill="url(#SVGID_133_)" d="M63.931,113.131v-2.266c0-0.951-0.77-1.724-1.72-1.724H45.425c-0.95,0-1.72,0.771-1.72,1.724
				v2.266H63.931z"/>
			
				<linearGradient id="SVGID_134_" gradientUnits="userSpaceOnUse" x1="68.4209" y1="17.3579" x2="88.647" y2="17.3579" gradientTransform="matrix(1 0 0 -1 0 128.4941)">
				<stop  offset="0" style="stop-color:#242E09"/>
				<stop  offset="1" style="stop-color:#797F52"/>
			</linearGradient>
			<path fill="url(#SVGID_134_)" d="M88.647,113.131v-2.266c0-0.951-0.77-1.724-1.72-1.724H70.141c-0.95,0-1.72,0.771-1.72,1.724
				v2.266H88.647z"/>
			
				<linearGradient id="SVGID_135_" gradientUnits="userSpaceOnUse" x1="53.3115" y1="67.9043" x2="53.3115" y2="63.7662" gradientTransform="matrix(1 0 0 -1 0 128.4941)">
				<stop  offset="0" style="stop-color:#242E09"/>
				<stop  offset="1" style="stop-color:#797F52"/>
			</linearGradient>
			<rect x="15.713" y="61.074" fill="url(#SVGID_135_)" width="75.196" height="3.454"/>
			<g>
				
					<linearGradient id="SVGID_136_" gradientUnits="userSpaceOnUse" x1="71.4722" y1="81.165" x2="85.5991" y2="81.165" gradientTransform="matrix(1 0 0 -1 0 128.4941)">
					<stop  offset="0" style="stop-color:#97CB59"/>
					<stop  offset="1" style="stop-color:#75AE39"/>
				</linearGradient>
				<path fill="url(#SVGID_136_)" d="M85.599,59.874V45.683l-7.063-10.9l-7.064,10.9v14.191H85.599z"/>
				
					<linearGradient id="SVGID_137_" gradientUnits="userSpaceOnUse" x1="71.4712" y1="50.1626" x2="85.5981" y2="50.1626" gradientTransform="matrix(1 0 0 -1 0 128.4941)">
					<stop  offset="0" style="stop-color:#97CB59"/>
					<stop  offset="1" style="stop-color:#75AE39"/>
				</linearGradient>
				<rect x="71.471" y="65.729" fill="url(#SVGID_137_)" width="14.127" height="25.204"/>
				
					<linearGradient id="SVGID_138_" gradientUnits="userSpaceOnUse" x1="71.4712" y1="26.1646" x2="85.5981" y2="26.1646" gradientTransform="matrix(1 0 0 -1 0 128.4941)">
					<stop  offset="0" style="stop-color:#97CB59"/>
					<stop  offset="1" style="stop-color:#75AE39"/>
				</linearGradient>
				<rect x="71.471" y="96.785" fill="url(#SVGID_138_)" width="14.127" height="11.089"/>
			</g>
			<g>
				
					<linearGradient id="SVGID_139_" gradientUnits="userSpaceOnUse" x1="46.7549" y1="81.165" x2="60.8809" y2="81.165" gradientTransform="matrix(1 0 0 -1 0 128.4941)">
					<stop  offset="0" style="stop-color:#97CB59"/>
					<stop  offset="1" style="stop-color:#75AE39"/>
				</linearGradient>
				<path fill="url(#SVGID_139_)" d="M60.881,59.874V45.683l-7.062-10.9l-7.064,10.9v14.191H60.881z"/>
				
					<linearGradient id="SVGID_140_" gradientUnits="userSpaceOnUse" x1="46.7539" y1="26.1646" x2="60.8809" y2="26.1646" gradientTransform="matrix(1 0 0 -1 0 128.4941)">
					<stop  offset="0" style="stop-color:#97CB59"/>
					<stop  offset="1" style="stop-color:#75AE39"/>
				</linearGradient>
				<rect x="46.754" y="96.785" fill="url(#SVGID_140_)" width="14.127" height="11.089"/>
				
					<linearGradient id="SVGID_141_" gradientUnits="userSpaceOnUse" x1="46.7539" y1="50.1626" x2="60.8809" y2="50.1626" gradientTransform="matrix(1 0 0 -1 0 128.4941)">
					<stop  offset="0" style="stop-color:#97CB59"/>
					<stop  offset="1" style="stop-color:#75AE39"/>
				</linearGradient>
				<rect x="46.754" y="65.729" fill="url(#SVGID_141_)" width="14.127" height="25.204"/>
			</g>
			<g>
				
					<linearGradient id="SVGID_142_" gradientUnits="userSpaceOnUse" x1="22.0371" y1="26.1646" x2="36.165" y2="26.1646" gradientTransform="matrix(1 0 0 -1 0 128.4941)">
					<stop  offset="0" style="stop-color:#97CB59"/>
					<stop  offset="1" style="stop-color:#75AE39"/>
				</linearGradient>
				<rect x="22.037" y="96.785" fill="url(#SVGID_142_)" width="14.128" height="11.089"/>
				
					<linearGradient id="SVGID_143_" gradientUnits="userSpaceOnUse" x1="22.0381" y1="81.165" x2="36.165" y2="81.165" gradientTransform="matrix(1 0 0 -1 0 128.4941)">
					<stop  offset="0" style="stop-color:#97CB59"/>
					<stop  offset="1" style="stop-color:#75AE39"/>
				</linearGradient>
				<path fill="url(#SVGID_143_)" d="M36.165,59.874V45.683l-7.064-10.9l-7.063,10.9v14.191H36.165z"/>
				
					<linearGradient id="SVGID_144_" gradientUnits="userSpaceOnUse" x1="22.0371" y1="50.1626" x2="36.165" y2="50.1626" gradientTransform="matrix(1 0 0 -1 0 128.4941)">
					<stop  offset="0" style="stop-color:#97CB59"/>
					<stop  offset="1" style="stop-color:#75AE39"/>
				</linearGradient>
				<rect x="22.037" y="65.729" fill="url(#SVGID_144_)" width="14.128" height="25.204"/>
			</g>
			
				<linearGradient id="SVGID_145_" gradientUnits="userSpaceOnUse" x1="53.3115" y1="36.8408" x2="53.3115" y2="32.7121" gradientTransform="matrix(1 0 0 -1 0 128.4941)">
				<stop  offset="0" style="stop-color:#242E09"/>
				<stop  offset="1" style="stop-color:#797F52"/>
			</linearGradient>
			<rect x="15.713" y="92.136" fill="url(#SVGID_145_)" width="75.196" height="3.448"/>
		</g>
	</g>
</g>
</svg>
