<?xml version="1.0" encoding="utf-8"?>
<!-- Generator: Adobe Illustrator 16.0.0, SVG Export Plug-In . SVG Version: 6.00 Build 0)  -->
<!DOCTYPE svg PUBLIC "-//W3C//DTD SVG 1.1//EN" "http://www.w3.org/Graphics/SVG/1.1/DTD/svg11.dtd">
<svg version="1.1" id="Layer_1" xmlns="http://www.w3.org/2000/svg" xmlns:xlink="http://www.w3.org/1999/xlink" x="0px" y="0px"
	 width="90.805px" height="87.094px" viewBox="0 0 90.805 87.094" enable-background="new 0 0 90.805 87.094" xml:space="preserve">
<g id="Layer_2" display="none">
</g>
<g id="Layer_3" display="none">
	<rect x="-502.502" y="-374.707" display="inline" fill="#CFAB46" width="2492.012" height="1948.882"/>
</g>
<g opacity="0.38">
	<ellipse fill="#FFFFFF" fill-opacity="0" cx="45.401" cy="84.928" rx="45.402" ry="2.165"/>
	<ellipse opacity="0.0323" fill="#FCF9F8" enable-background="new    " cx="45.401" cy="84.929" rx="44.593" ry="2.101"/>
	<ellipse opacity="0.0645" fill="#F9F3F1" enable-background="new    " cx="45.401" cy="84.929" rx="43.781" ry="2.037"/>
	<ellipse opacity="0.0968" fill="#F6EDEA" enable-background="new    " cx="45.401" cy="84.929" rx="42.972" ry="1.973"/>
	<ellipse opacity="0.129" fill="#F3E6E3" enable-background="new    " cx="45.401" cy="84.929" rx="42.16" ry="1.91"/>
	<ellipse opacity="0.1613" fill="#F0E0DC" enable-background="new    " cx="45.401" cy="84.928" rx="41.351" ry="1.845"/>
	<ellipse opacity="0.1935" fill="#EDDAD4" enable-background="new    " cx="45.401" cy="84.928" rx="40.539" ry="1.782"/>
	<ellipse opacity="0.2258" fill="#EAD4CD" enable-background="new    " cx="45.401" cy="84.929" rx="39.729" ry="1.717"/>
	<ellipse opacity="0.2581" fill="#E7CEC6" enable-background="new    " cx="45.401" cy="84.929" rx="38.916" ry="1.654"/>
	<ellipse opacity="0.2903" fill="#E4C8BF" enable-background="new    " cx="45.401" cy="84.929" rx="38.107" ry="1.59"/>
	<ellipse opacity="0.3226" fill="#E1C2B8" enable-background="new    " cx="45.401" cy="84.929" rx="37.3" ry="1.526"/>
	<ellipse opacity="0.3548" fill="#DEBCB1" enable-background="new    " cx="45.401" cy="84.928" rx="36.488" ry="1.462"/>
	<ellipse opacity="0.3871" fill="#DBB5AA" enable-background="new    " cx="45.401" cy="84.929" rx="35.679" ry="1.398"/>
	<ellipse opacity="0.4194" fill="#D8AFA3" enable-background="new    " cx="45.401" cy="84.93" rx="34.867" ry="1.334"/>
	<ellipse opacity="0.4516" fill="#D5A99C" enable-background="new    " cx="45.401" cy="84.929" rx="34.058" ry="1.271"/>
	<ellipse opacity="0.4839" fill="#D2A395" enable-background="new    " cx="45.401" cy="84.929" rx="33.246" ry="1.207"/>
	<ellipse opacity="0.5161" fill="#D09D8D" enable-background="new    " cx="45.401" cy="84.929" rx="32.437" ry="1.143"/>
	<ellipse opacity="0.5484" fill="#CD9786" enable-background="new    " cx="45.401" cy="84.928" rx="31.625" ry="1.079"/>
	<ellipse opacity="0.5806" fill="#CA917F" enable-background="new    " cx="45.401" cy="84.929" rx="30.814" ry="1.015"/>
	<ellipse opacity="0.6129" fill="#C78B78" enable-background="new    " cx="45.401" cy="84.929" rx="30.007" ry="0.951"/>
	<ellipse opacity="0.6452" fill="#C48471" enable-background="new    " cx="45.401" cy="84.929" rx="29.193" ry="0.887"/>
	<ellipse opacity="0.6774" fill="#C17E6A" enable-background="new    " cx="45.401" cy="84.928" rx="28.386" ry="0.823"/>
	<ellipse opacity="0.7097" fill="#BE7863" enable-background="new    " cx="45.401" cy="84.928" rx="27.572" ry="0.759"/>
	<ellipse opacity="0.7419" fill="#BB725C" enable-background="new    " cx="45.401" cy="84.928" rx="26.765" ry="0.696"/>
	<ellipse opacity="0.7742" fill="#B86C55" enable-background="new    " cx="45.401" cy="84.929" rx="25.953" ry="0.631"/>
	<ellipse opacity="0.8065" fill="#B5664E" enable-background="new    " cx="45.401" cy="84.929" rx="25.144" ry="0.568"/>
	<ellipse opacity="0.8387" fill="#B26046" enable-background="new    " cx="45.401" cy="84.929" rx="24.332" ry="0.504"/>
	<ellipse opacity="0.871" fill="#AF5A3F" enable-background="new    " cx="45.401" cy="84.929" rx="23.521" ry="0.44"/>
	<ellipse opacity="0.9032" fill="#AC5338" enable-background="new    " cx="45.401" cy="84.928" rx="22.713" ry="0.376"/>
	<ellipse opacity="0.9355" fill="#A94D31" enable-background="new    " cx="45.401" cy="84.929" rx="21.9" ry="0.312"/>
	<ellipse opacity="0.9677" fill="#A6472A" enable-background="new    " cx="45.401" cy="84.928" rx="21.093" ry="0.249"/>
	<ellipse fill="#A34123" cx="45.401" cy="84.929" rx="20.281" ry="0.184"/>
</g>
<path fill="#D1C5B6" d="M10.211,28.136l31.91-26.94c1.887-1.595,4.631-1.595,6.52,0l31.91,26.94H10.211z"/>
<rect x="10.231" y="28.136" fill="#AF987B" width="70.34" height="48.806"/>
<polygon fill="none" stroke="#63521A" stroke-width="2" stroke-miterlimit="10" points="75.584,13.423 75.584,56.333 15.217,56.333 
	15.217,5.576 57.792,5.576 "/>
<g opacity="0.3">
	<path fill="#893524" d="M75.584,31.341v0.637l-26.25,18.217l-0.521,0.361l-0.172-0.146c-1.887-1.594-4.635-1.584-6.521,0.009
		l-0.152,0.129l-0.508-0.354L15.217,31.974v-0.637l26.242,17.582l0.508,0.354l0.152-0.129c1.887-1.593,4.635-1.603,6.521-0.009
		l0.172,0.146l0.521-0.36L75.584,31.341z"/>
	<polygon fill="#893524" points="10.231,76.12 10.211,76.139 10.231,76.139 	"/>
</g>
<polygon fill="#EFE6D8" points="45.391,52.548 10.231,76.959 10.231,28.136 15.211,31.589 41.459,49.814 "/>
<polygon fill="#EFE6D8" points="80.571,28.136 80.571,76.959 45.391,52.548 49.334,49.814 "/>
<polygon fill="#D86239" points="11.76,29.287 11.76,31.859 10.231,31.033 10.231,28.136 "/>
<polygon fill="#3A9FD6" points="10.231,33.101 10.231,35.997 11.76,36.826 11.76,33.929 "/>
<polygon fill="#D86239" points="10.231,38.066 10.231,40.962 11.76,41.79 11.76,38.894 "/>
<polygon fill="#3A9FD6" points="10.231,43.032 10.231,45.927 11.76,46.754 11.76,43.859 "/>
<polygon fill="#D86239" points="10.231,47.997 10.231,50.893 11.76,51.721 11.76,48.825 "/>
<polygon fill="#3A9FD6" points="10.231,52.961 10.231,55.859 11.76,56.686 11.76,53.789 "/>
<polygon fill="#D86239" points="10.231,57.927 10.231,60.824 11.76,61.652 11.76,58.754 "/>
<polygon fill="#3A9FD6" points="10.231,62.893 10.231,65.788 11.76,66.617 11.76,63.721 "/>
<polygon fill="#D86239" points="10.231,67.857 10.231,70.753 11.76,71.581 11.76,68.686 "/>
<polygon fill="#D86239" points="80.571,28.136 80.571,31.033 78.915,31.859 78.915,29.287 "/>
<polygon fill="#3A9FD6" points="80.571,33.101 80.571,35.997 78.915,36.826 78.915,33.929 "/>
<polygon fill="#D86239" points="80.571,38.066 80.571,40.962 78.915,41.79 78.915,38.894 "/>
<polygon fill="#3A9FD6" points="80.571,43.032 80.571,45.927 78.915,46.754 78.915,43.859 "/>
<polygon fill="#D86239" points="80.571,47.997 80.571,50.893 78.915,51.721 78.915,48.825 "/>
<polygon fill="#3A9FD6" points="80.571,52.961 80.571,55.859 78.915,56.686 78.915,53.789 "/>
<polygon fill="#D86239" points="80.571,57.927 80.571,60.824 78.915,61.652 78.915,58.754 "/>
<polygon fill="#3A9FD6" points="80.571,62.893 80.571,65.788 78.915,66.617 78.915,63.721 "/>
<polygon fill="#D86239" points="80.571,67.857 80.571,70.753 78.915,71.581 78.915,68.686 "/>
<polygon opacity="0.3" fill="#A38969" enable-background="new    " points="80.551,77.029 10.211,77.029 41.44,49.848 
	45.381,52.566 49.321,49.857 "/>
<path fill="#EADECE" d="M80.551,77.029h-70.34l1.891-1.631l30.021-25.36c1.887-1.593,4.635-1.603,6.52-0.009L78.76,75.49
	L80.551,77.029z"/>
<g>
	<path fill="none" stroke="#030202" stroke-width="0.5" stroke-miterlimit="10" d="M58.479,26.861
		c-0.096,2.296-0.77,4.275-2.021,5.938c-1.254,1.664-3.127,2.496-5.623,2.496c-0.82,0-1.531-0.232-2.131-0.695
		c-0.603-0.463-1.027-1.11-1.281-1.941c-0.463,0.861-1.039,1.511-1.729,1.941c-0.688,0.433-1.495,0.647-2.424,0.647
		c-1.483,0-2.625-0.626-3.42-1.879s-1.092-2.912-0.893-4.976c0.264-2.676,1.02-4.817,2.272-6.43
		c1.254-1.611,2.771-2.417,4.549-2.417c1.224,0,2.201,0.138,2.938,0.411c0.738,0.273,1.553,0.695,2.449,1.264l-0.047,0.063h0.077
		l-0.807,9.05c-0.074,0.99,0,1.672,0.223,2.046c0.222,0.374,0.521,0.562,0.898,0.562c1.211,0,2.184-0.574,2.914-1.723
		c0.732-1.146,1.139-2.601,1.225-4.359c0.168-3.727-0.551-6.631-2.155-8.711c-1.605-2.078-4.089-3.118-7.447-3.118
		c-3.199,0-5.75,1.12-7.652,3.364c-1.897,2.242-2.93,5.248-3.088,9.019c-0.188,3.737,0.578,6.687,2.299,8.845
		c1.724,2.159,4.193,3.238,7.416,3.238c0.896,0,1.818-0.105,2.771-0.316c0.953-0.209,1.771-0.474,2.457-0.789l0.6,2.322
		c-0.705,0.441-1.604,0.786-2.69,1.034c-1.093,0.247-2.156,0.371-3.199,0.371c-4.17,0-7.385-1.312-9.646-3.933
		c-2.258-2.623-3.297-6.213-3.116-10.772c0.188-4.496,1.53-8.095,4.024-10.796c2.496-2.7,5.791-4.051,9.889-4.051
		c4.074,0,7.197,1.275,9.365,3.83C57.647,18.95,58.647,22.437,58.479,26.861z M42.526,28.392c-0.104,1.338-0.008,2.352,0.293,3.041
		c0.302,0.689,0.787,1.035,1.461,1.035c0.591,0,1.123-0.141,1.604-0.42c0.479-0.277,0.908-0.787,1.287-1.523
		c0-0.021,0.004-0.053,0.008-0.096c0.006-0.041,0.008-0.072,0.008-0.095l0.695-7.834c-0.242-0.073-0.486-0.132-0.734-0.174
		s-0.498-0.063-0.75-0.063c-1.17,0-2.059,0.51-2.67,1.524C43.116,24.804,42.715,26.339,42.526,28.392z"/>
</g>
<polygon opacity="0.3" fill="#893524" enable-background="new    " points="57.792,5.576 75.586,13.423 67.782,22.224 "/>
<polygon fill="#E5775A" points="57.792,5.576 75.586,13.423 68.426,19.205 "/>
<rect x="0.809" fill="none" width="89.994" height="84.93"/>
</svg>
