<?xml version="1.0" encoding="utf-8"?>
<!-- Generator: Adobe Illustrator 16.0.0, SVG Export Plug-In . SVG Version: 6.00 Build 0)  -->
<!DOCTYPE svg PUBLIC "-//W3C//DTD SVG 1.1//EN" "http://www.w3.org/Graphics/SVG/1.1/DTD/svg11.dtd">
<svg version="1.1" id="Layer_1" xmlns="http://www.w3.org/2000/svg" xmlns:xlink="http://www.w3.org/1999/xlink" x="0px" y="0px"
	 width="89.993px" height="84.929px" viewBox="-19.385 -13.075 89.993 84.929"
	 enable-background="new -19.385 -13.075 89.993 84.929" xml:space="preserve">
<g display="none">
	<path display="inline" d="M44.028,43.715l-3.232-3.237l-2.847,2.849c-1.888,1.89-4.948,1.888-6.838,0L7.155,19.369
		c-1.888-1.888-1.888-4.951,0-6.838l2.846-2.844l-5.672-5.67C-1.222,3.31-10.851,2.556-11.048,7.11
		c-0.08,1.867,5.85,19.86,20.271,34.28c14.418,14.417,33.726,20.729,35.291,20.458c5.613-0.964,3.223-12.52,1.215-19.837
		L44.028,43.715z"/>
	<path display="inline" d="M44.028,43.715l-3.232-3.237l-2.847,2.849c-1.888,1.89-4.948,1.888-6.838,0L7.155,19.369
		c-1.888-1.888-1.888-4.951,0-6.838l2.846-2.844l-5.672-5.67C-1.222,3.31-10.851,2.556-11.048,7.11
		c-0.08,1.867,5.85,19.86,20.271,34.28c14.418,14.417,33.726,20.729,35.291,20.458c5.613-0.964,3.223-12.52,1.215-19.837
		L44.028,43.715z"/>
	<g display="inline">
		<path d="M36.818,40.07c-3.563,7.154-1.963,17.362,4.71,20.796c6.677,3.435,15.917-1.201,19.661-8.26
			c0.32-0.236,0.59-0.544,0.785-0.92l1.072-2.093c0.9-1.748,0.042-2.752-1.16-3.62c-1.201-0.866-4.691-3.111-9.797-5.738
			c-4.902-2.521-8.78-4.062-10.281-4.587c-0.47-0.167-0.936-0.273-1.373-0.289v-0.002v0.002c-0.883-0.026-1.672,0.337-2.244,1.448
			l-1.075,2.09C36.918,39.276,36.826,39.676,36.818,40.07z"/>
		<g>
			
				<linearGradient id="SVGID_1_" gradientUnits="userSpaceOnUse" x1="508.5254" y1="798.4543" x2="513.8458" y2="782.9098" gradientTransform="matrix(1 0 0 1 -462 -732.9229)">
				<stop  offset="0" style="stop-color:#464546"/>
				<stop  offset="1" style="stop-color:#000000"/>
			</linearGradient>
			<path fill="url(#SVGID_1_)" d="M59.362,52.171c-0.35-0.255-1.848-1.296-2.551-1.748c-3.48,6.605-11.061,11.128-16.854,9.394
				c0.159,0.091,0.322,0.185,0.485,0.273c6.45,3.316,15.329-1.027,19.127-7.766C59.502,52.271,59.433,52.221,59.362,52.171z"/>
		</g>
		
			<linearGradient id="SVGID_2_" gradientUnits="userSpaceOnUse" x1="502.0312" y1="772.8557" x2="510.9722" y2="784.2131" gradientTransform="matrix(1 0 0 1 -462 -732.9229)">
			<stop  offset="0" style="stop-color:#464546"/>
			<stop  offset="1" style="stop-color:#000000"/>
		</linearGradient>
		<path fill="url(#SVGID_2_)" d="M55.603,44.796C52.649,49.94,45.35,57.882,41.336,55.819c-4.622-2.379-3.945-12.243-2.47-15.204
			l0.104-0.21l0.003-0.23c0.006-0.217,0.057-0.418,0.152-0.604l0.965-1.883C40.456,36.986,55.603,44.796,55.603,44.796z"/>
		<path d="M36.801,40.106c0.151-0.023,0.304-0.031,0.461-0.025l0,0h0.002c0.465,0.017,0.948,0.128,1.444,0.303
			c1.58,0.552,5.658,2.177,10.816,4.828c5.371,2.766,9.045,5.127,10.308,6.039c0.567,0.41,1.062,0.849,1.349,1.37
			c0,0,0.006-0.011,0.008-0.017c0.32-0.238,0.59-0.546,0.785-0.922l1.072-2.091c0.9-1.748,0.042-2.752-1.16-3.62
			c-1.201-0.864-4.691-3.109-9.797-5.738c-4.902-2.521-8.78-4.062-10.281-4.589c-0.47-0.165-0.936-0.271-1.373-0.287v-0.002v0.002
			c-0.883-0.024-1.672,0.339-2.244,1.45l-1.075,2.088c-0.195,0.381-0.285,0.776-0.297,1.175
			C36.814,40.08,36.808,40.094,36.801,40.106z"/>
		
			<linearGradient id="SVGID_3_" gradientUnits="userSpaceOnUse" x1="501.2588" y1="770.1643" x2="524.0742" y2="781.9011" gradientTransform="matrix(1 0 0 1 -462 -732.9229)">
			<stop  offset="0.0165" style="stop-color:#424242"/>
			<stop  offset="0.2749" style="stop-color:#212121"/>
			<stop  offset="0.5166" style="stop-color:#090909"/>
			<stop  offset="0.6648" style="stop-color:#000000"/>
			<stop  offset="0.8125" style="stop-color:#0E0E0E"/>
			<stop  offset="1" style="stop-color:#262626"/>
		</linearGradient>
		<path fill="url(#SVGID_3_)" d="M51.563,41.256c5.023,2.585,8.51,4.826,9.652,5.651c1.191,0.858,1.248,1.31,0.812,2.159
			l-0.896,1.74c-0.184-0.157-0.393-0.325-0.624-0.492c-1.344-0.966-5.053-3.345-10.456-6.126c-6.22-3.202-10.491-4.728-10.958-4.891
			c-0.272-0.096-0.529-0.169-0.777-0.228l0.896-1.741c0.403-0.782,0.825-0.834,1.19-0.822c0.287,0.008,0.631,0.081,1.028,0.221
			C41.857,36.88,45.781,38.28,51.563,41.256L51.563,41.256z"/>
		
			<linearGradient id="SVGID_4_" gradientUnits="userSpaceOnUse" x1="537.2197" y1="-6850.9834" x2="565.0303" y2="-6850.9834" gradientTransform="matrix(-0.8892 -0.4574 0.4574 -0.8892 3673.1006 -5794.2373)">
			<stop  offset="0.2143" style="stop-color:#000000"/>
			<stop  offset="0.3854" style="stop-color:#020202"/>
			<stop  offset="0.4509" style="stop-color:#090909"/>
			<stop  offset="0.4983" style="stop-color:#151515"/>
			<stop  offset="0.5369" style="stop-color:#262626"/>
			<stop  offset="0.5703" style="stop-color:#3C3C3C"/>
			<stop  offset="0.6" style="stop-color:#585858"/>
			<stop  offset="0.6269" style="stop-color:#797979"/>
			<stop  offset="0.6518" style="stop-color:#9F9F9F"/>
			<stop  offset="0.6748" style="stop-color:#CBCBCB"/>
			<stop  offset="0.6955" style="stop-color:#F9F9F9"/>
			<stop  offset="0.6978" style="stop-color:#FFFFFF"/>
			<stop  offset="0.7182" style="stop-color:#E6E6E6"/>
			<stop  offset="0.7786" style="stop-color:#A1A1A1"/>
			<stop  offset="0.8358" style="stop-color:#686868"/>
			<stop  offset="0.8881" style="stop-color:#3B3B3B"/>
			<stop  offset="0.9346" style="stop-color:#1B1B1B"/>
			<stop  offset="0.9735" style="stop-color:#070707"/>
			<stop  offset="1" style="stop-color:#000000"/>
		</linearGradient>
		<path fill="url(#SVGID_4_)" d="M60.351,50.959c-1.3-0.94-5.072-3.365-10.588-6.202c-5.304-2.73-9.493-4.396-11.115-4.962
			c-0.511-0.183-1.008-0.299-1.486-0.312H37.16h-0.001c-0.09-0.004-0.179,0-0.266,0.007c-0.047,0.192-0.071,0.388-0.076,0.58
			c-0.004,0.011-0.01,0.024-0.01,0.024c0.146-0.013,0.299-0.019,0.456-0.013V40.08l0.001,0.002c0.465,0.017,0.95,0.126,1.444,0.303
			c1.58,0.552,5.659,2.179,10.816,4.829c5.371,2.765,9.047,5.124,10.309,6.038c0.566,0.41,1.062,0.847,1.352,1.37
			c0,0,0.002-0.008,0.004-0.017c0.162-0.12,0.31-0.257,0.441-0.41C61.328,51.732,60.869,51.332,60.351,50.959z"/>
	</g>
	<g display="inline">
		<path d="M10.48,13.732c-7.149,3.564-17.361,1.964-20.796-4.711c-3.434-6.676,1.202-15.915,8.262-19.66
			c0.239-0.315,0.546-0.589,0.921-0.78l2.093-1.076c1.751-0.9,2.751-0.042,3.617,1.161c0.869,1.201,3.111,4.693,5.74,9.798
			c2.522,4.903,4.064,8.781,4.59,10.282c0.166,0.47,0.273,0.931,0.288,1.371v0.003l0,0c0.025,0.881-0.339,1.674-1.448,2.243
			l-2.091,1.076C11.278,13.631,10.878,13.723,10.48,13.732z"/>
		
			<linearGradient id="SVGID_5_" gradientUnits="userSpaceOnUse" x1="452.2656" y1="726.3518" x2="459.9969" y2="734.7274" gradientTransform="matrix(1 0 0 1 -462 -732.9229)">
			<stop  offset="0.0165" style="stop-color:#B0AFB1"/>
			<stop  offset="0.2276" style="stop-color:#7F7E80"/>
			<stop  offset="0.4878" style="stop-color:#494849"/>
			<stop  offset="0.7127" style="stop-color:#212121"/>
			<stop  offset="0.8908" style="stop-color:#090909"/>
			<stop  offset="1" style="stop-color:#000000"/>
		</linearGradient>
		<path fill="url(#SVGID_5_)" d="M0.488-7.927c0.22-0.298-0.798-2.386-0.798-2.386c-0.355,0.19-0.65,0.449-0.879,0.755
			c-5.86,3.113-10.048,10.009-9.335,16.082C-9.313,0.687-5.029-5.01,0.488-7.927z"/>
		
			<linearGradient id="SVGID_6_" gradientUnits="userSpaceOnUse" x1="457.5479" y1="716.0745" x2="469.0237" y2="749.6566" gradientTransform="matrix(1 0 0 1 -462 -732.9229)">
			<stop  offset="0.0165" style="stop-color:#B0AFB1"/>
			<stop  offset="0.2276" style="stop-color:#7F7E80"/>
			<stop  offset="0.4878" style="stop-color:#494849"/>
			<stop  offset="0.7127" style="stop-color:#212121"/>
			<stop  offset="0.8908" style="stop-color:#090909"/>
			<stop  offset="1" style="stop-color:#000000"/>
		</linearGradient>
		<path fill="url(#SVGID_6_)" d="M6.429-5.324C1.229-2.385-6.787,4.907-4.665,8.958c2.444,4.666,12.454,4.046,15.452,2.581
			l0.21-0.103l0.235-0.004c0.216-0.002,0.424-0.053,0.612-0.147l1.903-0.961C14.458,9.961,6.429-5.324,6.429-5.324z"/>
		<path d="M10.446,13.749c0.021-0.151,0.026-0.304,0.024-0.458v-0.003v-0.001c-0.013-0.463-0.128-0.949-0.302-1.444
			c-0.555-1.578-2.177-5.659-4.83-10.815C2.574-4.346,0.215-8.021-0.699-9.283c-0.407-0.566-0.846-1.06-1.37-1.348
			c0.006-0.001,0.01-0.003,0.01-0.003c0.242-0.32,0.55-0.594,0.924-0.785l2.095-1.076c1.751-0.9,2.751-0.042,3.617,1.161
			c0.869,1.201,3.111,4.693,5.74,9.798c2.522,4.903,4.064,8.781,4.59,10.282c0.166,0.47,0.273,0.931,0.288,1.371v0.003l0,0
			c0.025,0.881-0.339,1.674-1.448,2.244l-2.091,1.075c-0.377,0.192-0.776,0.285-1.174,0.293
			C10.48,13.732,10.459,13.745,10.446,13.749z"/>
		
			<linearGradient id="SVGID_7_" gradientUnits="userSpaceOnUse" x1="463.5469" y1="722.0198" x2="475.1016" y2="743.5813" gradientTransform="matrix(1 0 0 1 -462 -732.9229)">
			<stop  offset="0.0165" style="stop-color:#636363"/>
			<stop  offset="0.1243" style="stop-color:#494949"/>
			<stop  offset="0.3055" style="stop-color:#212121"/>
			<stop  offset="0.4499" style="stop-color:#090909"/>
			<stop  offset="0.5385" style="stop-color:#000000"/>
			<stop  offset="0.8516" style="stop-color:#000000"/>
			<stop  offset="1" style="stop-color:#171717"/>
		</linearGradient>
		<path fill="url(#SVGID_7_)" d="M9.295-1.013C6.71-6.033,4.47-9.522,3.646-10.662c-0.857-1.193-1.312-1.249-2.163-0.813
			l-1.74,0.896c0.16,0.186,0.323,0.396,0.49,0.625C1.201-8.613,3.582-4.902,6.362,0.5c3.2,6.224,4.726,10.495,4.891,10.964
			c0.096,0.269,0.173,0.523,0.228,0.771l1.743-0.894c0.78-0.403,0.833-0.826,0.823-1.19c-0.009-0.285-0.083-0.632-0.223-1.025
			C13.671,8.696,12.267,4.771,9.295-1.013L9.295-1.013z"/>
		
			<linearGradient id="SVGID_8_" gradientUnits="userSpaceOnUse" x1="3704.1572" y1="-5835.4902" x2="3731.9697" y2="-5835.4902" gradientTransform="matrix(0.4574 0.8892 0.8892 -0.4574 3493.2488 -5974.1016)">
			<stop  offset="0.0165" style="stop-color:#000000"/>
			<stop  offset="0.0591" style="stop-color:#040404"/>
			<stop  offset="0.1033" style="stop-color:#111111"/>
			<stop  offset="0.1482" style="stop-color:#252525"/>
			<stop  offset="0.1936" style="stop-color:#424242"/>
			<stop  offset="0.2394" style="stop-color:#686868"/>
			<stop  offset="0.2849" style="stop-color:#959595"/>
			<stop  offset="0.3022" style="stop-color:#A8A8A8"/>
			<stop  offset="0.3413" style="stop-color:#979797"/>
			<stop  offset="0.4538" style="stop-color:#696969"/>
			<stop  offset="0.5669" style="stop-color:#434343"/>
			<stop  offset="0.6788" style="stop-color:#262626"/>
			<stop  offset="0.7891" style="stop-color:#111111"/>
			<stop  offset="0.897" style="stop-color:#040404"/>
			<stop  offset="1" style="stop-color:#000000"/>
		</linearGradient>
		<path fill="url(#SVGID_8_)" d="M-0.406-9.799C0.531-8.501,2.959-4.727,5.796,0.793c2.725,5.297,4.391,9.486,4.962,11.108
			c0.177,0.51,0.296,1.008,0.309,1.485v0.001v0.001c0.002,0.09,0,0.18-0.005,0.271c-0.193,0.045-0.388,0.069-0.583,0.073
			c0,0-0.022,0.014-0.034,0.017c0.021-0.15,0.026-0.304,0.024-0.458v-0.003v-0.002c-0.013-0.463-0.128-0.949-0.302-1.444
			C9.612,10.264,7.99,6.183,5.337,1.027C2.574-4.346,0.215-8.021-0.699-9.283c-0.407-0.566-0.846-1.06-1.37-1.348
			c0.006-0.001,0.01-0.003,0.01-0.003c0.124-0.163,0.261-0.312,0.415-0.445C-1.179-10.775-0.781-10.32-0.406-9.799z"/>
	</g>
	
		<linearGradient id="SVGID_9_" gradientUnits="userSpaceOnUse" x1="489.8955" y1="749.1311" x2="468.2522" y2="776.6771" gradientTransform="matrix(1 0 0 1 -462 -732.9229)">
		<stop  offset="0.0165" style="stop-color:#B0AFB1"/>
		<stop  offset="0.2276" style="stop-color:#7F7E80"/>
		<stop  offset="0.4878" style="stop-color:#494849"/>
		<stop  offset="0.7127" style="stop-color:#212121"/>
		<stop  offset="0.8908" style="stop-color:#090909"/>
		<stop  offset="1" style="stop-color:#000000"/>
	</linearGradient>
	<path display="inline" fill="url(#SVGID_9_)" d="M33.658,52.775c-3.836-1.8-4.237,0.684-22.47-18.276
		C-4.389,18.292-3.311,15.912-4.397,14.357c-0.409-0.584-2.4-3.755-4.146-3.219c0.736,2.028,1.684,4.845,3.297,8.048
		c2.83,5.62,7.781,13.893,15.279,21.395c8.021,8.019,17.579,13.462,24.602,16.648C37.041,58.322,37.438,54.551,33.658,52.775z"/>
	<g display="inline">
		
			<linearGradient id="SVGID_10_" gradientUnits="userSpaceOnUse" x1="476.2246" y1="768.1545" x2="484.0358" y2="761.4709" gradientTransform="matrix(1 0 0 1 -462 -732.9229)">
			<stop  offset="0.0165" style="stop-color:#B0AFB1"/>
			<stop  offset="0.2276" style="stop-color:#7F7E80"/>
			<stop  offset="0.4878" style="stop-color:#494849"/>
			<stop  offset="0.7127" style="stop-color:#212121"/>
			<stop  offset="0.8908" style="stop-color:#090909"/>
			<stop  offset="1" style="stop-color:#000000"/>
		</linearGradient>
		<path fill="url(#SVGID_10_)" d="M37.062,44.206c-1.897,1.746-4.851,1.702-6.69-0.143L6.417,20.11
			c-1.89-1.89-1.89-4.949-0.001-6.839L5.59,14.098c-1.89,1.892-1.89,4.951,0,6.838l23.956,23.956c1.887,1.893,4.949,1.893,6.839,0
			l0.682-0.681v-0.006L37.062,44.206L37.062,44.206z"/>
	</g>
</g>
<g opacity="0.38">
	<ellipse fill="#FFFFFF" fill-opacity="0" cx="25.444" cy="68.981" rx="39.368" ry="1.874"/>
	<ellipse opacity="0.0323" fill="#FCF9F8" enable-background="new    " cx="25.444" cy="68.98" rx="38.667" ry="1.821"/>
	<ellipse opacity="0.0645" fill="#F9F3F1" enable-background="new    " cx="25.444" cy="68.98" rx="37.965" ry="1.767"/>
	<ellipse opacity="0.0968" fill="#F6EDEA" enable-background="new    " cx="25.444" cy="68.979" rx="37.264" ry="1.712"/>
	<ellipse opacity="0.129" fill="#F3E6E3" enable-background="new    " cx="25.444" cy="68.98" rx="36.559" ry="1.658"/>
	<ellipse opacity="0.1613" fill="#F0E0DC" enable-background="new    " cx="25.444" cy="68.98" rx="35.86" ry="1.6"/>
	<ellipse opacity="0.1935" fill="#EDDAD4" enable-background="new    " cx="25.444" cy="68.98" rx="35.153" ry="1.546"/>
	<ellipse opacity="0.2258" fill="#EAD4CD" enable-background="new    " cx="25.444" cy="68.979" rx="34.45" ry="1.489"/>
	<ellipse opacity="0.2581" fill="#E7CEC6" enable-background="new    " cx="25.444" cy="68.978" rx="33.747" ry="1.435"/>
	<ellipse opacity="0.2903" fill="#E4C8BF" enable-background="new    " cx="25.444" cy="68.981" rx="33.045" ry="1.377"/>
	<ellipse opacity="0.3226" fill="#E1C2B8" enable-background="new    " cx="25.444" cy="68.981" rx="32.345" ry="1.322"/>
	<ellipse opacity="0.3548" fill="#DEBCB1" enable-background="new    " cx="25.444" cy="68.979" rx="31.641" ry="1.266"/>
	<ellipse opacity="0.3871" fill="#DBB5AA" enable-background="new    " cx="25.444" cy="68.979" rx="30.94" ry="1.212"/>
	<ellipse opacity="0.4194" fill="#D8AFA3" enable-background="new    " cx="25.444" cy="68.979" rx="30.233" ry="1.157"/>
	<path opacity="0.4516" fill="#D5A99C" enable-background="new    " d="M25.444,67.876c16.311,0,29.53,0.496,29.53,1.103
		c0,0.611-13.22,1.105-29.53,1.105S-4.087,69.59-4.087,68.979C-4.087,68.373,9.134,67.876,25.444,67.876z"/>
	<path opacity="0.4839" fill="#D2A395" enable-background="new    " d="M25.444,67.934c15.925,0,28.831,0.473,28.831,1.045
		c0,0.58-12.905,1.048-28.831,1.048c-15.922,0-28.83-0.468-28.83-1.048C-3.386,68.406,9.521,67.934,25.444,67.934z"/>
	<ellipse opacity="0.5161" fill="#D09D8D" enable-background="new    " cx="25.444" cy="68.98" rx="28.125" ry="0.991"/>
	<ellipse opacity="0.5484" fill="#CD9786" enable-background="new    " cx="25.444" cy="68.979" rx="27.425" ry="0.938"/>
	<ellipse opacity="0.5806" fill="#CA917F" enable-background="new    " cx="25.444" cy="68.979" rx="26.722" ry="0.88"/>
	<path opacity="0.6129" fill="#C78B78" enable-background="new    " d="M25.444,68.159c14.369,0,26.019,0.366,26.019,0.819
		c0,0.458-11.649,0.822-26.019,0.822c-14.372,0-26.016-0.364-26.016-0.822C-0.574,68.526,11.072,68.159,25.444,68.159z"/>
	<path opacity="0.6452" fill="#C48471" enable-background="new    " d="M25.444,68.207c13.983,0,25.315,0.351,25.315,0.771
		c0,0.423-11.332,0.771-25.315,0.771c-13.979,0-25.313-0.349-25.313-0.771C0.13,68.557,11.465,68.207,25.444,68.207z"/>
	<ellipse opacity="0.6774" fill="#C17E6A" enable-background="new    " cx="25.444" cy="68.98" rx="24.616" ry="0.711"/>
	<ellipse opacity="0.7097" fill="#BE7863" enable-background="new    " cx="25.444" cy="68.98" rx="23.911" ry="0.658"/>
	<path opacity="0.7419" fill="#BB725C" enable-background="new    " d="M25.444,68.376c12.818,0,23.208,0.271,23.208,0.603
		c0,0.335-10.389,0.605-23.208,0.605c-12.817,0-23.206-0.271-23.206-0.605C2.238,68.649,12.626,68.376,25.444,68.376z"/>
	<path opacity="0.7742" fill="#B86C55" enable-background="new    " d="M25.444,68.438c12.429,0,22.506,0.243,22.506,0.548
		c0,0.299-10.077,0.546-22.506,0.546c-12.428,0-22.505-0.247-22.505-0.546C2.938,68.681,13.015,68.438,25.444,68.438z"/>
	<path opacity="0.8065" fill="#B5664E" enable-background="new    " d="M25.444,68.492c12.041,0,21.802,0.219,21.802,0.486
		c0,0.273-9.761,0.492-21.802,0.492c-12.04,0-21.801-0.219-21.801-0.492C3.642,68.71,13.404,68.492,25.444,68.492z"/>
	<ellipse opacity="0.8387" fill="#B26046" enable-background="new    " cx="25.444" cy="68.98" rx="21.102" ry="0.435"/>
	<ellipse opacity="0.871" fill="#AF5A3F" enable-background="new    " cx="25.444" cy="68.98" rx="20.396" ry="0.383"/>
	<ellipse opacity="0.9032" fill="#AC5338" enable-background="new    " cx="25.444" cy="68.98" rx="19.695" ry="0.328"/>
	<ellipse opacity="0.9355" fill="#A94D31" enable-background="new    " cx="25.444" cy="68.982" rx="18.992" ry="0.27"/>
	<ellipse opacity="0.9677" fill="#A6472A" enable-background="new    " cx="25.444" cy="68.98" rx="18.29" ry="0.218"/>
	<path fill="#A34123" d="M25.444,68.82c9.714,0,17.588,0.074,17.588,0.159c0,0.088-7.874,0.162-17.588,0.162
		c-9.714,0-17.588-0.074-17.588-0.162C7.856,68.894,15.73,68.82,25.444,68.82z"/>
</g>
<rect x="-19.385" y="-13.075" fill="none" width="89.993" height="84.929"/>
</svg>
