<?xml version="1.0" encoding="utf-8"?>
<!-- Generator: Adobe Illustrator 16.0.0, SVG Export Plug-In . SVG Version: 6.00 Build 0)  -->
<!DOCTYPE svg PUBLIC "-//W3C//DTD SVG 1.1//EN" "http://www.w3.org/Graphics/SVG/1.1/DTD/svg11.dtd">
<svg version="1.1" xmlns="http://www.w3.org/2000/svg" xmlns:xlink="http://www.w3.org/1999/xlink" x="0px" y="0px"
	 width="134.61px" height="25.912px" viewBox="0 0 134.61 25.912" enable-background="new 0 0 134.61 25.912" xml:space="preserve">
<g id="Layer_1">
	<g id="Layer_1_1_">
		<g>
			<g>
				
					<linearGradient id="SVGID_1_" gradientUnits="userSpaceOnUse" x1="-181.0332" y1="547.5103" x2="-175.5885" y2="542.0656" gradientTransform="matrix(0.8226 -0.5686 0.5686 0.8226 -40.689 -537.2895)">
					<stop  offset="0" style="stop-color:#98CB59"/>
					<stop  offset="1" style="stop-color:#75AE42"/>
				</linearGradient>
				<path fill="url(#SVGID_1_)" d="M121.465,10.947c-0.739,0.51-0.925,1.524-0.414,2.262c0.512,0.739,1.524,0.923,2.262,0.413
					c0.74-0.511,0.926-1.523,0.414-2.263C123.217,10.621,122.203,10.436,121.465,10.947z M122.857,12.962
					c-0.375,0.259-0.888,0.166-1.146-0.208c-0.259-0.374-0.165-0.888,0.209-1.146c0.374-0.259,0.889-0.166,1.146,0.209
					C123.326,12.19,123.232,12.704,122.857,12.962z"/>
				
					<linearGradient id="SVGID_2_" gradientUnits="userSpaceOnUse" x1="-179.377" y1="545.853" x2="-177.2834" y2="543.7594" gradientTransform="matrix(0.8226 -0.5686 0.5686 0.8226 -40.689 -537.2895)">
					<stop  offset="0" style="stop-color:#272F17"/>
					<stop  offset="1" style="stop-color:#7A7F53"/>
				</linearGradient>
				<circle fill="url(#SVGID_2_)" cx="122.389" cy="12.285" r="0.625"/>
				
					<linearGradient id="SVGID_3_" gradientUnits="userSpaceOnUse" x1="-194.2559" y1="550.9077" x2="-179.3051" y2="535.957" gradientTransform="matrix(0.8226 -0.5686 0.5686 0.8226 -40.689 -537.2895)">
					<stop  offset="0" style="stop-color:#272F17"/>
					<stop  offset="1" style="stop-color:#7A7F53"/>
				</linearGradient>
				<path fill="url(#SVGID_3_)" d="M120.907,13.309c-0.201-0.291-0.306-0.621-0.317-0.949c-0.524-0.014-1.135,0.113-1.74,0.391
					c-1.354,0.622-11.073,5.85-10.715,6.632l12.894-5.918C120.986,13.417,120.945,13.364,120.907,13.309z"/>
				
					<linearGradient id="SVGID_4_" gradientUnits="userSpaceOnUse" x1="-269.3882" y1="259.5034" x2="-249.9024" y2="240.0177" gradientTransform="matrix(0.6324 -0.7747 0.7747 0.6324 88.8166 -339.5876)">
					<stop  offset="0" style="stop-color:#272F17"/>
					<stop  offset="1" style="stop-color:#7A7F53"/>
				</linearGradient>
				<path fill="url(#SVGID_4_)" d="M121.229,13.649c-0.051-0.042-0.102-0.087-0.146-0.133l-6.926,12.381
					c0.752,0.42,6.738-8.852,7.465-10.152c0.326-0.58,0.501-1.179,0.529-1.703C121.823,14.002,121.503,13.873,121.229,13.649z"/>
				
					<linearGradient id="SVGID_5_" gradientUnits="userSpaceOnUse" x1="-250.3457" y1="246.7896" x2="-248.668" y2="246.7896" gradientTransform="matrix(0.6324 -0.7747 0.7747 0.6324 88.8166 -339.5876)">
					<stop  offset="0" style="stop-color:#272F17"/>
					<stop  offset="1" style="stop-color:#7A7F53"/>
				</linearGradient>
				<path fill="url(#SVGID_5_)" d="M122.926,9.283l-0.705-0.576c-0.304,0.519-0.438,1.001-0.406,1.462
					c0.01,0.147,0.037,0.288,0.074,0.422c0.188-0.048,0.379-0.066,0.572-0.053c0-0.314,0.151-0.679,0.529-1.215
					C122.967,9.313,122.945,9.299,122.926,9.283z"/>
				
					<linearGradient id="SVGID_6_" gradientUnits="userSpaceOnUse" x1="-243.5576" y1="245.3589" x2="-243.5576" y2="247.6704" gradientTransform="matrix(0.6324 -0.7747 0.7747 0.6324 88.8166 -339.5876)">
					<stop  offset="0" style="stop-color:#98CB59"/>
					<stop  offset="1" style="stop-color:#75AE42"/>
				</linearGradient>
				<path fill="url(#SVGID_6_)" d="M122.301,8.499c-0.067-0.054-0.072-0.194-0.01-0.309c1.543-2.765,4.047-4.747,5.516-7.572
					c0.06-0.117,0.213-0.126,0.346-0.018c0.492,0.401,0.982,0.802,1.475,1.204c0.133,0.108,0.154,0.261,0.051,0.343
					c-2.474,2.005-3.914,4.854-6.314,6.92c-0.1,0.084-0.236,0.107-0.305,0.053C122.807,8.913,122.554,8.706,122.301,8.499z"/>
				
					<linearGradient id="SVGID_7_" gradientUnits="userSpaceOnUse" x1="-177.2769" y1="546.5337" x2="-175.5996" y2="546.5337" gradientTransform="matrix(0.8226 -0.5686 0.5686 0.8226 -40.689 -537.2895)">
					<stop  offset="0" style="stop-color:#272F17"/>
					<stop  offset="1" style="stop-color:#7A7F53"/>
				</linearGradient>
				<path fill="url(#SVGID_7_)" d="M125.478,11.944c-0.015-0.021-0.026-0.043-0.035-0.067c-0.565,0.333-0.94,0.456-1.253,0.431
					c-0.002,0.193-0.035,0.383-0.098,0.564c0.131,0.049,0.268,0.087,0.414,0.108c0.456,0.067,0.948-0.027,1.49-0.288L125.478,11.944
					z"/>
				
					<linearGradient id="SVGID_8_" gradientUnits="userSpaceOnUse" x1="-170.3252" y1="-82.1592" x2="-170.3252" y2="-79.846" gradientTransform="matrix(0.8226 -0.5686 -0.5686 -0.8226 224.0327 -154.0264)">
					<stop  offset="0" style="stop-color:#98CB59"/>
					<stop  offset="1" style="stop-color:#75AE42"/>
				</linearGradient>
				<path fill="url(#SVGID_8_)" d="M126.209,12.63c0.049,0.071,0.188,0.088,0.307,0.034c2.879-1.318,5.055-3.655,7.988-4.894
					c0.121-0.05,0.143-0.203,0.045-0.343c-0.359-0.522-0.721-1.044-1.082-1.566c-0.097-0.141-0.248-0.175-0.338-0.079
					c-2.195,2.307-5.15,3.516-7.4,5.743c-0.092,0.092-0.126,0.228-0.076,0.299C125.838,12.092,126.023,12.361,126.209,12.63z"/>
			</g>
			<g>
				
					<linearGradient id="SVGID_9_" gradientUnits="userSpaceOnUse" x1="420.4746" y1="453.0249" x2="433.5304" y2="453.0249" gradientTransform="matrix(0.7071 0.7071 -0.7071 0.7071 67.7893 -614.8048)">
					<stop  offset="0" style="stop-color:#272F17"/>
					<stop  offset="1" style="stop-color:#7A7F53"/>
				</linearGradient>
				<path fill="url(#SVGID_9_)" d="M51.393,5.462c-1.106-1.106-2.899-1.106-4.006,0c-1.106,1.106-1.106,2.899,0,4.006
					c1.106,1.106,2.899,1.106,4.006,0C52.499,8.361,52.499,6.568,51.393,5.462z M46.897,7.73c-0.077-0.727,0.163-1.481,0.72-2.038
					c0.558-0.557,1.312-0.797,2.039-0.72c-0.54,0.286-1.081,0.683-1.578,1.18C47.58,6.649,47.183,7.19,46.897,7.73z"/>
				
					<linearGradient id="SVGID_10_" gradientUnits="userSpaceOnUse" x1="33.4062" y1="670.9712" x2="65.3725" y2="670.9712" gradientTransform="matrix(1 0 0 1 0 -663.5059)">
					<stop  offset="0" style="stop-color:#98CB59"/>
					<stop  offset="1" style="stop-color:#75AE42"/>
				</linearGradient>
				<path fill="url(#SVGID_10_)" d="M53.883,8.358c0.555-0.133,1.129-0.32,1.708-0.559c0.253-0.105,0.498-0.217,0.735-0.334
					c-0.237-0.118-0.481-0.229-0.735-0.334c-0.579-0.24-1.154-0.426-1.708-0.56c0.461-0.336,0.921-0.728,1.364-1.17
					c0.194-0.194,0.378-0.391,0.552-0.59c-0.264-0.018-0.533-0.028-0.807-0.028c-0.627,0-1.229,0.048-1.792,0.137
					c0.297-0.487,0.572-1.024,0.812-1.604c0.105-0.253,0.199-0.506,0.284-0.756c-0.25,0.085-0.503,0.179-0.756,0.284
					c-0.579,0.24-1.117,0.515-1.604,0.812c0.088-0.563,0.137-1.165,0.137-1.792c0-0.274-0.01-0.543-0.028-0.808
					c-0.199,0.174-0.396,0.357-0.59,0.552c-0.443,0.443-0.834,0.903-1.17,1.364c-0.134-0.554-0.319-1.129-0.559-1.708
					c-0.105-0.254-0.218-0.499-0.334-0.736c-0.118,0.237-0.23,0.482-0.335,0.735c-0.24,0.58-0.426,1.154-0.559,1.708
					c-0.336-0.461-0.728-0.921-1.17-1.364c-0.194-0.194-0.391-0.377-0.59-0.552c-0.018,0.264-0.028,0.533-0.028,0.808
					c0,0.626,0.048,1.229,0.137,1.792c-0.487-0.297-1.025-0.572-1.604-0.812c-0.253-0.105-0.506-0.199-0.756-0.284
					c0.085,0.25,0.179,0.503,0.284,0.756c0.239,0.579,0.515,1.117,0.812,1.604c-0.563-0.089-1.166-0.137-1.792-0.137
					c-0.274,0-0.543,0.01-0.807,0.028c0.173,0.199,0.358,0.396,0.551,0.59c0.443,0.443,0.903,0.834,1.364,1.17
					c-0.554,0.134-1.129,0.32-1.708,0.56c-0.253,0.105-0.499,0.217-0.736,0.334c0.237,0.117,0.482,0.229,0.736,0.334
					c0.579,0.24,1.153,0.426,1.708,0.56c-0.461,0.336-0.921,0.728-1.364,1.171c-0.193,0.194-0.378,0.391-0.551,0.59
					c0.264,0.018,0.533,0.028,0.807,0.028c0.626,0,1.229-0.049,1.792-0.137c-0.298,0.487-0.573,1.025-0.812,1.604
					c-0.105,0.253-0.199,0.506-0.284,0.756c0.25-0.085,0.503-0.178,0.756-0.283c0.579-0.24,1.117-0.515,1.604-0.813
					c-0.088,0.564-0.137,1.166-0.137,1.793c0,0.273,0.01,0.543,0.028,0.807c0.199-0.173,0.396-0.357,0.59-0.551
					c0.442-0.443,0.834-0.903,1.17-1.364c0.133,0.554,0.32,1.129,0.559,1.708c0.105,0.253,0.217,0.498,0.335,0.735
					c0.117-0.237,0.229-0.482,0.334-0.735c0.24-0.579,0.425-1.154,0.559-1.708c0.336,0.461,0.728,0.921,1.171,1.364
					c0.194,0.194,0.391,0.377,0.589,0.551c0.018-0.263,0.028-0.533,0.028-0.807c0-0.627-0.048-1.229-0.137-1.793
					c0.487,0.298,1.025,0.573,1.604,0.813c0.253,0.105,0.506,0.198,0.756,0.283c-0.084-0.25-0.179-0.503-0.284-0.756
					c-0.24-0.579-0.515-1.117-0.812-1.604c0.563,0.088,1.165,0.137,1.792,0.137c0.274,0,0.543-0.01,0.807-0.028
					c-0.174-0.198-0.357-0.396-0.551-0.589C54.804,9.086,54.344,8.695,53.883,8.358z M49.39,10.859c-1.875,0-3.395-1.52-3.395-3.394
					c0-1.875,1.519-3.395,3.395-3.395c1.875,0,3.394,1.52,3.394,3.395C52.784,9.339,51.264,10.859,49.39,10.859z"/>
				
					<linearGradient id="SVGID_11_" gradientUnits="userSpaceOnUse" x1="31.856" y1="682.7466" x2="59.7847" y2="682.7466" gradientTransform="matrix(1 0 0 1 0 -663.5059)">
					<stop  offset="0" style="stop-color:#98CB59"/>
					<stop  offset="1" style="stop-color:#75AE42"/>
				</linearGradient>
				<path fill="url(#SVGID_11_)" d="M49.325,24.671c0.483,0.418,0.98,0.831,1.489,1.239h1.068c-0.639-0.503-1.257-1.014-1.856-1.531
					c1.033-0.826-0.209-5.25-1.95-7.195c-3.428-3.735-7.923-4.544-7.971-4.612c0.023,0.007-0.44,1.018-0.327,2.674
					c0.098,1.64,0.771,3.923,2.729,6.077C44.586,23.643,47.724,25.002,49.325,24.671z"/>
				
					<linearGradient id="SVGID_12_" gradientUnits="userSpaceOnUse" x1="45.7568" y1="683.1577" x2="55.5597" y2="683.1577" gradientTransform="matrix(1 0 0 1 0 -663.5059)">
					<stop  offset="0" style="stop-color:#272F17"/>
					<stop  offset="1" style="stop-color:#7A7F53"/>
				</linearGradient>
				<path fill="url(#SVGID_12_)" d="M50.595,23.215c0.265,0.707,0.555,1.412,0.869,2.113c0.178,0.145,0.356,0.286,0.537,0.43
					l0.194,0.152h0.262l0.053-0.095c0.095-0.171,0.187-0.339,0.276-0.507c-1.668-3.65-2.646-7.415-2.882-11.082
					c-0.053,0.116-0.108,0.232-0.165,0.347l-0.348,0.703l-0.349-0.703c-0.125-0.252-0.241-0.508-0.345-0.759
					c-0.058-0.14-0.113-0.281-0.165-0.422c0.072,1.676,0.295,3.373,0.663,5.073C50.024,19.967,50.614,21.885,50.595,23.215z"/>
				
					<linearGradient id="SVGID_13_" gradientUnits="userSpaceOnUse" x1="48.2549" y1="683.2202" x2="62.272" y2="683.2202" gradientTransform="matrix(1 0 0 1 0 -663.5059)">
					<stop  offset="0" style="stop-color:#98CB59"/>
					<stop  offset="1" style="stop-color:#75AE42"/>
				</linearGradient>
				<path fill="url(#SVGID_13_)" d="M57.963,15.342c-0.396-1.221-1.02-1.812-1.005-1.824c-0.015,0.062-3.005,1.94-4.387,5.607
					c-0.687,1.897-0.303,5.429,0.677,5.724c-0.182,0.354-0.372,0.708-0.567,1.062h0.591c0.194-0.352,0.382-0.701,0.563-1.055
					c1.243-0.224,3.101-2.104,3.924-4.367C58.542,18.378,58.366,16.545,57.963,15.342z"/>
			</g>
			<g>
				
					<linearGradient id="SVGID_14_" gradientUnits="userSpaceOnUse" x1="64.5205" y1="696.8101" x2="96.1128" y2="665.2177" gradientTransform="matrix(1 0 0 1 0 -663.5059)">
					<stop  offset="0" style="stop-color:#272F17"/>
					<stop  offset="1" style="stop-color:#7A7F53"/>
				</linearGradient>
				<path fill="url(#SVGID_14_)" d="M88.139,11.618c-5.732,0-10.284,0-16.016,0c-0.359,4.262,0.555,8.709,1.979,13.004
					c0.114,0.715,0.812,1.289,1.526,1.289c3.639,0,6.1,0,9.738,0c0.714,0,1.424-0.573,1.551-1.289
					C88.166,20.327,88.742,15.879,88.139,11.618z M86.327,24.451l-0.009,0.03l-0.006,0.033c-0.073,0.408-0.523,0.78-0.945,0.78
					h-9.738c-0.423,0-0.852-0.36-0.918-0.771l-0.008-0.049l-0.016-0.047c-1.542-4.647-2.195-8.645-1.99-12.194h0.842
					c0.074,3.073,0.74,6.476,2.018,10.326l0.016,0.048l0.008,0.049c0.066,0.41,0.495,0.77,0.918,0.77h9.738
					c0.135,0,0.272-0.038,0.4-0.104C86.539,23.696,86.438,24.073,86.327,24.451z"/>
				
					<linearGradient id="SVGID_15_" gradientUnits="userSpaceOnUse" x1="70.4033" y1="681.2349" x2="89.4356" y2="662.2026" gradientTransform="matrix(1 0 0 1 0 -663.5059)">
					<stop  offset="0" style="stop-color:#98CB59"/>
					<stop  offset="1" style="stop-color:#75AE42"/>
				</linearGradient>
				<path fill="url(#SVGID_15_)" d="M79.92,2.753c-3.734,0-6.774,3.039-6.774,6.774v0.171h1.598V9.528
					c0-2.854,2.321-5.177,5.177-5.177c2.854,0,5.177,2.322,5.177,5.177v0.171h1.598V9.528C86.694,5.792,83.655,2.753,79.92,2.753z"
					/>
				<g>
					
						<linearGradient id="SVGID_16_" gradientUnits="userSpaceOnUse" x1="92.6221" y1="681.3374" x2="97.6648" y2="676.2946" gradientTransform="matrix(1 0 0 1 0 -663.5059)">
						<stop  offset="0" style="stop-color:#98CB59"/>
						<stop  offset="1" style="stop-color:#75AE42"/>
					</linearGradient>
					<path fill="url(#SVGID_16_)" d="M94.004,11.981c-1.057,1.141-1.16,2.914-0.17,4.175c0.991,1.264,2.737,1.586,4.098,0.83
						L94.004,11.981z M96.371,17.083C96.37,17.083,96.37,17.083,96.371,17.083c-0.902,0-1.739-0.406-2.295-1.115
						c-0.465-0.594-0.668-1.312-0.615-2.012c0.037,0.564,0.241,1.124,0.615,1.601c0.556,0.708,1.393,1.114,2.294,1.114
						c0,0,0,0,0.001,0c0.28,0,0.559-0.041,0.826-0.12l0.254,0.323C97.109,17.01,96.741,17.083,96.371,17.083z"/>
					
						<linearGradient id="SVGID_17_" gradientUnits="userSpaceOnUse" x1="95.3467" y1="678.6812" x2="97.1416" y2="676.8863" gradientTransform="matrix(1 0 0 1 0 -663.5059)">
						<stop  offset="0" style="stop-color:#272F17"/>
						<stop  offset="1" style="stop-color:#7A7F53"/>
					</linearGradient>
					<path fill="url(#SVGID_17_)" d="M98.083,16.896c0.094-0.06,0.185-0.123,0.274-0.192l-3.977-5.067
						c-0.089,0.069-0.174,0.143-0.252,0.219L98.083,16.896z"/>
				</g>
				
					<linearGradient id="SVGID_18_" gradientUnits="userSpaceOnUse" x1="70.3926" y1="684.1733" x2="89.8905" y2="664.6755" gradientTransform="matrix(1 0 0 1 0 -663.5059)">
					<stop  offset="0" style="stop-color:#272F17"/>
					<stop  offset="1" style="stop-color:#7A7F53"/>
				</linearGradient>
				<path fill="url(#SVGID_18_)" d="M88.16,11.361v-0.477c0-0.547-0.443-0.989-0.989-0.989h-14.06c-0.547,0-0.989,0.442-0.989,0.989
					v0.477H88.16z"/>
				
					<linearGradient id="SVGID_19_" gradientUnits="userSpaceOnUse" x1="82.7373" y1="688.6655" x2="96.8403" y2="674.5626" gradientTransform="matrix(1 0 0 1 0 -663.5059)">
					<stop  offset="0" style="stop-color:#98CB59"/>
					<stop  offset="1" style="stop-color:#75AE42"/>
				</linearGradient>
				<path fill="url(#SVGID_19_)" d="M88.666,16.176h3.396l-3.643,2.865c-0.139,1.059-0.332,2.139-0.58,3.239l6.627-5.212
					c-0.295-0.198-0.56-0.441-0.785-0.729c-0.244-0.311-0.425-0.651-0.547-1.006l-0.303,0.238h-4.151
					C88.679,15.772,88.674,15.974,88.666,16.176z"/>
			</g>
			<g>
				
					<linearGradient id="SVGID_20_" gradientUnits="userSpaceOnUse" x1="-687.8711" y1="570.4487" x2="-675.6501" y2="570.4487" gradientTransform="matrix(0.7071 -0.7071 0.7071 0.7071 98.2191 -865.6497)">
					<stop  offset="0" style="stop-color:#98CB59"/>
					<stop  offset="1" style="stop-color:#75AE42"/>
				</linearGradient>
				<path fill="url(#SVGID_20_)" d="M16.099,13.433l4.042,4.043c0.646,0.646,0.938,1.302,0.869,1.953
					c-0.057,0.543-0.355,0.914-0.529,1.088l0,0c-0.03,0.029-0.056,0.054-0.075,0.07c-0.018,0.02-0.042,0.046-0.071,0.076
					c-0.226,0.225-1.432,1.269-3.041-0.341l-4.042-4.043l-2.957,2.957l4.979,4.979c0,0,3.526,3.525,9.167,0.408
					c3.118-5.642-0.408-9.168-0.408-9.168l-4.979-4.979L16.099,13.433z M23.795,23.975c-4.875,2.558-7.87-0.35-7.9-0.379
					l-4.359-4.359l0.734-0.734l3.625,3.625c0.03,0.03,3.026,2.939,7.9,0.381c0.617-1.176,0.916-2.238,1.017-3.178
					C24.951,20.572,24.76,22.137,23.795,23.975z"/>
				
					<linearGradient id="SVGID_21_" gradientUnits="userSpaceOnUse" x1="-683.2676" y1="567.1274" x2="-680.1182" y2="567.1274" gradientTransform="matrix(0.7071 -0.7071 0.7071 0.7071 98.2191 -865.6497)">
					<stop  offset="0" style="stop-color:#272F17"/>
					<stop  offset="1" style="stop-color:#7A7F53"/>
				</linearGradient>
				<path fill="url(#SVGID_21_)" d="M14.323,14.503l-1.114,1.113c0,0,2.877,2.877,4.396,4.396c1.518,1.518,2.49,0.264,2.49,0.264
					s1.254-0.973-0.264-2.49s-4.396-4.396-4.396-4.396L14.323,14.503z"/>
				
					<linearGradient id="SVGID_22_" gradientUnits="userSpaceOnUse" x1="-683.2676" y1="553.0337" x2="-680.1187" y2="553.0337" gradientTransform="matrix(0.7071 -0.7071 0.7071 0.7071 98.2191 -865.6497)">
					<stop  offset="0" style="stop-color:#98CB59"/>
					<stop  offset="1" style="stop-color:#75AE42"/>
				</linearGradient>
				<path fill="url(#SVGID_22_)" d="M0.461,0.642c-0.615,0.616-0.615,1.612,0,2.227l12.454,12.455l2.226-2.227L2.688,0.642
					C2.073,0.027,1.076,0.027,0.461,0.642z M1.081,2.248l12.144,12.144l-0.31,0.311L0.771,2.558c-0.443-0.442-0.443-1.164,0-1.606
					c0.053-0.054,0.11-0.1,0.171-0.14C0.645,1.253,0.691,1.859,1.081,2.248z"/>
			</g>
		</g>
	</g>
</g>
<g id="Layer_2" display="none">
	<g id="Layer_2_1_" display="inline">
		<g>
			<g>
				
					<linearGradient id="SVGID_23_" gradientUnits="userSpaceOnUse" x1="338.5488" y1="-285.0122" x2="357.9951" y2="-285.0122" gradientTransform="matrix(1 0 0 -1 -231 -271.5693)">
					<stop  offset="0" style="stop-color:#98CB59"/>
					<stop  offset="1" style="stop-color:#75AE42"/>
				</linearGradient>
				<path fill="url(#SVGID_23_)" d="M119.812,20.423c-1.327-0.267-2.177-3.663-2.973-6.583c-0.797-2.92,0.979-11.042,0.979-11.042
					h-10.27c0.031,11.394,1.753,13.431,2.442,15.502c0.559,1.672,0.077,3.733-0.128,4.463c5.603,0.212,7.951,0.698,9.507,1.02
					c0.861,0.178,1.483,0.306,2.284,0.306c0.245,0,0.5-0.012,0.78-0.035c2.928-0.25,4.427-1.241,4.441-1.251l0.119-0.081
					C126.487,20.709,121.077,20.675,119.812,20.423z M122.396,23.604c-0.268,0.022-0.511,0.033-0.741,0.033
					c-0.756,0-1.357-0.125-2.192-0.296c-1.516-0.313-3.783-0.781-9.025-1.007c0.231-1.019,0.471-2.718-0.016-4.178
					c-0.116-0.343-0.258-0.686-0.407-1.048c-0.778-1.886-1.95-4.72-2.011-13.859h0.612c0.107,8.659,1.244,11.409,2.004,13.252
					c0.152,0.363,0.294,0.705,0.407,1.05c0.486,1.46,0.247,3.159,0.017,4.177c5.241,0.226,7.509,0.693,9.024,1.007
					c0.835,0.172,1.438,0.297,2.192,0.297c0.233,0,0.475-0.012,0.742-0.035c1.42-0.12,2.49-0.423,3.199-0.691
					c0.087,0.073,0.162,0.153,0.221,0.237C125.936,22.8,124.578,23.417,122.396,23.604z"/>
				
					<linearGradient id="SVGID_24_" gradientUnits="userSpaceOnUse" x1="340.6084" y1="-296.043" x2="358.0342" y2="-296.043" gradientTransform="matrix(1 0 0 -1 -231 -271.5693)">
					<stop  offset="0" style="stop-color:#272F17"/>
					<stop  offset="1" style="stop-color:#7A7F53"/>
				</linearGradient>
				<path fill="url(#SVGID_24_)" d="M122.459,24.334c-3.033,0.259-2.922-0.928-12.679-1.292c-0.059-0.002-0.115-0.004-0.172-0.006
					l0.227,2.53h0.364V25.44c0-0.103,0.086-0.186,0.187-0.186h0.007c0.103,0,0.186,0.083,0.186,0.186v0.127h0.322V25.44
					c0-0.103,0.083-0.186,0.187-0.186h0.006c0.104,0,0.187,0.083,0.187,0.186v0.127h0.322V25.44c0-0.103,0.083-0.186,0.187-0.186
					h0.006c0.104,0,0.185,0.083,0.185,0.186v0.127h0.324V25.44c0-0.103,0.083-0.186,0.187-0.186h0.006
					c0.102,0,0.185,0.083,0.185,0.186v0.127h0.324V25.44c0-0.103,0.083-0.186,0.187-0.186h0.006c0.102,0,0.187,0.083,0.187,0.186
					v0.127h0.322V25.44c0-0.103,0.083-0.186,0.187-0.186h0.006c0.104,0,0.187,0.083,0.187,0.186v0.127h0.391l0.52-0.745
					c0,0,2.63,0.13,3.667,0.615v0.326c0,0,5.745,0.812,8.373-1.364v-1.363C127.034,23.036,125.508,24.074,122.459,24.334z"/>
			</g>
			<g>
				
					<linearGradient id="SVGID_25_" gradientUnits="userSpaceOnUse" x1="347.8857" y1="-235.6016" x2="352.3223" y2="-235.6016" gradientTransform="matrix(0.7071 0.7071 0.7071 -0.7071 -26.191 -406.7566)">
					<stop  offset="0" style="stop-color:#98CB59"/>
					<stop  offset="1" style="stop-color:#75AE42"/>
				</linearGradient>
				<path fill="url(#SVGID_25_)" d="M59.144,6.068c0.324-0.429,0.238-1.126-0.129-1.493c-0.473-0.473-0.946-0.946-1.42-1.419
					c-0.367-0.367-1.064-0.454-1.492-0.129c-2.135,1.664-3.305,4.293-5.44,5.957c-0.428,0.323-0.516,0.848-0.129,1.234
					c0.473,0.473,0.946,0.947,1.42,1.42c0.386,0.386,0.91,0.299,1.234-0.129C54.852,9.373,57.48,8.204,59.144,6.068z M52.509,11.154
					c-0.008-0.003-0.022-0.013-0.041-0.033l-1.42-1.42c-0.018-0.019-0.028-0.033-0.032-0.04c0.005-0.015,0.027-0.054,0.085-0.098
					l0.009-0.006c1.14-0.889,2.008-2.017,2.849-3.108c0.819-1.064,1.592-2.069,2.584-2.844c0.126-0.091,0.415-0.057,0.536,0.064
					l0.204,0.205c-0.841,0.731-1.533,1.629-2.26,2.574c-0.84,1.092-1.708,2.22-2.85,3.109l-0.008,0.006
					c-0.059,0.044-0.08,0.083-0.085,0.097c0.003,0.008,0.013,0.022,0.032,0.04l0.891,0.892c-0.135,0.151-0.265,0.306-0.391,0.467
					l-0.007,0.008C52.562,11.126,52.524,11.148,52.509,11.154z"/>
				
					<linearGradient id="SVGID_26_" gradientUnits="userSpaceOnUse" x1="344.2998" y1="-252.689" x2="355.9102" y2="-252.689" gradientTransform="matrix(0.7071 0.7071 0.7071 -0.7071 -26.191 -406.7566)">
					<stop  offset="0" style="stop-color:#98CB59"/>
					<stop  offset="1" style="stop-color:#75AE42"/>
				</linearGradient>
				<path fill="url(#SVGID_26_)" d="M49.013,13.158c-2.267-2.268-4.183-4.027-6.449-1.76c-7.655,7.654-6.191,14.401-6.191,14.401
					s6.746,1.463,14.401-6.191C53.04,17.34,51.28,15.424,49.013,13.158z M37.021,25.151c-0.056-0.66-0.079-1.938,0.307-3.613
					c0.529-2.297,1.956-5.83,5.75-9.625c0.852-0.851,1.601-1.021,2.466-0.646c-0.281,0.137-0.564,0.35-0.861,0.646
					c-3.794,3.795-5.221,7.328-5.75,9.625c-0.385,1.673-0.363,2.951-0.307,3.611C37.928,25.202,37.381,25.181,37.021,25.151z"/>
				
					<linearGradient id="SVGID_27_" gradientUnits="userSpaceOnUse" x1="349.2822" y1="-242.1738" x2="350.9258" y2="-242.1738" gradientTransform="matrix(0.7071 0.7071 0.7071 -0.7071 -26.191 -406.7566)">
					<stop  offset="0" style="stop-color:#272F17"/>
					<stop  offset="1" style="stop-color:#7A7F53"/>
				</linearGradient>
				<path fill="url(#SVGID_27_)" d="M50.341,10.668l-1.589,1.588c0.197,0.193,0.391,0.388,0.583,0.579
					c0.191,0.191,0.386,0.386,0.579,0.583l1.588-1.588L50.341,10.668z"/>
			</g>
			<g>
				
					<linearGradient id="SVGID_28_" gradientUnits="userSpaceOnUse" x1="-248.5518" y1="-215.7222" x2="-244.0728" y2="-215.7222" gradientTransform="matrix(0.7071 -0.7071 -0.7071 -0.7071 97.0413 -319.6776)">
					<stop  offset="0" style="stop-color:#98CB59"/>
					<stop  offset="1" style="stop-color:#75AE42"/>
				</linearGradient>
				<path fill="url(#SVGID_28_)" d="M74.071,2.615c-0.432-0.328-1.135-0.24-1.508,0.13c-0.477,0.479-0.954,0.956-1.433,1.434
					c-0.371,0.37-0.458,1.074-0.132,1.508c1.682,2.154,4.334,3.335,6.014,5.489c0.327,0.432,0.855,0.521,1.247,0.13
					c0.478-0.478,0.954-0.955,1.432-1.434c0.392-0.39,0.305-0.918-0.129-1.246C77.408,6.949,76.227,4.295,74.071,2.615z
					 M79.206,9.313c-0.005,0.006-0.015,0.021-0.033,0.04l-1.435,1.433c-0.018,0.02-0.032,0.029-0.04,0.032
					c-0.015-0.005-0.053-0.026-0.1-0.085l-0.004-0.009c-0.899-1.152-2.038-2.028-3.139-2.876c-1.074-0.826-2.087-1.607-2.871-2.607
					C71.493,5.114,71.53,4.823,71.651,4.7l0.207-0.206c0.737,0.848,1.644,1.546,2.598,2.28c1.101,0.849,2.239,1.726,3.139,2.877
					l0.004,0.008c0.047,0.059,0.085,0.081,0.1,0.086c0.008-0.004,0.022-0.013,0.04-0.032l0.9-0.899
					c0.151,0.136,0.308,0.268,0.472,0.395l0.008,0.006C79.177,9.259,79.199,9.298,79.206,9.313z"/>
				
					<linearGradient id="SVGID_29_" gradientUnits="userSpaceOnUse" x1="-247.1406" y1="-222.356" x2="-245.481" y2="-222.356" gradientTransform="matrix(0.7071 -0.7071 -0.7071 -0.7071 97.0413 -319.6776)">
					<stop  offset="0" style="stop-color:#272F17"/>
					<stop  offset="1" style="stop-color:#7A7F53"/>
				</linearGradient>
				<path fill="url(#SVGID_29_)" d="M78.715,11.502l1.604,1.603c0.194-0.198,0.391-0.395,0.583-0.588
					c0.194-0.194,0.392-0.39,0.59-0.585l-1.603-1.604L78.715,11.502z"/>
				
					<linearGradient id="SVGID_30_" gradientUnits="userSpaceOnUse" x1="17.9517" y1="-164.686" x2="29.8979" y2="-164.686" gradientTransform="matrix(0.7071 -0.7071 -0.7071 -0.7071 -47.1111 -81.66)">
					<stop  offset="0" style="stop-color:#98CB59"/>
					<stop  offset="1" style="stop-color:#75AE42"/>
				</linearGradient>
				<path fill="url(#SVGID_30_)" d="M83.945,9.998l-5.562,5.562c-0.798,0.797-0.798,2.088,0,2.886l10.012,7.466l0,0
					c-2.346-2.765-4.996-4.916-7.548-7.476c-0.362-0.36-0.488-0.817-0.266-1.039c0.102-0.103,0.203-0.203,0.307-0.306
					c0.221-0.221,0.679-0.096,1.039,0.265c2.403,2.396,5.872,4.354,8.5,6.524c-2.172-2.629-4.737-5.487-7.134-7.892
					c-0.359-0.359-0.486-0.817-0.264-1.039c0.102-0.103,0.202-0.204,0.306-0.306c0.221-0.221,0.679-0.095,1.038,0.265
					c2.404,2.397,5.264,4.963,7.892,7.135c-2.172-2.629-4.127-6.098-6.524-8.501c-0.36-0.36-0.486-0.818-0.264-1.04
					c0.102-0.102,0.203-0.204,0.305-0.305c0.223-0.221,0.679-0.096,1.039,0.264c2.56,2.552,4.711,5.202,7.475,7.55l0,0L86.83,9.998
					C86.032,9.2,84.741,9.2,83.945,9.998z"/>
			</g>
			<g>
				
					<linearGradient id="SVGID_31_" gradientUnits="userSpaceOnUse" x1="237" y1="-291.5063" x2="251.1152" y2="-291.5063" gradientTransform="matrix(1 0 0 -1 -231 -271.5693)">
					<stop  offset="0" style="stop-color:#272F17"/>
					<stop  offset="1" style="stop-color:#7A7F53"/>
				</linearGradient>
				<path fill="url(#SVGID_31_)" d="M6,15.922c0,3.076,0.663,5.887,1.758,8.029h10.6c1.095-2.143,1.758-4.953,1.758-8.029H6z
					 M8.321,23.053C7.507,21.268,7.02,19.1,6.918,16.821h1.746c0.103,2.279,0.59,4.447,1.404,6.232H8.321z"/>
				
					<linearGradient id="SVGID_32_" gradientUnits="userSpaceOnUse" x1="250.6455" y1="-296.5903" x2="236.8047" y2="-296.5903" gradientTransform="matrix(1 0 0 -1 -231 -271.5693)">
					<stop  offset="0" style="stop-color:#98CB59"/>
					<stop  offset="1" style="stop-color:#75AE42"/>
				</linearGradient>
				<path fill="url(#SVGID_32_)" d="M7.284,24.132l0.229,1.474c0,0.169,0.136,0.305,0.305,0.305h10.455
					c0.168,0,0.304-0.136,0.304-0.305l0.254-1.474H7.284z"/>
				
					<linearGradient id="SVGID_33_" gradientUnits="userSpaceOnUse" x1="237.2295" y1="-278.3979" x2="250.8867" y2="-278.3979" gradientTransform="matrix(1 0 0 -1 -231 -271.5693)">
					<stop  offset="0" style="stop-color:#98CB59"/>
					<stop  offset="1" style="stop-color:#75AE42"/>
				</linearGradient>
				<path fill="url(#SVGID_33_)" d="M19.886,6.829c0-0.817-1.283-1.495-2.95-1.606c1.1-1.259,1.529-2.645,0.95-3.222
					c-0.579-0.579-1.963-0.15-3.222,0.95C14.552,1.283,13.875,0,13.058,0c-0.818,0-1.495,1.283-1.606,2.951
					C10.193,1.851,8.808,1.421,8.229,2C7.651,2.578,8.08,3.964,9.18,5.223c-1.667,0.111-2.95,0.789-2.95,1.606
					c0,0.818,1.283,1.494,2.95,1.606c-1.1,1.259-1.529,2.644-0.95,3.222c0.579,0.578,1.963,0.149,3.222-0.951
					c0.111,1.667,0.788,2.951,1.606,2.951c0.817,0,1.494-1.284,1.606-2.951c1.259,1.101,2.644,1.529,3.222,0.951
					c0.579-0.579,0.15-1.963-0.95-3.222C18.604,8.322,19.886,7.646,19.886,6.829z M15.523,7.489c0.12,0.229,0.123,0.513-0.016,0.753
					c-0.139,0.241-0.387,0.38-0.645,0.39c-0.011,0.259-0.15,0.507-0.391,0.646c-0.24,0.139-0.524,0.135-0.753,0.015
					c-0.139,0.219-0.383,0.364-0.661,0.364c-0.278,0-0.522-0.145-0.661-0.364c-0.229,0.12-0.513,0.124-0.754-0.015
					s-0.379-0.386-0.391-0.646c-0.258-0.01-0.505-0.149-0.645-0.39c-0.139-0.24-0.135-0.524-0.015-0.753
					c-0.219-0.139-0.363-0.383-0.363-0.661c0-0.278,0.144-0.522,0.363-0.66c-0.12-0.23-0.124-0.514,0.015-0.754
					c0.139-0.241,0.386-0.38,0.645-0.39c0.011-0.259,0.15-0.506,0.39-0.646c0.241-0.139,0.524-0.134,0.754-0.015
					C12.536,4.146,12.779,4,13.058,4c0.278,0,0.521,0.146,0.661,0.364c0.229-0.119,0.513-0.124,0.753,0.015
					c0.24,0.14,0.379,0.386,0.39,0.646c0.258,0.01,0.506,0.149,0.646,0.39c0.138,0.241,0.135,0.524,0.015,0.754
					c0.218,0.138,0.363,0.382,0.363,0.66C15.886,7.106,15.741,7.351,15.523,7.489z"/>
				
					<linearGradient id="SVGID_34_" gradientUnits="userSpaceOnUse" x1="241.5947" y1="-278.3979" x2="246.5215" y2="-278.3979" gradientTransform="matrix(1 0 0 -1 -231 -271.5693)">
					<stop  offset="0" style="stop-color:#272F17"/>
					<stop  offset="1" style="stop-color:#7A7F53"/>
				</linearGradient>
				<path fill="url(#SVGID_34_)" d="M15.327,6.477l-0.283-0.18l0.155-0.298c0.067-0.128,0.064-0.278-0.007-0.403
					c-0.072-0.123-0.201-0.202-0.345-0.208l-0.335-0.014l-0.015-0.335c-0.005-0.144-0.083-0.271-0.208-0.344
					c-0.063-0.036-0.135-0.056-0.208-0.056c-0.067,0-0.134,0.017-0.194,0.049l-0.298,0.155l-0.18-0.284
					c-0.077-0.122-0.209-0.194-0.352-0.194c-0.144,0-0.275,0.072-0.352,0.194l-0.18,0.284l-0.298-0.156
					c-0.06-0.031-0.127-0.048-0.194-0.048c-0.073,0-0.143,0.019-0.207,0.056c-0.125,0.071-0.202,0.2-0.208,0.344l-0.014,0.335
					l-0.335,0.014c-0.144,0.006-0.272,0.084-0.344,0.208c-0.072,0.125-0.074,0.275-0.008,0.402l0.155,0.298l-0.283,0.18
					c-0.122,0.077-0.194,0.208-0.194,0.352c0,0.144,0.072,0.274,0.194,0.352l0.283,0.181l-0.155,0.297
					c-0.066,0.128-0.063,0.278,0.008,0.402c0.072,0.124,0.201,0.202,0.344,0.208l0.335,0.013l0.014,0.336
					c0.007,0.144,0.084,0.272,0.208,0.344c0.063,0.037,0.135,0.056,0.207,0.056c0.067,0,0.135-0.016,0.194-0.048l0.298-0.155
					l0.18,0.284c0.077,0.122,0.208,0.194,0.352,0.194c0.143,0,0.275-0.072,0.352-0.194l0.18-0.284l0.298,0.155
					c0.06,0.032,0.127,0.048,0.195,0.048c0.074,0,0.143-0.019,0.207-0.055c0.125-0.073,0.202-0.201,0.208-0.345l0.015-0.336
					l0.335-0.013c0.144-0.007,0.272-0.084,0.345-0.208c0.071-0.124,0.074-0.274,0.007-0.402l-0.155-0.297l0.283-0.181
					c0.122-0.077,0.194-0.208,0.194-0.352C15.521,6.685,15.449,6.554,15.327,6.477z M13.058,8.083c-0.692,0-1.254-0.561-1.254-1.254
					c0-0.692,0.562-1.254,1.254-1.254c0.693,0,1.254,0.562,1.254,1.254C14.312,7.521,13.75,8.083,13.058,8.083z"/>
				
					<linearGradient id="SVGID_35_" gradientUnits="userSpaceOnUse" x1="243.0918" y1="-278.3979" x2="245.0234" y2="-278.3979" gradientTransform="matrix(1 0 0 -1 -231 -271.5693)">
					<stop  offset="0" style="stop-color:#98CB59"/>
					<stop  offset="1" style="stop-color:#75AE42"/>
				</linearGradient>
				<circle fill="url(#SVGID_35_)" cx="13.058" cy="6.828" r="0.966"/>
				
					<linearGradient id="SVGID_36_" gradientUnits="userSpaceOnUse" x1="243.5146" y1="-286.3315" x2="244.6006" y2="-286.3315" gradientTransform="matrix(1 0 0 -1 -231 -271.5693)">
					<stop  offset="0" style="stop-color:#272F17"/>
					<stop  offset="1" style="stop-color:#7A7F53"/>
				</linearGradient>
				<path fill="url(#SVGID_36_)" d="M13.058,14.052c-0.189,0-0.371-0.042-0.543-0.119v1.658h1.086v-1.658
					C13.428,14.01,13.247,14.052,13.058,14.052z"/>
			</g>
		</g>
	</g>
</g>
<g id="Layer_3" display="none">
	<g id="Layer_3_1_" display="inline">
		<g>
			<g>
				
					<linearGradient id="SVGID_37_" gradientUnits="userSpaceOnUse" x1="343.6113" y1="377.6392" x2="346.9004" y2="377.6392" gradientTransform="matrix(1 0 -0.0459 1 -216.2119 -362.5059)">
					<stop  offset="0" style="stop-color:#272F17"/>
					<stop  offset="1" style="stop-color:#7A7F53"/>
				</linearGradient>
				<path fill="url(#SVGID_37_)" d="M112.962,23.692c-1.966-5.555-2.798-11.426-2.381-17.118c-0.698,5.533-0.196,11.4,1.498,17.118
					H112.962z"/>
				
					<linearGradient id="SVGID_38_" gradientUnits="userSpaceOnUse" x1="347.3799" y1="377.6392" x2="350.7559" y2="377.6392" gradientTransform="matrix(1 0 -0.0921 1 -201.5093 -362.5059)">
					<stop  offset="0" style="stop-color:#98CB59"/>
					<stop  offset="1" style="stop-color:#75AE42"/>
				</linearGradient>
				<path fill="url(#SVGID_38_)" d="M113.678,23.692c-1.742-5.555-2.34-11.426-1.696-17.118c-0.919,5.533-0.649,11.4,0.812,17.118
					H113.678z"/>
				
					<linearGradient id="SVGID_39_" gradientUnits="userSpaceOnUse" x1="354.1982" y1="377.6392" x2="357.7959" y2="377.6392" gradientTransform="matrix(1 0 -0.2042 1 -164.5724 -362.5059)">
					<stop  offset="0" style="stop-color:#272F17"/>
					<stop  offset="1" style="stop-color:#7A7F53"/>
				</linearGradient>
				<path fill="url(#SVGID_39_)" d="M114.361,23.692c-1.206-5.555-1.232-11.426-0.037-17.118c-1.455,5.533-1.754,11.4-0.848,17.118
					H114.361z"/>
				
					<linearGradient id="SVGID_40_" gradientUnits="userSpaceOnUse" x1="354.9443" y1="377.6392" x2="358.5225" y2="377.6392" gradientTransform="matrix(1 0 -0.1954 1 -167.9314 -362.5059)">
					<stop  offset="0" style="stop-color:#98CB59"/>
					<stop  offset="1" style="stop-color:#75AE42"/>
				</linearGradient>
				<path fill="url(#SVGID_40_)" d="M115.128,23.692c-1.245-5.555-1.318-11.426-0.166-17.118c-1.411,5.533-1.669,11.4-0.717,17.118
					H115.128z"/>
				
					<linearGradient id="SVGID_41_" gradientUnits="userSpaceOnUse" x1="356.0068" y1="377.6392" x2="359.6094" y2="377.6392" gradientTransform="matrix(1 0 -0.2068 1 -163.9239 -362.5059)">
					<stop  offset="0" style="stop-color:#272F17"/>
					<stop  offset="1" style="stop-color:#7A7F53"/>
				</linearGradient>
				<path fill="url(#SVGID_41_)" d="M115.82,23.692c-1.193-5.555-1.207-11.426,0.002-17.118c-1.468,5.533-1.782,11.4-0.889,17.118
					H115.82z"/>
				
					<linearGradient id="SVGID_42_" gradientUnits="userSpaceOnUse" x1="362.5059" y1="377.6392" x2="366.3184" y2="377.6392" gradientTransform="matrix(1 0 -0.3097 1 -130.6084 -362.5059)">
					<stop  offset="0" style="stop-color:#98CB59"/>
					<stop  offset="1" style="stop-color:#75AE42"/>
				</linearGradient>
				<path fill="url(#SVGID_42_)" d="M116.104,23.692c-0.697-5.555-0.187-11.426,1.527-17.118c-1.96,5.533-2.797,11.4-2.411,17.118
					H116.104z"/>
				<g>
					
						<linearGradient id="SVGID_43_" gradientUnits="userSpaceOnUse" x1="359.6543" y1="377.6392" x2="363.3477" y2="377.6392" gradientTransform="matrix(1 0 -0.2504 1 -149.8425 -362.5059)">
						<stop  offset="0" style="stop-color:#272F17"/>
						<stop  offset="1" style="stop-color:#7A7F53"/>
					</linearGradient>
					<path fill="url(#SVGID_43_)" d="M116.801,23.692c-0.984-5.555-0.776-11.426,0.645-17.118c-1.674,5.533-2.211,11.4-1.53,17.118
						H116.801z"/>
					
						<linearGradient id="SVGID_44_" gradientUnits="userSpaceOnUse" x1="363.418" y1="377.6392" x2="367.2012" y2="377.6392" gradientTransform="matrix(1 0 -0.2966 1 -135.1403 -362.5059)">
						<stop  offset="0" style="stop-color:#272F17"/>
						<stop  offset="1" style="stop-color:#7A7F53"/>
					</linearGradient>
					<path fill="url(#SVGID_44_)" d="M117.515,23.692c-0.761-5.555-0.316-11.426,1.333-17.118c-1.897,5.533-2.667,11.4-2.217,17.118
						H117.515z"/>
					
						<linearGradient id="SVGID_45_" gradientUnits="userSpaceOnUse" x1="371.0713" y1="377.6392" x2="375.0898" y2="377.6392" gradientTransform="matrix(1 0 -0.4088 1 -99.0158 -362.5059)">
						<stop  offset="0" style="stop-color:#98CB59"/>
						<stop  offset="1" style="stop-color:#75AE42"/>
					</linearGradient>
					<path fill="url(#SVGID_45_)" d="M118.196,23.692c-0.221-5.555,0.793-11.426,2.997-17.118c-2.435,5.533-3.776,11.4-3.88,17.118
						H118.196z"/>
					
						<linearGradient id="SVGID_46_" gradientUnits="userSpaceOnUse" x1="370.9668" y1="377.6392" x2="374.9697" y2="377.6392" gradientTransform="matrix(1 0 -0.3999 1 -101.5634 -362.5059)">
						<stop  offset="0" style="stop-color:#98CB59"/>
						<stop  offset="1" style="stop-color:#75AE42"/>
					</linearGradient>
					<path fill="url(#SVGID_46_)" d="M118.966,23.692c-0.266-5.555,0.704-11.426,2.862-17.118c-2.394,5.533-3.687,11.4-3.747,17.118
						H118.966z"/>
					
						<linearGradient id="SVGID_47_" gradientUnits="userSpaceOnUse" x1="372.0293" y1="377.6392" x2="376.0537" y2="377.6392" gradientTransform="matrix(1 0 -0.4113 1 -97.5545 -362.5059)">
						<stop  offset="0" style="stop-color:#272F17"/>
						<stop  offset="1" style="stop-color:#7A7F53"/>
					</linearGradient>
					<path fill="url(#SVGID_47_)" d="M119.656,23.692c-0.211-5.555,0.819-11.426,3.033-17.118c-2.447,5.533-3.799,11.4-3.918,17.118
						H119.656z"/>
					
						<linearGradient id="SVGID_48_" gradientUnits="userSpaceOnUse" x1="378.5137" y1="377.6392" x2="382.7656" y2="377.6392" gradientTransform="matrix(1 0 -0.5142 1 -64.2394 -362.5059)">
						<stop  offset="0" style="stop-color:#98CB59"/>
						<stop  offset="1" style="stop-color:#75AE42"/>
					</linearGradient>
					<path fill="url(#SVGID_48_)" d="M119.943,23.692c0.282-5.555,1.833-11.426,4.555-17.118c-2.939,5.533-4.814,11.4-5.442,17.118
						H119.943z"/>
				</g>
				
					<linearGradient id="SVGID_49_" gradientUnits="userSpaceOnUse" x1="350.7236" y1="377.6392" x2="354.0127" y2="377.6392" gradientTransform="matrix(1 0 -0.0459 1 -216.2119 -362.5059)">
					<stop  offset="0" style="stop-color:#98CB59"/>
					<stop  offset="1" style="stop-color:#75AE42"/>
				</linearGradient>
				<path fill="url(#SVGID_49_)" d="M120.074,23.692c-1.967-5.555-2.798-11.426-2.381-17.118c-0.699,5.533-0.196,11.4,1.494,17.118
					H120.074z"/>
				
					<linearGradient id="SVGID_50_" gradientUnits="userSpaceOnUse" x1="354.4902" y1="377.6392" x2="357.8682" y2="377.6392" gradientTransform="matrix(1 0 -0.0921 1 -201.5093 -362.5059)">
					<stop  offset="0" style="stop-color:#98CB59"/>
					<stop  offset="1" style="stop-color:#75AE42"/>
				</linearGradient>
				<path fill="url(#SVGID_50_)" d="M120.79,23.692c-1.744-5.555-2.339-11.426-1.699-17.118c-0.918,5.533-0.648,11.4,0.814,17.118
					H120.79z"/>
				
					<linearGradient id="SVGID_51_" gradientUnits="userSpaceOnUse" x1="361.3096" y1="377.6392" x2="364.9053" y2="377.6392" gradientTransform="matrix(1 0 -0.2042 1 -164.5724 -362.5059)">
					<stop  offset="0" style="stop-color:#272F17"/>
					<stop  offset="1" style="stop-color:#7A7F53"/>
				</linearGradient>
				<path fill="url(#SVGID_51_)" d="M121.471,23.692c-1.203-5.555-1.229-11.426-0.034-17.118c-1.456,5.533-1.758,11.4-0.85,17.118
					H121.471z"/>
				
					<linearGradient id="SVGID_52_" gradientUnits="userSpaceOnUse" x1="362.0547" y1="377.6392" x2="365.6348" y2="377.6392" gradientTransform="matrix(1 0 -0.1954 1 -167.9314 -362.5059)">
					<stop  offset="0" style="stop-color:#98CB59"/>
					<stop  offset="1" style="stop-color:#75AE42"/>
				</linearGradient>
				<path fill="url(#SVGID_52_)" d="M122.24,23.692c-1.248-5.555-1.318-11.426-0.168-17.118c-1.411,5.533-1.668,11.4-0.718,17.118
					H122.24z"/>
				
					<linearGradient id="SVGID_53_" gradientUnits="userSpaceOnUse" x1="363.1191" y1="377.6392" x2="366.7197" y2="377.6392" gradientTransform="matrix(1 0 -0.2068 1 -163.9239 -362.5059)">
					<stop  offset="0" style="stop-color:#272F17"/>
					<stop  offset="1" style="stop-color:#7A7F53"/>
				</linearGradient>
				<path fill="url(#SVGID_53_)" d="M122.931,23.692c-1.192-5.555-1.207-11.426,0.004-17.118c-1.469,5.533-1.783,11.4-0.89,17.118
					H122.931z"/>
				
					<linearGradient id="SVGID_54_" gradientUnits="userSpaceOnUse" x1="369.6191" y1="377.6392" x2="373.4297" y2="377.6392" gradientTransform="matrix(1 0 -0.3097 1 -130.6084 -362.5059)">
					<stop  offset="0" style="stop-color:#98CB59"/>
					<stop  offset="1" style="stop-color:#75AE42"/>
				</linearGradient>
				<path fill="url(#SVGID_54_)" d="M123.216,23.692c-0.695-5.555-0.188-11.426,1.527-17.118c-1.959,5.533-2.796,11.4-2.412,17.118
					H123.216z"/>
				<g>
					
						<linearGradient id="SVGID_55_" gradientUnits="userSpaceOnUse" x1="366.7666" y1="377.6392" x2="370.4551" y2="377.6392" gradientTransform="matrix(1 0 -0.2504 1 -149.8425 -362.5059)">
						<stop  offset="0" style="stop-color:#272F17"/>
						<stop  offset="1" style="stop-color:#7A7F53"/>
					</linearGradient>
					<path fill="url(#SVGID_55_)" d="M123.909,23.692c-0.982-5.555-0.773-11.426,0.649-17.118c-1.677,5.533-2.212,11.4-1.534,17.118
						H123.909z"/>
					
						<linearGradient id="SVGID_56_" gradientUnits="userSpaceOnUse" x1="370.5293" y1="377.6392" x2="374.3125" y2="377.6392" gradientTransform="matrix(1 0 -0.2966 1 -135.1403 -362.5059)">
						<stop  offset="0" style="stop-color:#272F17"/>
						<stop  offset="1" style="stop-color:#7A7F53"/>
					</linearGradient>
					<path fill="url(#SVGID_56_)" d="M124.626,23.692c-0.76-5.555-0.316-11.426,1.333-17.118c-1.897,5.533-2.666,11.4-2.218,17.118
						H124.626z"/>
					
						<linearGradient id="SVGID_57_" gradientUnits="userSpaceOnUse" x1="378.1807" y1="377.6392" x2="382.2031" y2="377.6392" gradientTransform="matrix(1 0 -0.4088 1 -99.0158 -362.5059)">
						<stop  offset="0" style="stop-color:#98CB59"/>
						<stop  offset="1" style="stop-color:#75AE42"/>
					</linearGradient>
					<path fill="url(#SVGID_57_)" d="M125.309,23.692c-0.222-5.555,0.792-11.426,2.995-17.118c-2.436,5.533-3.775,11.4-3.882,17.118
						H125.309z"/>
					
						<linearGradient id="SVGID_58_" gradientUnits="userSpaceOnUse" x1="378.0801" y1="377.6392" x2="382.0811" y2="377.6392" gradientTransform="matrix(1 0 -0.3999 1 -101.5634 -362.5059)">
						<stop  offset="0" style="stop-color:#98CB59"/>
						<stop  offset="1" style="stop-color:#75AE42"/>
					</linearGradient>
					<path fill="url(#SVGID_58_)" d="M126.077,23.692c-0.265-5.555,0.702-11.426,2.863-17.118c-2.392,5.533-3.689,11.4-3.748,17.118
						H126.077z"/>
					
						<linearGradient id="SVGID_59_" gradientUnits="userSpaceOnUse" x1="379.1406" y1="377.6392" x2="383.165" y2="377.6392" gradientTransform="matrix(1 0 -0.4113 1 -97.5545 -362.5059)">
						<stop  offset="0" style="stop-color:#272F17"/>
						<stop  offset="1" style="stop-color:#7A7F53"/>
					</linearGradient>
					<path fill="url(#SVGID_59_)" d="M126.768,23.692c-0.209-5.555,0.814-11.426,3.033-17.118c-2.446,5.533-3.8,11.4-3.918,17.118
						H126.768z"/>
					
						<linearGradient id="SVGID_60_" gradientUnits="userSpaceOnUse" x1="385.625" y1="377.6392" x2="389.875" y2="377.6392" gradientTransform="matrix(1 0 -0.5142 1 -64.2394 -362.5059)">
						<stop  offset="0" style="stop-color:#98CB59"/>
						<stop  offset="1" style="stop-color:#75AE42"/>
					</linearGradient>
					<path fill="url(#SVGID_60_)" d="M127.052,23.692c0.287-5.555,1.835-11.426,4.559-17.118c-2.94,5.533-4.816,11.4-5.441,17.118
						H127.052z"/>
				</g>
				
					<linearGradient id="SVGID_61_" gradientUnits="userSpaceOnUse" x1="340.6621" y1="387.1733" x2="360.0342" y2="387.1733" gradientTransform="matrix(1 0 0 1 -231 -362.5059)">
					<stop  offset="0" style="stop-color:#272F17"/>
					<stop  offset="1" style="stop-color:#7A7F53"/>
				</linearGradient>
				<path fill="url(#SVGID_61_)" d="M109.662,25.91l0.472-0.92l0.813-0.46l0.628-0.838l1.114-0.238c0,0,6.639,0,11.202,0
					c0.218,0,0.431,0,0.636,0c1.786-0.078,3.825-0.193,4.507,2.456c-1.448,0-2.978,0-4.39,0c-0.203,0-0.41,0-0.62,0
					c-2.857,0-6.342,0-9.233,0c-0.192,0-0.382,0-0.569,0c-1.435,0-2.967,0-4.396,0.001C109.662,25.91,110.105,25.91,109.662,25.91z"
					/>
			</g>
			<g>
				
					<linearGradient id="SVGID_62_" gradientUnits="userSpaceOnUse" x1="264.3125" y1="384.3521" x2="272.4277" y2="384.3521" gradientTransform="matrix(1 0 0 1 -231 -362.5059)">
					<stop  offset="0" style="stop-color:#98CB59"/>
					<stop  offset="1" style="stop-color:#75AE42"/>
				</linearGradient>
				<path fill="url(#SVGID_62_)" d="M37.37,17.79c-2.241,0-4.058,1.816-4.058,4.059c0,2.241,1.817,4.056,4.058,4.056
					c2.24,0,4.057-1.814,4.057-4.056C41.427,19.606,39.61,17.79,37.37,17.79z M37.877,24.913v-1.955
					c-0.156,0.07-0.326,0.111-0.507,0.111s-0.354-0.041-0.509-0.111v1.955c-1.309-0.217-2.341-1.249-2.556-2.559h1.946
					c-0.074-0.156-0.116-0.332-0.116-0.52c0-0.177,0.038-0.345,0.104-0.495h-1.934c0.215-1.309,1.248-2.342,2.556-2.558v1.929
					c0.155-0.07,0.328-0.112,0.509-0.112s0.352,0.042,0.507,0.112v-1.929c1.309,0.216,2.341,1.249,2.558,2.558H38.5
					c0.065,0.15,0.103,0.318,0.103,0.495c0,0.188-0.042,0.361-0.115,0.52h1.947C40.219,23.664,39.187,24.696,37.877,24.913z"/>
				
					<linearGradient id="SVGID_63_" gradientUnits="userSpaceOnUse" x1="267.3945" y1="384.3521" x2="269.3457" y2="384.3521" gradientTransform="matrix(1 0 0 1 -231 -362.5059)">
					<stop  offset="0" style="stop-color:#272F17"/>
					<stop  offset="1" style="stop-color:#7A7F53"/>
				</linearGradient>
				<path fill="url(#SVGID_63_)" d="M37.37,20.87c-0.539,0-0.976,0.438-0.976,0.978c0,0.539,0.437,0.976,0.976,0.976
					s0.976-0.437,0.976-0.976C38.346,21.307,37.909,20.87,37.37,20.87z M37.37,22.266c-0.231,0-0.418-0.188-0.418-0.418
					c0-0.232,0.187-0.419,0.418-0.419s0.418,0.187,0.418,0.419C37.788,22.079,37.602,22.266,37.37,22.266z"/>
				
					<linearGradient id="SVGID_64_" gradientUnits="userSpaceOnUse" x1="268.0596" y1="384.353" x2="268.6787" y2="384.353" gradientTransform="matrix(1 0 0 1 -231 -362.5059)">
					<stop  offset="0" style="stop-color:#98CB59"/>
					<stop  offset="1" style="stop-color:#75AE42"/>
				</linearGradient>
				<circle fill="url(#SVGID_64_)" cx="37.37" cy="21.847" r="0.309"/>
				
					<linearGradient id="SVGID_65_" gradientUnits="userSpaceOnUse" x1="291.7129" y1="374.5952" x2="291.7129" y2="376.5934" gradientTransform="matrix(1 0 0 1 -231 -362.5059)">
					<stop  offset="0" style="stop-color:#98CB59"/>
					<stop  offset="1" style="stop-color:#75AE42"/>
				</linearGradient>
				<path fill="url(#SVGID_65_)" d="M62.653,13.457c0,0.264-0.214,0.479-0.479,0.479h-2.923c-0.264,0-0.479-0.214-0.479-0.479
					v-0.846c0-0.264,0.215-0.479,0.479-0.479h2.923c0.265,0,0.479,0.215,0.479,0.479V13.457z"/>
				
					<linearGradient id="SVGID_66_" gradientUnits="userSpaceOnUse" x1="288.2568" y1="375.5396" x2="289.3828" y2="375.5396" gradientTransform="matrix(1 0 0 1 -231 -362.5059)">
					<stop  offset="0" style="stop-color:#272F17"/>
					<stop  offset="1" style="stop-color:#7A7F53"/>
				</linearGradient>
				<path fill="url(#SVGID_66_)" d="M58.379,13.457v-0.846c0-0.014,0.003-0.027,0.003-0.041H57.56l-0.303,0.927h1.125
					C58.382,13.485,58.379,13.471,58.379,13.457z"/>
				
					<linearGradient id="SVGID_67_" gradientUnits="userSpaceOnUse" x1="280.2959" y1="385.4028" x2="285.6953" y2="385.4028" gradientTransform="matrix(1 0 0 1 -231 -362.5059)">
					<stop  offset="0" style="stop-color:#272F17"/>
					<stop  offset="1" style="stop-color:#7A7F53"/>
				</linearGradient>
				<path fill="url(#SVGID_67_)" d="M53.645,20.062l-1.52,4.224l-1.871-3.648l-0.958,0.161l2.491,4.859
					c0.079,0.155,0.239,0.252,0.412,0.252c0.009,0,0.02,0,0.03-0.001c0.184-0.01,0.344-0.132,0.407-0.306l2.061-5.72L53.645,20.062z
					"/>
				<g>
					
						<linearGradient id="SVGID_68_" gradientUnits="userSpaceOnUse" x1="267.9072" y1="379.0493" x2="268.833" y2="379.0493" gradientTransform="matrix(1 0 0 1 -231 -362.5059)">
						<stop  offset="0" style="stop-color:#272F17"/>
						<stop  offset="1" style="stop-color:#7A7F53"/>
					</linearGradient>
					<path fill="url(#SVGID_68_)" d="M37.37,17.396c0.156,0,0.311,0.009,0.463,0.025v-0.978l-0.926-0.777v1.755
						C37.058,17.405,37.213,17.396,37.37,17.396z"/>
					
						<linearGradient id="SVGID_69_" gradientUnits="userSpaceOnUse" x1="272.4639" y1="382.9536" x2="273.7832" y2="382.9536" gradientTransform="matrix(1 0 0 1 -231 -362.5059)">
						<stop  offset="0" style="stop-color:#272F17"/>
						<stop  offset="1" style="stop-color:#7A7F53"/>
					</linearGradient>
					<path fill="url(#SVGID_69_)" d="M41.968,19.908l-0.504,0.194c0.12,0.279,0.212,0.578,0.273,0.886l1.045-0.396L41.968,19.908z"
						/>
				</g>
				
					<linearGradient id="SVGID_70_" gradientUnits="userSpaceOnUse" x1="276.3301" y1="383.7192" x2="276.3301" y2="374.844" gradientTransform="matrix(1 0 0 1 -231 -362.5059)">
					<stop  offset="0" style="stop-color:#98CB59"/>
					<stop  offset="1" style="stop-color:#75AE42"/>
				</linearGradient>
				<polygon fill="url(#SVGID_70_)" points="54.902,19.45 44.201,21.264 33.399,12.213 57.262,12.213 				"/>
				
					<linearGradient id="SVGID_71_" gradientUnits="userSpaceOnUse" x1="267.0898" y1="373.2817" x2="286.3291" y2="373.2817" gradientTransform="matrix(1 0 0 1 -231 -362.5059)">
					<stop  offset="0" style="stop-color:#272F17"/>
					<stop  offset="1" style="stop-color:#7A7F53"/>
				</linearGradient>
				<path fill="url(#SVGID_71_)" d="M36.089,11.891h19.24c0,0-3.522-1.487-3.918-1.487c-0.397,0-2.115,0-2.115,0l-1.703-0.743
					c0,0-1.884,0.495-1.884,0.546c0,0.049-2.231,0.098-2.231,0.098l-2.48,0.472h-1.883L36.089,11.891z"/>
			</g>
			<g>
				
					<linearGradient id="SVGID_72_" gradientUnits="userSpaceOnUse" x1="447.8398" y1="363.2847" x2="451.4834" y2="363.2847" gradientTransform="matrix(0 1 -1 0 451.8481 -444.4673)">
					<stop  offset="0" style="stop-color:#98CB59"/>
					<stop  offset="1" style="stop-color:#75AE42"/>
				</linearGradient>
				<polygon fill="url(#SVGID_72_)" points="91.495,5.948 91.495,5.512 91.495,4.877 91.495,4.442 85.632,3.373 85.632,4.877 
					85.632,5.512 85.632,7.016 				"/>
				
					<linearGradient id="SVGID_73_" gradientUnits="userSpaceOnUse" x1="447.4619" y1="366.6548" x2="451.8623" y2="366.6548" gradientTransform="matrix(0 1 -1 0 451.8481 -444.4673)">
					<stop  offset="0" style="stop-color:#272F17"/>
					<stop  offset="1" style="stop-color:#7A7F53"/>
				</linearGradient>
				<path fill="url(#SVGID_73_)" d="M85.131,7.395c-0.102,0-0.18-0.082-0.18-0.182V3.176c0-0.099,0.078-0.182,0.18-0.182h0.124
					c0.102,0,0.182,0.083,0.182,0.182v4.037c0,0.1-0.08,0.182-0.179,0.182H85.131z"/>
				
					<linearGradient id="SVGID_74_" gradientUnits="userSpaceOnUse" x1="447.4619" y1="369.0688" x2="451.8623" y2="369.0688" gradientTransform="matrix(0 1 -1 0 451.8481 -444.4673)">
					<stop  offset="0" style="stop-color:#272F17"/>
					<stop  offset="1" style="stop-color:#7A7F53"/>
				</linearGradient>
				<path fill="url(#SVGID_74_)" d="M82.717,7.395c-0.103,0-0.181-0.082-0.181-0.182V3.176c0-0.099,0.078-0.181,0.181-0.181h0.125
					c0.1,0,0.181,0.083,0.181,0.182v4.037c0,0.1-0.081,0.182-0.181,0.182H82.717L82.717,7.395z"/>
				
					<linearGradient id="SVGID_75_" gradientUnits="userSpaceOnUse" x1="447.8398" y1="367.8599" x2="451.4834" y2="367.8599" gradientTransform="matrix(0 1 -1 0 451.8481 -444.4673)">
					<stop  offset="0" style="stop-color:#98CB59"/>
					<stop  offset="1" style="stop-color:#75AE42"/>
				</linearGradient>
				<rect x="83.218" y="3.373" fill="url(#SVGID_75_)" width="1.54" height="3.644"/>
				
					<linearGradient id="SVGID_76_" gradientUnits="userSpaceOnUse" x1="447.9092" y1="370.7124" x2="451.4141" y2="370.7124" gradientTransform="matrix(0 1 -1 0 451.8481 -444.4673)">
					<stop  offset="0" style="stop-color:#272F17"/>
					<stop  offset="1" style="stop-color:#7A7F53"/>
				</linearGradient>
				<path fill="url(#SVGID_76_)" d="M82.28,3.442h-1.307c-0.544,0-0.982,0.44-0.982,0.982v1.541c0,0.542,0.438,0.982,0.982,0.982
					h1.307V3.442z"/>
				<g>
					
						<linearGradient id="SVGID_77_" gradientUnits="userSpaceOnUse" x1="310.8145" y1="374.1509" x2="310.8145" y2="388.4155" gradientTransform="matrix(1 0 0 1 -231 -362.5059)">
						<stop  offset="0" style="stop-color:#272F17"/>
						<stop  offset="1" style="stop-color:#7A7F53"/>
					</linearGradient>
					<path fill="url(#SVGID_77_)" d="M80.622,25.323c0,0.324-0.262,0.587-0.586,0.587h-0.439c-0.327,0-0.591-0.263-0.591-0.587
						V12.234c0-0.324,0.265-0.588,0.591-0.588h0.439c0.324,0,0.586,0.265,0.586,0.588V25.323z"/>
					
						<linearGradient id="SVGID_78_" gradientUnits="userSpaceOnUse" x1="326.0957" y1="374.1509" x2="326.0957" y2="388.4155" gradientTransform="matrix(1 0 0 1 -231 -362.5059)">
						<stop  offset="0" style="stop-color:#272F17"/>
						<stop  offset="1" style="stop-color:#7A7F53"/>
					</linearGradient>
					<path fill="url(#SVGID_78_)" d="M95.904,25.323c0,0.324-0.265,0.587-0.588,0.587h-0.439c-0.326,0-0.59-0.263-0.59-0.587V12.234
						c0-0.324,0.265-0.588,0.59-0.588h0.439c0.324,0,0.588,0.265,0.588,0.588V25.323z"/>
				</g>
				
					<linearGradient id="SVGID_79_" gradientUnits="userSpaceOnUse" x1="318.4551" y1="376.5962" x2="318.4551" y2="385.9722" gradientTransform="matrix(1 0 0 1 -231 -362.5059)">
					<stop  offset="0" style="stop-color:#272F17"/>
					<stop  offset="1" style="stop-color:#7A7F53"/>
				</linearGradient>
				<rect x="81.139" y="14.09" fill="url(#SVGID_79_)" width="12.633" height="9.376"/>
				<g>
					
						<linearGradient id="SVGID_80_" gradientUnits="userSpaceOnUse" x1="307.7109" y1="381.2856" x2="307.7747" y2="381.2856" gradientTransform="matrix(1 0 0 1 -231 -362.5059)">
						<stop  offset="0" style="stop-color:#98CB59"/>
						<stop  offset="1" style="stop-color:#75AE42"/>
					</linearGradient>
					<path fill="url(#SVGID_80_)" d="M82.956,24.388c0,0.255-0.204,0.462-0.459,0.462h-0.345c-0.254,0-0.46-0.207-0.46-0.462V13.167
						c0-0.253,0.206-0.458,0.46-0.458h0.345c0.255,0,0.459,0.205,0.459,0.458V24.388z"/>
					
						<linearGradient id="SVGID_81_" gradientUnits="userSpaceOnUse" x1="307.709" y1="381.2856" x2="307.7728" y2="381.2856" gradientTransform="matrix(1 0 0 1 -231 -362.5059)">
						<stop  offset="0" style="stop-color:#98CB59"/>
						<stop  offset="1" style="stop-color:#75AE42"/>
					</linearGradient>
					<path fill="url(#SVGID_81_)" d="M84.95,24.388c0,0.255-0.206,0.462-0.459,0.462h-0.345c-0.256,0-0.46-0.207-0.46-0.462V13.167
						c0-0.253,0.204-0.458,0.46-0.458h0.345c0.253,0,0.459,0.205,0.459,0.458V24.388z"/>
					
						<linearGradient id="SVGID_82_" gradientUnits="userSpaceOnUse" x1="307.7266" y1="381.2856" x2="307.7902" y2="381.2856" gradientTransform="matrix(1 0 0 1 -231 -362.5059)">
						<stop  offset="0" style="stop-color:#98CB59"/>
						<stop  offset="1" style="stop-color:#75AE42"/>
					</linearGradient>
					<path fill="url(#SVGID_82_)" d="M86.942,24.388c0,0.255-0.206,0.462-0.459,0.462H86.14c-0.254,0-0.459-0.207-0.459-0.462
						V13.167c0-0.253,0.205-0.458,0.459-0.458h0.344c0.253,0,0.459,0.205,0.459,0.458V24.388z"/>
					
						<linearGradient id="SVGID_83_" gradientUnits="userSpaceOnUse" x1="307.7227" y1="381.2856" x2="307.7863" y2="381.2856" gradientTransform="matrix(1 0 0 1 -231 -362.5059)">
						<stop  offset="0" style="stop-color:#98CB59"/>
						<stop  offset="1" style="stop-color:#75AE42"/>
					</linearGradient>
					<path fill="url(#SVGID_83_)" d="M88.936,24.388c0,0.255-0.204,0.462-0.458,0.462h-0.345c-0.255,0-0.459-0.207-0.459-0.462
						V13.167c0-0.253,0.204-0.458,0.459-0.458h0.345c0.254,0,0.458,0.205,0.458,0.458V24.388z"/>
					
						<linearGradient id="SVGID_84_" gradientUnits="userSpaceOnUse" x1="307.7148" y1="381.2856" x2="307.7786" y2="381.2856" gradientTransform="matrix(1 0 0 1 -231 -362.5059)">
						<stop  offset="0" style="stop-color:#98CB59"/>
						<stop  offset="1" style="stop-color:#75AE42"/>
					</linearGradient>
					<path fill="url(#SVGID_84_)" d="M90.931,24.388c0,0.255-0.206,0.462-0.46,0.462h-0.344c-0.255,0-0.459-0.207-0.459-0.462
						V13.167c0-0.253,0.204-0.458,0.459-0.458h0.344c0.254,0,0.46,0.205,0.46,0.458V24.388z"/>
					
						<linearGradient id="SVGID_85_" gradientUnits="userSpaceOnUse" x1="307.6943" y1="381.2856" x2="307.7581" y2="381.2856" gradientTransform="matrix(1 0 0 1 -231 -362.5059)">
						<stop  offset="0" style="stop-color:#98CB59"/>
						<stop  offset="1" style="stop-color:#75AE42"/>
					</linearGradient>
					<path fill="url(#SVGID_85_)" d="M92.924,24.388c0,0.255-0.207,0.462-0.46,0.462h-0.345c-0.255,0-0.46-0.207-0.46-0.462V13.167
						c0-0.253,0.205-0.458,0.46-0.458h0.345c0.253,0,0.46,0.205,0.46,0.458V24.388z"/>
				</g>
				<g>
					
						<linearGradient id="SVGID_86_" gradientUnits="userSpaceOnUse" x1="302.0996" y1="374.4927" x2="310.4814" y2="374.4927" gradientTransform="matrix(1 0 0 1 -231 -362.5059)">
						<stop  offset="0" style="stop-color:#98CB59"/>
						<stop  offset="1" style="stop-color:#75AE42"/>
					</linearGradient>
					<path fill="url(#SVGID_86_)" d="M78.497,19.384c-4.081,0-7.397-3.318-7.397-7.397c0-4.079,3.317-7.398,7.397-7.398h0.984V5.8
						h-0.984c-3.412,0-6.187,2.775-6.187,6.188c0,3.41,2.774,6.186,6.187,6.186V19.384z"/>
				</g>
				
					<linearGradient id="SVGID_87_" gradientUnits="userSpaceOnUse" x1="255.5059" y1="232.3618" x2="255.5059" y2="238.8462" gradientTransform="matrix(0.7071 -0.7071 0.7071 0.7071 -252.6813 21.2854)">
					<stop  offset="0" style="stop-color:#98CB59"/>
					<stop  offset="1" style="stop-color:#75AE42"/>
				</linearGradient>
				<path fill="url(#SVGID_87_)" d="M92.291,4.922c0,0,0.622,3.727,1.479,4.585c0.858,0.857,2.249,0.857,3.106,0
					c0.857-0.858,0.857-2.248,0-3.106C96.019,5.544,92.291,4.922,92.291,4.922z M96.641,9.272c-0.726,0.726-1.907,0.726-2.637,0
					c-0.558-0.559-1.068-2.724-1.301-3.938c0.026,0.005,0.051,0.01,0.075,0.015c0.285,1.212,0.697,2.61,1.144,3.054
					c0.767,0.767,2.015,0.767,2.784,0c0.213-0.212,0.365-0.46,0.46-0.725C97.248,8.243,97.074,8.838,96.641,9.272z"/>
			</g>
			<g>
				
					<linearGradient id="SVGID_88_" gradientUnits="userSpaceOnUse" x1="233.793" y1="387.9009" x2="239.0156" y2="387.9009" gradientTransform="matrix(1 0 0 1 -231 -362.5059)">
					<stop  offset="0" style="stop-color:#272F17"/>
					<stop  offset="1" style="stop-color:#7A7F53"/>
				</linearGradient>
				<path fill="url(#SVGID_88_)" d="M8.015,25.91v-0.584c0-0.247-0.198-0.445-0.443-0.445H3.237c-0.246,0-0.445,0.198-0.445,0.445
					v0.584H8.015z"/>
				
					<linearGradient id="SVGID_89_" gradientUnits="userSpaceOnUse" x1="240.1758" y1="387.9009" x2="245.3984" y2="387.9009" gradientTransform="matrix(1 0 0 1 -231 -362.5059)">
					<stop  offset="0" style="stop-color:#272F17"/>
					<stop  offset="1" style="stop-color:#7A7F53"/>
				</linearGradient>
				<path fill="url(#SVGID_89_)" d="M14.398,25.91v-0.584c0-0.247-0.199-0.445-0.444-0.445H9.619c-0.245,0-0.443,0.198-0.443,0.445
					v0.584H14.398z"/>
				
					<linearGradient id="SVGID_90_" gradientUnits="userSpaceOnUse" x1="246.5566" y1="387.9009" x2="251.7812" y2="387.9009" gradientTransform="matrix(1 0 0 1 -231 -362.5059)">
					<stop  offset="0" style="stop-color:#272F17"/>
					<stop  offset="1" style="stop-color:#7A7F53"/>
				</linearGradient>
				<path fill="url(#SVGID_90_)" d="M20.782,25.91v-0.584c0-0.247-0.2-0.445-0.445-0.445h-4.335c-0.246,0-0.445,0.198-0.445,0.445
					v0.584H20.782z"/>
				
					<linearGradient id="SVGID_91_" gradientUnits="userSpaceOnUse" x1="242.6562" y1="374.8481" x2="242.6562" y2="375.9178" gradientTransform="matrix(1 0 0 1 -231 -362.5059)">
					<stop  offset="0" style="stop-color:#272F17"/>
					<stop  offset="1" style="stop-color:#7A7F53"/>
				</linearGradient>
				<rect x="1.948" y="12.468" fill="url(#SVGID_91_)" width="19.416" height="0.892"/>
				<g>
					
						<linearGradient id="SVGID_92_" gradientUnits="userSpaceOnUse" x1="247.3457" y1="371.4233" x2="250.9941" y2="371.4233" gradientTransform="matrix(1 0 0 1 -231 -362.5059)">
						<stop  offset="0" style="stop-color:#98CB59"/>
						<stop  offset="1" style="stop-color:#75AE42"/>
					</linearGradient>
					<path fill="url(#SVGID_92_)" d="M19.994,12.157V8.494L18.17,5.678l-1.824,2.815v3.663H19.994z"/>
					
						<linearGradient id="SVGID_93_" gradientUnits="userSpaceOnUse" x1="247.3457" y1="379.4302" x2="250.9941" y2="379.4302" gradientTransform="matrix(1 0 0 1 -231 -362.5059)">
						<stop  offset="0" style="stop-color:#98CB59"/>
						<stop  offset="1" style="stop-color:#75AE42"/>
					</linearGradient>
					<rect x="16.346" y="13.67" fill="url(#SVGID_93_)" width="3.647" height="6.509"/>
					
						<linearGradient id="SVGID_94_" gradientUnits="userSpaceOnUse" x1="247.3457" y1="385.6274" x2="250.9941" y2="385.6274" gradientTransform="matrix(1 0 0 1 -231 -362.5059)">
						<stop  offset="0" style="stop-color:#98CB59"/>
						<stop  offset="1" style="stop-color:#75AE42"/>
					</linearGradient>
					<rect x="16.346" y="21.689" fill="url(#SVGID_94_)" width="3.647" height="2.864"/>
				</g>
				<g>
					
						<linearGradient id="SVGID_95_" gradientUnits="userSpaceOnUse" x1="240.9629" y1="371.4233" x2="244.6104" y2="371.4233" gradientTransform="matrix(1 0 0 1 -231 -362.5059)">
						<stop  offset="0" style="stop-color:#98CB59"/>
						<stop  offset="1" style="stop-color:#75AE42"/>
					</linearGradient>
					<path fill="url(#SVGID_95_)" d="M13.61,12.157V8.494l-1.823-2.815L9.962,8.494v3.663H13.61z"/>
					
						<linearGradient id="SVGID_96_" gradientUnits="userSpaceOnUse" x1="240.9629" y1="385.6274" x2="244.6104" y2="385.6274" gradientTransform="matrix(1 0 0 1 -231 -362.5059)">
						<stop  offset="0" style="stop-color:#98CB59"/>
						<stop  offset="1" style="stop-color:#75AE42"/>
					</linearGradient>
					<rect x="9.962" y="21.689" fill="url(#SVGID_96_)" width="3.648" height="2.864"/>
					
						<linearGradient id="SVGID_97_" gradientUnits="userSpaceOnUse" x1="240.9629" y1="379.4302" x2="244.6104" y2="379.4302" gradientTransform="matrix(1 0 0 1 -231 -362.5059)">
						<stop  offset="0" style="stop-color:#98CB59"/>
						<stop  offset="1" style="stop-color:#75AE42"/>
					</linearGradient>
					<rect x="9.962" y="13.67" fill="url(#SVGID_97_)" width="3.648" height="6.509"/>
				</g>
				<g>
					
						<linearGradient id="SVGID_98_" gradientUnits="userSpaceOnUse" x1="234.5801" y1="385.6274" x2="238.2285" y2="385.6274" gradientTransform="matrix(1 0 0 1 -231 -362.5059)">
						<stop  offset="0" style="stop-color:#98CB59"/>
						<stop  offset="1" style="stop-color:#75AE42"/>
					</linearGradient>
					<rect x="3.581" y="21.689" fill="url(#SVGID_98_)" width="3.648" height="2.864"/>
					
						<linearGradient id="SVGID_99_" gradientUnits="userSpaceOnUse" x1="234.5801" y1="371.4233" x2="238.2285" y2="371.4233" gradientTransform="matrix(1 0 0 1 -231 -362.5059)">
						<stop  offset="0" style="stop-color:#98CB59"/>
						<stop  offset="1" style="stop-color:#75AE42"/>
					</linearGradient>
					<path fill="url(#SVGID_99_)" d="M7.229,12.157V8.494L5.404,5.678L3.581,8.494v3.663H7.229z"/>
					
						<linearGradient id="SVGID_100_" gradientUnits="userSpaceOnUse" x1="234.5801" y1="379.4302" x2="238.2285" y2="379.4302" gradientTransform="matrix(1 0 0 1 -231 -362.5059)">
						<stop  offset="0" style="stop-color:#98CB59"/>
						<stop  offset="1" style="stop-color:#75AE42"/>
					</linearGradient>
					<rect x="3.581" y="13.67" fill="url(#SVGID_100_)" width="3.648" height="6.509"/>
				</g>
				
					<linearGradient id="SVGID_101_" gradientUnits="userSpaceOnUse" x1="242.6562" y1="382.8716" x2="242.6562" y2="383.9365" gradientTransform="matrix(1 0 0 1 -231 -362.5059)">
					<stop  offset="0" style="stop-color:#272F17"/>
					<stop  offset="1" style="stop-color:#7A7F53"/>
				</linearGradient>
				<rect x="1.948" y="20.49" fill="url(#SVGID_101_)" width="19.416" height="0.89"/>
			</g>
		</g>
	</g>
</g>
<g id="Layer_4" display="none">
	<g id="Layer_2_2_" display="inline">
		<g>
			<g>
				
					<linearGradient id="SVGID_102_" gradientUnits="userSpaceOnUse" x1="350.2451" y1="383.3696" x2="355.0801" y2="383.3696" gradientTransform="matrix(1 0 0 1 -231 -362.5059)">
					<stop  offset="0" style="stop-color:#272F17"/>
					<stop  offset="1" style="stop-color:#7A7F53"/>
				</linearGradient>
				<rect x="119.245" y="20.369" fill="url(#SVGID_102_)" width="4.835" height="0.99"/>
				
					<linearGradient id="SVGID_103_" gradientUnits="userSpaceOnUse" x1="351.8789" y1="386.2437" x2="353.501" y2="386.2437" gradientTransform="matrix(1 0 0 1 -231 -362.5059)">
					<stop  offset="0" style="stop-color:#98CB59"/>
					<stop  offset="1" style="stop-color:#75AE42"/>
				</linearGradient>
				<polygon fill="url(#SVGID_103_)" points="122.501,25.911 120.935,25.911 120.879,21.565 122.445,21.565 				"/>
				
					<linearGradient id="SVGID_104_" gradientUnits="userSpaceOnUse" x1="349.3818" y1="380.9243" x2="355.9424" y2="380.9243" gradientTransform="matrix(1 0 0 1 -231 -362.5059)">
					<stop  offset="0" style="stop-color:#98CB59"/>
					<stop  offset="1" style="stop-color:#75AE42"/>
				</linearGradient>
				<path fill="url(#SVGID_104_)" d="M124.942,19.343c0,0.453-0.367,0.821-0.82,0.821H119.2c-0.451,0-0.818-0.368-0.818-0.821v-1.85
					c0-0.452,0.367-0.82,0.818-0.82h4.922c0.453,0,0.82,0.368,0.82,0.82V19.343z"/>
				
					<linearGradient id="SVGID_105_" gradientUnits="userSpaceOnUse" x1="350.2451" y1="378.479" x2="355.0801" y2="378.479" gradientTransform="matrix(1 0 0 1 -231 -362.5059)">
					<stop  offset="0" style="stop-color:#272F17"/>
					<stop  offset="1" style="stop-color:#7A7F53"/>
				</linearGradient>
				<rect x="119.245" y="15.478" fill="url(#SVGID_105_)" width="4.835" height="0.99"/>
				<g>
					
						<linearGradient id="SVGID_106_" gradientUnits="userSpaceOnUse" x1="359.166" y1="372.8237" x2="359.166" y2="376.2327" gradientTransform="matrix(1 0 0 1 -231 -362.5059)">
						<stop  offset="0" style="stop-color:#272F17"/>
						<stop  offset="1" style="stop-color:#7A7F53"/>
					</linearGradient>
					<path fill="url(#SVGID_106_)" d="M131.125,14.316h-1.771V13.44c0-0.128-0.104-0.233-0.234-0.233l-3.913,0.493v-3.168
						l3.913,0.905c1.42,0.308,2.006,0.898,2.006,2.003V14.316z"/>
				</g>
				
					<linearGradient id="SVGID_107_" gradientUnits="userSpaceOnUse" x1="349.3818" y1="375.0679" x2="355.9424" y2="375.0679" gradientTransform="matrix(1 0 0 1 -231 -362.5059)">
					<stop  offset="0" style="stop-color:#98CB59"/>
					<stop  offset="1" style="stop-color:#75AE42"/>
				</linearGradient>
				<path fill="url(#SVGID_107_)" d="M118.382,9.85v4.603c0,0.454,0.367,0.821,0.818,0.821h4.922c0.453,0,0.82-0.367,0.82-0.821
					V9.85H118.382z"/>
				
					<linearGradient id="SVGID_108_" gradientUnits="userSpaceOnUse" x1="347.4502" y1="365.2944" x2="347.0712" y2="367.4847" gradientTransform="matrix(1 0 0 1 -231 -362.5059)">
					<stop  offset="0" style="stop-color:#98CB59"/>
					<stop  offset="1" style="stop-color:#75AE42"/>
				</linearGradient>
				<path fill="url(#SVGID_108_)" d="M116.262,2.773c0.613,0,1.112,0.499,1.112,1.114c0,0.616-0.499,1.113-1.112,1.113
					c-0.617,0-1.114-0.498-1.114-1.113C115.147,3.272,115.645,2.773,116.262,2.773z"/>
				
					<linearGradient id="SVGID_109_" gradientUnits="userSpaceOnUse" x1="349.7852" y1="363.5688" x2="349.7852" y2="366.2074" gradientTransform="matrix(1 0 0 1 -231 -362.5059)">
					<stop  offset="0" style="stop-color:#272F17"/>
					<stop  offset="1" style="stop-color:#7A7F53"/>
				</linearGradient>
				<path fill="url(#SVGID_109_)" d="M120.247,1.574c0-0.181,0.036-0.352,0.099-0.511c-1.356,0.285-2.477,0.845-3.441,1.595
					c0.392,0.208,0.672,0.594,0.732,1.05c0.859-0.559,1.85-0.96,3.028-1.145C120.407,2.312,120.247,1.961,120.247,1.574z"/>
				
					<linearGradient id="SVGID_110_" gradientUnits="userSpaceOnUse" x1="352.8242" y1="362.9819" x2="352.4452" y2="365.1719" gradientTransform="matrix(1 0 0 1 -231 -362.5059)">
					<stop  offset="0" style="stop-color:#98CB59"/>
					<stop  offset="1" style="stop-color:#75AE42"/>
				</linearGradient>
				<circle fill="url(#SVGID_110_)" cx="121.635" cy="1.574" r="1.114"/>
				
					<linearGradient id="SVGID_111_" gradientUnits="userSpaceOnUse" x1="343.0596" y1="367.0425" x2="343.0596" y2="378.2336" gradientTransform="matrix(1 0 0 1 -231 -362.5059)">
					<stop  offset="0" style="stop-color:#272F17"/>
					<stop  offset="1" style="stop-color:#7A7F53"/>
				</linearGradient>
				<path fill="url(#SVGID_111_)" d="M115.035,4.537c-1.079,1.345-1.982,2.929-2.927,4.525c-1.132,1.999-2.317,4.003-3.874,5.529
					l0.113,1.164c1.819-1.454,3.106-3.611,4.325-5.763c1.013-1.717,1.978-3.418,3.212-4.771
					C115.518,5.118,115.212,4.868,115.035,4.537z"/>
				<g>
					
						<linearGradient id="SVGID_112_" gradientUnits="userSpaceOnUse" x1="352.7109" y1="365.4028" x2="352.7109" y2="369.0446" gradientTransform="matrix(1 0 0 1 -231 -362.5059)">
						<stop  offset="0" style="stop-color:#272F17"/>
						<stop  offset="1" style="stop-color:#7A7F53"/>
					</linearGradient>
					<path fill="url(#SVGID_112_)" d="M121.743,6.532c0.107,0,0.211,0.003,0.312,0.007V2.897c-0.133,0.042-0.273,0.064-0.42,0.064
						c-0.092,0-0.182-0.009-0.268-0.026v3.612C121.491,6.538,121.614,6.532,121.743,6.532z"/>
					
						<linearGradient id="SVGID_113_" gradientUnits="userSpaceOnUse" x1="351.4336" y1="367.0513" x2="351.4336" y2="372.0044" gradientTransform="matrix(1 0 0 1 -231 -362.5059)">
						<stop  offset="0" style="stop-color:#272F17"/>
						<stop  offset="1" style="stop-color:#7A7F53"/>
					</linearGradient>
					<path fill="url(#SVGID_113_)" d="M121.743,6.807c-1.284,0-2.39,0.565-2.39,0.565l-1.872-2.825
						c-0.237,0.434-0.694,0.728-1.223,0.728c-0.14,0-0.278-0.021-0.406-0.061c0.007,0.254,0.009,0.567,0.018,0.99
						c0.038,1.79,0.494,2.246,1.09,2.647c0.283,0.191,1.206,0.66,1.206,0.66h6.849V7.948C125.015,7.948,124.234,6.807,121.743,6.807
						z"/>
				</g>
				
					<linearGradient id="SVGID_114_" gradientUnits="userSpaceOnUse" x1="333.9912" y1="273.4644" x2="333.9912" y2="280.8101" gradientTransform="matrix(1 0 0 1 -203.8291 -258.3789)">
					<stop  offset="0" style="stop-color:#98CB59"/>
					<stop  offset="1" style="stop-color:#75AE42"/>
				</linearGradient>
				<path fill="url(#SVGID_114_)" d="M130.162,15.085c0,0-2.489,3.482-2.489,4.856c0,1.375,1.115,2.488,2.489,2.489
					c1.373-0.001,2.489-1.115,2.489-2.489S130.162,15.085,130.162,15.085z M130.162,22.054c-1.166,0-2.11-0.948-2.11-2.112
					c0-0.896,1.325-3.037,2.11-4.195c0.016,0.023,0.031,0.046,0.047,0.069c-0.744,1.2-1.531,2.651-1.531,3.362
					c0,1.23,1.002,2.232,2.232,2.232c0.339,0,0.66-0.076,0.948-0.212C131.473,21.717,130.856,22.054,130.162,22.054z"/>
				
					<linearGradient id="SVGID_115_" gradientUnits="userSpaceOnUse" x1="361.2324" y1="376.9165" x2="361.2324" y2="377.2827" gradientTransform="matrix(1 0 0 1 -231 -362.5059)">
					<stop  offset="0" style="stop-color:#98CB59"/>
					<stop  offset="1" style="stop-color:#75AE42"/>
				</linearGradient>
				<path fill="url(#SVGID_115_)" d="M131.283,14.64c0,0.075-0.062,0.137-0.136,0.137h-1.83c-0.073,0-0.135-0.062-0.135-0.137
					v-0.093c0-0.074,0.062-0.135,0.135-0.135h1.83c0.073,0,0.136,0.061,0.136,0.135V14.64z"/>
			</g>
			<g>
				
					<linearGradient id="SVGID_116_" gradientUnits="userSpaceOnUse" x1="272.3125" y1="377.9038" x2="283.418" y2="377.9038" gradientTransform="matrix(1 0 0 1 -231 -362.5059)">
					<stop  offset="0" style="stop-color:#272F17"/>
					<stop  offset="1" style="stop-color:#7A7F53"/>
				</linearGradient>
				<path fill="url(#SVGID_116_)" d="M46.493,16.241c1.994,0,3.974,0.2,5.924,0.595c-0.104-0.628-0.283-1.247-0.543-1.841
					c-0.271-0.59-1.058-1.034-1.644-1.034c-2.251,0-4.503,0-6.755,0c-0.586,0-1.374,0.444-1.645,1.034
					c-0.242,0.551-0.413,1.124-0.519,1.707C43.015,16.397,44.746,16.241,46.493,16.241z"/>
				
					<linearGradient id="SVGID_117_" gradientUnits="userSpaceOnUse" x1="269.1875" y1="387.1675" x2="269.1875" y2="385.6296" gradientTransform="matrix(1 0 0 1 -231 -362.5059)">
					<stop  offset="0" style="stop-color:#272F17"/>
					<stop  offset="1" style="stop-color:#7A7F53"/>
				</linearGradient>
				<path fill="url(#SVGID_117_)" d="M38.97,23.846c0-0.141,0.015-0.281,0.039-0.415h-1.223c-0.23,0-0.417,0.186-0.417,0.415
					c0,0.232,0.187,0.418,0.417,0.418h1.223C38.984,24.13,38.97,23.99,38.97,23.846z"/>
				
					<linearGradient id="SVGID_118_" gradientUnits="userSpaceOnUse" x1="272.3496" y1="384.3745" x2="272.3496" y2="388.4657" gradientTransform="matrix(1 0 0 1 -231 -362.5059)">
					<stop  offset="0" style="stop-color:#272F17"/>
					<stop  offset="1" style="stop-color:#7A7F53"/>
				</linearGradient>
				<path fill="url(#SVGID_118_)" d="M41.348,21.785c-1.14,0-2.062,0.924-2.062,2.062c0,1.14,0.923,2.064,2.062,2.064
					c1.139,0,2.064-0.925,2.064-2.064C43.412,22.708,42.487,21.785,41.348,21.785z M41.348,24.86c-0.559,0-1.012-0.452-1.012-1.014
					c0-0.557,0.453-1.011,1.012-1.011c0.56,0,1.013,0.454,1.013,1.011C42.36,24.407,41.907,24.86,41.348,24.86z"/>
				
					<linearGradient id="SVGID_119_" gradientUnits="userSpaceOnUse" x1="272.3486" y1="385.6372" x2="272.3486" y2="387.119" gradientTransform="matrix(1 0 0 1 -231 -362.5059)">
					<stop  offset="0" style="stop-color:#98CB59"/>
					<stop  offset="1" style="stop-color:#75AE42"/>
				</linearGradient>
				<circle fill="url(#SVGID_119_)" cx="41.348" cy="23.847" r="0.747"/>
				<g>
					
						<linearGradient id="SVGID_120_" gradientUnits="userSpaceOnUse" x1="286.5977" y1="387.1685" x2="286.5977" y2="385.6288" gradientTransform="matrix(1 0 0 1 -231 -362.5059)">
						<stop  offset="0" style="stop-color:#272F17"/>
						<stop  offset="1" style="stop-color:#7A7F53"/>
					</linearGradient>
					<path fill="url(#SVGID_120_)" d="M55.99,23.431h-1.199c0.024,0.134,0.039,0.274,0.039,0.415c0,0.144-0.015,0.284-0.039,0.419
						h1.199c0.229,0,0.416-0.186,0.416-0.419C56.406,23.617,56.22,23.431,55.99,23.431z"/>
					
						<linearGradient id="SVGID_121_" gradientUnits="userSpaceOnUse" x1="277.8994" y1="387.1675" x2="277.8994" y2="385.6296" gradientTransform="matrix(1 0 0 1 -231 -362.5059)">
						<stop  offset="0" style="stop-color:#272F17"/>
						<stop  offset="1" style="stop-color:#7A7F53"/>
					</linearGradient>
					<path fill="url(#SVGID_121_)" d="M50.113,24.264c-0.024-0.134-0.039-0.275-0.039-0.418c0-0.141,0.015-0.281,0.039-0.415h-6.426
						c0.024,0.134,0.04,0.274,0.04,0.415c0,0.143-0.015,0.284-0.04,0.418H50.113z"/>
				</g>
				
					<linearGradient id="SVGID_122_" gradientUnits="userSpaceOnUse" x1="277.8887" y1="379.2075" x2="277.8887" y2="385.6577" gradientTransform="matrix(1 0 0 1 -231 -362.5059)">
					<stop  offset="0" style="stop-color:#98CB59"/>
					<stop  offset="1" style="stop-color:#75AE42"/>
				</linearGradient>
				<path fill="url(#SVGID_122_)" d="M56.572,18.338c-6.268-2.268-13.104-2.372-19.369-0.217c-0.818,0.293-1.105,1.187-0.657,1.938
					c0.59,1.03,1.179,1.972,1.768,3.002c0.266-0.002,0.529-0.002,0.793-0.003c0.325-0.925,1.205-1.592,2.241-1.592
					c1.035,0,1.913,0.663,2.24,1.585c2.206,0.005,4.413,0.016,6.619,0.021c0.321-0.933,1.204-1.605,2.246-1.605
					c1.04,0,1.921,0.67,2.244,1.598c0.255-0.002,0.51-0.002,0.766-0.004c0.589-0.934,1.178-1.96,1.768-2.894
					C57.679,19.493,57.39,18.649,56.572,18.338z"/>
				
					<linearGradient id="SVGID_123_" gradientUnits="userSpaceOnUse" x1="283.4531" y1="384.3745" x2="283.4531" y2="388.4657" gradientTransform="matrix(1 0 0 1 -231 -362.5059)">
					<stop  offset="0" style="stop-color:#272F17"/>
					<stop  offset="1" style="stop-color:#7A7F53"/>
				</linearGradient>
				<path fill="url(#SVGID_123_)" d="M52.452,21.785c-1.139,0-2.062,0.924-2.062,2.062c0,1.14,0.923,2.064,2.062,2.064
					c1.14,0,2.063-0.925,2.063-2.064C54.516,22.708,53.592,21.785,52.452,21.785z M52.452,24.86c-0.559,0-1.013-0.452-1.013-1.014
					c0-0.557,0.454-1.011,1.013-1.011c0.56,0,1.014,0.454,1.014,1.011C53.465,24.407,53.012,24.86,52.452,24.86z"/>
				
					<linearGradient id="SVGID_124_" gradientUnits="userSpaceOnUse" x1="283.4531" y1="385.6372" x2="283.4531" y2="387.119" gradientTransform="matrix(1 0 0 1 -231 -362.5059)">
					<stop  offset="0" style="stop-color:#98CB59"/>
					<stop  offset="1" style="stop-color:#75AE42"/>
				</linearGradient>
				<circle fill="url(#SVGID_124_)" cx="52.452" cy="23.847" r="0.747"/>
				
					<linearGradient id="SVGID_125_" gradientUnits="userSpaceOnUse" x1="286.2393" y1="373.8843" x2="289.1562" y2="373.8843" gradientTransform="matrix(1 0 0 1 -231 -362.5059)">
					<stop  offset="0" style="stop-color:#272F17"/>
					<stop  offset="1" style="stop-color:#7A7F53"/>
				</linearGradient>
				<path fill="url(#SVGID_125_)" d="M58.113,5.732V4.888c-1.183,0.454-1.565,1.913-1.595,2.767l-1.279,9.909
					c0.315,0.098,0.628,0.198,0.941,0.305l1.305-10.112l0.004-0.049c0.001-0.016,0.041-1.176,0.667-1.716
					C58.128,5.91,58.113,5.823,58.113,5.732z"/>
				
					<linearGradient id="SVGID_126_" gradientUnits="userSpaceOnUse" x1="291.7568" y1="366.6606" x2="291.7568" y2="368.804" gradientTransform="matrix(1 0 0 1 -231 -362.5059)">
					<stop  offset="0" style="stop-color:#98CB59"/>
					<stop  offset="1" style="stop-color:#75AE42"/>
				</linearGradient>
				<path fill="url(#SVGID_126_)" d="M63.086,5.732c0,0.279-0.226,0.503-0.504,0.503h-3.652c-0.278,0-0.503-0.224-0.503-0.503V4.627
					c0-0.278,0.225-0.504,0.503-0.504h3.652c0.279,0,0.504,0.226,0.504,0.504V5.732z"/>
			</g>
			<g>
				
					<linearGradient id="SVGID_127_" gradientUnits="userSpaceOnUse" x1="313.6641" y1="388.5073" x2="313.6641" y2="377.157" gradientTransform="matrix(1 0 0 1 -231 -362.5059)">
					<stop  offset="0" style="stop-color:#272F17"/>
					<stop  offset="1" style="stop-color:#7A7F53"/>
				</linearGradient>
				<polygon fill="url(#SVGID_127_)" points="83.139,21.333 81.605,25.911 82.416,25.911 83.722,21.333 				"/>
				
					<linearGradient id="SVGID_128_" gradientUnits="userSpaceOnUse" x1="312.0674" y1="388.5073" x2="312.0674" y2="377.157" gradientTransform="matrix(1 0 0 1 -231 -362.5059)">
					<stop  offset="0" style="stop-color:#272F17"/>
					<stop  offset="1" style="stop-color:#7A7F53"/>
				</linearGradient>
				<polygon fill="url(#SVGID_128_)" points="81.931,21.333 79.543,25.911 80.473,25.911 82.592,21.333 				"/>
				
					<linearGradient id="SVGID_129_" gradientUnits="userSpaceOnUse" x1="315.0615" y1="388.5073" x2="315.0615" y2="377.157" gradientTransform="matrix(1 0 0 1 -231 -362.5059)">
					<stop  offset="0" style="stop-color:#272F17"/>
					<stop  offset="1" style="stop-color:#7A7F53"/>
				</linearGradient>
				<polygon fill="url(#SVGID_129_)" points="84.187,21.333 83.396,25.911 84.145,25.911 84.728,21.333 				"/>
				
					<linearGradient id="SVGID_130_" gradientUnits="userSpaceOnUse" x1="310.1016" y1="388.5073" x2="310.1016" y2="377.157" gradientTransform="matrix(1 0 0 1 -231 -362.5059)">
					<stop  offset="0" style="stop-color:#272F17"/>
					<stop  offset="1" style="stop-color:#7A7F53"/>
				</linearGradient>
				<polygon fill="url(#SVGID_130_)" points="80.423,21.333 76.977,25.911 78.123,25.911 81.227,21.333 				"/>
				
					<linearGradient id="SVGID_131_" gradientUnits="userSpaceOnUse" x1="316.4219" y1="388.5103" x2="316.4219" y2="377.1536" gradientTransform="matrix(1 0 0 1 -231 -362.5059)">
					<stop  offset="0" style="stop-color:#272F17"/>
					<stop  offset="1" style="stop-color:#7A7F53"/>
				</linearGradient>
				<path fill="url(#SVGID_131_)" d="M81.115,20.415h0.734l2.312-3.407c0.005,0.005,0.01,0.01,0.016,0.016l-1.768,3.391h0.607
					l1.461-3.159c0.008,0.005,0.016,0.009,0.023,0.013l-1.055,3.146h0.537l0.854-2.995c0.01,0.002,0.016,0.005,0.026,0.008
					l-0.517,2.987h0.5l0.371-2.915c0.007,0.001,0.014,0.002,0.021,0.003l-0.065,2.912h0.489l-0.062-2.912
					c0.007-0.002,0.016-0.002,0.024-0.003l0.372,2.915h0.5l-0.517-2.988c0.008-0.005,0.017-0.006,0.024-0.009l0.854,2.997h0.537
					l-1.055-3.148c0.008-0.004,0.015-0.008,0.021-0.014l1.464,3.162h0.607l-1.769-3.394c0.006-0.006,0.011-0.012,0.016-0.016
					l2.312,3.409h0.734l-2.804-3.729c0.108-0.197,0.171-0.418,0.171-0.651c0-0.817-0.751-1.48-1.677-1.48
					c-0.925,0-1.676,0.662-1.676,1.48c0,0.234,0.063,0.456,0.176,0.656L81.115,20.415z"/>
				
					<linearGradient id="SVGID_132_" gradientUnits="userSpaceOnUse" x1="320.7754" y1="388.5073" x2="320.7754" y2="377.157" gradientTransform="matrix(1 0 0 1 -231 -362.5059)">
					<stop  offset="0" style="stop-color:#272F17"/>
					<stop  offset="1" style="stop-color:#7A7F53"/>
				</linearGradient>
				<polygon fill="url(#SVGID_132_)" points="88.251,21.333 90.37,25.911 91.301,25.911 88.914,21.333 				"/>
				
					<linearGradient id="SVGID_133_" gradientUnits="userSpaceOnUse" x1="322.7422" y1="388.5073" x2="322.7422" y2="377.157" gradientTransform="matrix(1 0 0 1 -231 -362.5059)">
					<stop  offset="0" style="stop-color:#272F17"/>
					<stop  offset="1" style="stop-color:#7A7F53"/>
				</linearGradient>
				<polygon fill="url(#SVGID_133_)" points="90.422,21.333 89.616,21.333 92.722,25.911 93.867,25.911 				"/>
				
					<linearGradient id="SVGID_134_" gradientUnits="userSpaceOnUse" x1="319.1797" y1="388.5073" x2="319.1797" y2="377.157" gradientTransform="matrix(1 0 0 1 -231 -362.5059)">
					<stop  offset="0" style="stop-color:#272F17"/>
					<stop  offset="1" style="stop-color:#7A7F53"/>
				</linearGradient>
				<polygon fill="url(#SVGID_134_)" points="87.121,21.333 88.429,25.911 89.239,25.911 87.704,21.333 				"/>
				
					<linearGradient id="SVGID_135_" gradientUnits="userSpaceOnUse" x1="317.7812" y1="388.5073" x2="317.7812" y2="377.157" gradientTransform="matrix(1 0 0 1 -231 -362.5059)">
					<stop  offset="0" style="stop-color:#272F17"/>
					<stop  offset="1" style="stop-color:#7A7F53"/>
				</linearGradient>
				<polygon fill="url(#SVGID_135_)" points="86.115,21.333 86.698,25.911 87.447,25.911 86.656,21.333 				"/>
				
					<linearGradient id="SVGID_136_" gradientUnits="userSpaceOnUse" x1="316.4189" y1="388.5073" x2="316.4189" y2="377.157" gradientTransform="matrix(1 0 0 1 -231 -362.5059)">
					<stop  offset="0" style="stop-color:#272F17"/>
					<stop  offset="1" style="stop-color:#7A7F53"/>
				</linearGradient>
				<polygon fill="url(#SVGID_136_)" points="85.155,21.333 85.054,25.911 85.784,25.911 85.685,21.333 				"/>
				
					<linearGradient id="SVGID_137_" gradientUnits="userSpaceOnUse" x1="311.584" y1="383.3794" x2="321.2578" y2="383.3794" gradientTransform="matrix(1 0 0 1 -231 -362.5059)">
					<stop  offset="0" style="stop-color:#98CB59"/>
					<stop  offset="1" style="stop-color:#75AE42"/>
				</linearGradient>
				<polygon fill="url(#SVGID_137_)" points="90.258,21.117 80.584,21.117 80.952,20.63 89.891,20.63 				"/>
				
					<linearGradient id="SVGID_138_" gradientUnits="userSpaceOnUse" x1="315.4189" y1="369.9956" x2="317.322" y2="369.9956" gradientTransform="matrix(1 0 0 1 -231 -362.5059)">
					<stop  offset="0" style="stop-color:#98CB59"/>
					<stop  offset="1" style="stop-color:#75AE42"/>
				</linearGradient>
				<path fill="url(#SVGID_138_)" d="M85.419,14.008c0.311,0,0.607,0.06,0.877,0.165V1.319c0-0.282-0.23-0.512-0.513-0.512h-0.722
					c-0.284,0-0.513,0.23-0.513,0.512v12.85C84.816,14.065,85.111,14.008,85.419,14.008z"/>
			</g>
			<g>
				
					<linearGradient id="SVGID_139_" gradientUnits="userSpaceOnUse" x1="243.1084" y1="386.0181" x2="247.3212" y2="386.0181" gradientTransform="matrix(1 0 0 1 -231 -362.5059)">
					<stop  offset="0" style="stop-color:#272F17"/>
					<stop  offset="1" style="stop-color:#7A7F53"/>
				</linearGradient>
				<rect x="12.396" y="21.115" fill="url(#SVGID_139_)" width="3.867" height="4.796"/>
				
					<linearGradient id="SVGID_140_" gradientUnits="userSpaceOnUse" x1="243.8115" y1="382.396" x2="246.6904" y2="382.396" gradientTransform="matrix(1 0 0 1 -231 -362.5059)">
					<stop  offset="0" style="stop-color:#98CB59"/>
					<stop  offset="1" style="stop-color:#75AE42"/>
				</linearGradient>
				<rect x="13.008" y="19.122" fill="url(#SVGID_140_)" width="2.642" height="1.537"/>
				
					<linearGradient id="SVGID_141_" gradientUnits="userSpaceOnUse" x1="247.8945" y1="376.3032" x2="253.6243" y2="376.3032" gradientTransform="matrix(1 0 0 1 -231 -362.5059)">
					<stop  offset="0" style="stop-color:#98CB59"/>
					<stop  offset="1" style="stop-color:#75AE42"/>
				</linearGradient>
				<polygon fill="url(#SVGID_141_)" points="17.514,15.444 22.545,14.064 22.033,12.151 17.285,13.456 				"/>
				
					<linearGradient id="SVGID_142_" gradientUnits="userSpaceOnUse" x1="238.2393" y1="373.5454" x2="237.277" y2="378.0222" gradientTransform="matrix(1 0 0 1 -231 -362.5059)">
					<stop  offset="0" style="stop-color:#98CB59"/>
					<stop  offset="1" style="stop-color:#75AE42"/>
				</linearGradient>
				<path fill="url(#SVGID_142_)" d="M5.057,10.711c-1.332-0.357-2.67,0.32-2.988,1.511c-0.319,1.19,0.502,2.444,1.833,2.801
					c0.737,0.198,4.185,0.804,7.163,1.101l0.343-2.964C8.767,11.994,5.759,10.9,5.057,10.711z M10.64,15.595
					c-2.879-0.312-5.962-0.861-6.614-1.037c-1.073-0.286-1.742-1.279-1.492-2.212c0.025-0.093,0.059-0.183,0.101-0.269
					c-0.126,0.875,0.547,1.758,1.587,2.026c0.648,0.168,3.604,0.68,6.476,0.996L10.64,15.595z"/>
				
					<linearGradient id="SVGID_143_" gradientUnits="userSpaceOnUse" x1="242.1621" y1="376.7661" x2="248.4941" y2="376.7661" gradientTransform="matrix(1 0 0 1 -231 -362.5059)">
					<stop  offset="0" style="stop-color:#272F17"/>
					<stop  offset="1" style="stop-color:#7A7F53"/>
				</linearGradient>
				<path fill="url(#SVGID_143_)" d="M16.834,13.062c0-0.05-0.005-0.099-0.015-0.146c-0.034-1.754-1.136-3.164-2.49-3.164
					c-1.355,0-2.457,1.409-2.491,3.164c-0.01,0.047-0.015,0.096-0.015,0.146l-0.661,5.707h2.853h0.626h2.853L16.834,13.062z
					 M14.016,12.342h-1.203c0.208-0.882,0.808-1.611,1.517-1.611s1.309,0.729,1.516,1.611h-1.203H14.016z"/>
				
					<linearGradient id="SVGID_144_" gradientUnits="userSpaceOnUse" x1="431.8164" y1="91.7964" x2="431.8164" y2="97.6382" gradientTransform="matrix(-0.3396 -0.9406 0.9406 -0.3396 83.4456 450.1956)">
					<stop  offset="0" style="stop-color:#98CB59"/>
					<stop  offset="1" style="stop-color:#75AE42"/>
				</linearGradient>
				<path fill="url(#SVGID_144_)" d="M23.145,12.855c0,0,3.279,0.921,4.307,0.55c1.028-0.371,1.561-1.506,1.189-2.533
					c-0.371-1.029-1.506-1.561-2.534-1.19C25.078,10.053,23.145,12.855,23.145,12.855z M28.358,10.973
					c0.314,0.871-0.138,1.835-1.01,2.149c-0.669,0.242-2.63-0.17-3.71-0.446c0.014-0.018,0.028-0.036,0.04-0.054
					c1.099,0.233,2.396,0.43,2.928,0.239c0.921-0.332,1.401-1.353,1.068-2.274c-0.092-0.254-0.236-0.473-0.415-0.652
					C27.752,10.083,28.17,10.454,28.358,10.973z"/>
				
					<linearGradient id="SVGID_145_" gradientUnits="userSpaceOnUse" x1="257.998" y1="342.0308" x2="257.998" y2="344.3608" gradientTransform="matrix(0.9637 -0.267 0.267 0.9637 -317.6167 -248.8479)">
					<stop  offset="0" style="stop-color:#272F17"/>
					<stop  offset="1" style="stop-color:#7A7F53"/>
				</linearGradient>
				<path fill="url(#SVGID_145_)" d="M23.152,13.893c0.025,0.093-0.029,0.188-0.122,0.214l-0.141,0.04
					c-0.094,0.026-0.19-0.028-0.215-0.121l-0.53-1.908c-0.025-0.094,0.03-0.191,0.122-0.215l0.143-0.04
					c0.093-0.025,0.188,0.029,0.214,0.122L23.152,13.893z"/>
			</g>
		</g>
	</g>
</g>
</svg>
