<?xml version="1.0" encoding="utf-8"?>
<!-- Generator: Adobe Illustrator 16.0.0, SVG Export Plug-In . SVG Version: 6.00 Build 0)  -->
<!DOCTYPE svg PUBLIC "-//W3C//DTD SVG 1.1//EN" "http://www.w3.org/Graphics/SVG/1.1/DTD/svg11.dtd">
<svg version="1.1" id="Layer_1" xmlns="http://www.w3.org/2000/svg" xmlns:xlink="http://www.w3.org/1999/xlink" x="0px" y="0px"
	 width="612px" height="792px" viewBox="0 0 612 792" enable-background="new 0 0 612 792" xml:space="preserve">
<g>
	<g>
		
			<linearGradient id="SVGID_1_" gradientUnits="userSpaceOnUse" x1="460.8662" y1="399.3926" x2="473.6035" y2="399.3926" gradientTransform="matrix(1 0 -0.0459 1 30.8779 0)">
			<stop  offset="0" style="stop-color:#242E09"/>
			<stop  offset="1" style="stop-color:#797F52"/>
		</linearGradient>
		<path fill="url(#SVGID_1_)" d="M484.629,432.537c-7.612-21.502-10.835-44.246-9.225-66.288c-2.7,21.425-0.75,44.155,5.797,66.288
			H484.629z"/>
		
			<linearGradient id="SVGID_2_" gradientUnits="userSpaceOnUse" x1="452.3867" y1="399.3926" x2="465.4648" y2="399.3926" gradientTransform="matrix(1 0 -0.0921 1 61.7744 0)">
			<stop  offset="0" style="stop-color:#97CB59"/>
			<stop  offset="1" style="stop-color:#75AE39"/>
		</linearGradient>
		<path fill="url(#SVGID_2_)" d="M487.402,432.537c-6.752-21.502-9.064-44.246-6.574-66.288
			c-3.556,21.425-2.514,44.155,3.148,66.288H487.402z"/>
		
			<linearGradient id="SVGID_3_" gradientUnits="userSpaceOnUse" x1="426.4355" y1="399.3926" x2="440.3613" y2="399.3926" gradientTransform="matrix(1 0 -0.2042 1 138.0063 0)">
			<stop  offset="0" style="stop-color:#242E09"/>
			<stop  offset="1" style="stop-color:#797F52"/>
		</linearGradient>
		<path fill="url(#SVGID_3_)" d="M490.044,432.537c-4.665-21.502-4.768-44.246-0.138-66.288
			c-5.637,21.425-6.801,44.155-3.291,66.288H490.044z"/>
		
			<linearGradient id="SVGID_4_" gradientUnits="userSpaceOnUse" x1="432.1113" y1="399.3926" x2="445.9746" y2="399.3926" gradientTransform="matrix(1 0 -0.1954 1 131.562 0)">
			<stop  offset="0" style="stop-color:#97CB59"/>
			<stop  offset="1" style="stop-color:#75AE39"/>
		</linearGradient>
		<path fill="url(#SVGID_4_)" d="M493.019,432.537c-4.83-21.502-5.109-44.246-0.648-66.288c-5.47,21.425-6.461,44.155-2.78,66.288
			H493.019z"/>
		
			<linearGradient id="SVGID_5_" gradientUnits="userSpaceOnUse" x1="431.6279" y1="399.3926" x2="445.5762" y2="399.3926" gradientTransform="matrix(1 0 -0.2068 1 139.5659 0)">
			<stop  offset="0" style="stop-color:#242E09"/>
			<stop  offset="1" style="stop-color:#797F52"/>
		</linearGradient>
		<path fill="url(#SVGID_5_)" d="M495.693,432.537c-4.617-21.502-4.671-44.246,0.01-66.288c-5.684,21.425-6.899,44.155-3.438,66.288
			H495.693z"/>
		
			<linearGradient id="SVGID_6_" gradientUnits="userSpaceOnUse" x1="407.0449" y1="399.3926" x2="421.8047" y2="399.3926" gradientTransform="matrix(1 0 -0.3097 1 208.9507 0)">
			<stop  offset="0" style="stop-color:#97CB59"/>
			<stop  offset="1" style="stop-color:#75AE39"/>
		</linearGradient>
		<path fill="url(#SVGID_6_)" d="M496.799,432.537c-2.701-21.502-0.729-44.246,5.914-66.288
			c-7.591,21.425-10.833,44.155-9.342,66.288H496.799z"/>
		<g>
			
				<linearGradient id="SVGID_7_" gradientUnits="userSpaceOnUse" x1="424.5732" y1="399.3926" x2="438.8613" y2="399.3926" gradientTransform="matrix(1 0 -0.2504 1 168.9307 0)">
				<stop  offset="0" style="stop-color:#242E09"/>
				<stop  offset="1" style="stop-color:#797F52"/>
			</linearGradient>
			<path fill="url(#SVGID_7_)" d="M499.485,432.537c-3.806-21.502-3-44.246,2.511-66.288c-6.492,21.425-8.565,44.155-5.939,66.288
				H499.485z"/>
			
				<linearGradient id="SVGID_8_" gradientUnits="userSpaceOnUse" x1="416.0654" y1="399.3926" x2="430.7227" y2="399.3926" gradientTransform="matrix(1 0 -0.2966 1 199.8271 0)">
				<stop  offset="0" style="stop-color:#242E09"/>
				<stop  offset="1" style="stop-color:#797F52"/>
			</linearGradient>
			<path fill="url(#SVGID_8_)" d="M502.26,432.537c-2.945-21.502-1.231-44.246,5.16-66.288c-7.348,21.425-10.33,44.155-8.588,66.288
				H502.26z"/>
			
				<linearGradient id="SVGID_9_" gradientUnits="userSpaceOnUse" x1="390.8691" y1="399.3926" x2="406.4414" y2="399.3926" gradientTransform="matrix(1 0 -0.4088 1 275.2812 0)">
				<stop  offset="0" style="stop-color:#97CB59"/>
				<stop  offset="1" style="stop-color:#75AE39"/>
			</linearGradient>
			<path fill="url(#SVGID_9_)" d="M504.901,432.537c-0.859-21.502,3.065-44.246,11.597-66.288
				c-9.429,21.425-14.616,44.155-15.024,66.288H504.901z"/>
			
				<linearGradient id="SVGID_10_" gradientUnits="userSpaceOnUse" x1="395.7344" y1="399.3926" x2="411.2324" y2="399.3926" gradientTransform="matrix(1 0 -0.3999 1 269.6147 0)">
				<stop  offset="0" style="stop-color:#97CB59"/>
				<stop  offset="1" style="stop-color:#75AE39"/>
			</linearGradient>
			<path fill="url(#SVGID_10_)" d="M507.876,432.537c-1.023-21.502,2.725-44.246,11.087-66.288
				c-9.263,21.425-14.278,44.155-14.516,66.288H507.876z"/>
			
				<linearGradient id="SVGID_11_" gradientUnits="userSpaceOnUse" x1="395.2451" y1="399.3926" x2="410.834" y2="399.3926" gradientTransform="matrix(1 0 -0.4113 1 277.6191 0)">
				<stop  offset="0" style="stop-color:#242E09"/>
				<stop  offset="1" style="stop-color:#797F52"/>
			</linearGradient>
			<path fill="url(#SVGID_11_)" d="M510.55,432.537c-0.811-21.502,3.164-44.246,11.745-66.288
				c-9.477,21.425-14.717,44.155-15.173,66.288H510.55z"/>
			
				<linearGradient id="SVGID_12_" gradientUnits="userSpaceOnUse" x1="370.6045" y1="399.3926" x2="387.0605" y2="399.3926" gradientTransform="matrix(1 0 -0.5142 1 347.0042 0)">
				<stop  offset="0" style="stop-color:#97CB59"/>
				<stop  offset="1" style="stop-color:#75AE39"/>
			</linearGradient>
			<path fill="url(#SVGID_12_)" d="M511.655,432.537c1.106-21.502,7.105-44.246,17.649-66.288
				c-11.383,21.425-18.649,44.155-21.077,66.288H511.655z"/>
		</g>
		
			<linearGradient id="SVGID_13_" gradientUnits="userSpaceOnUse" x1="488.4062" y1="399.3926" x2="501.1406" y2="399.3926" gradientTransform="matrix(1 0 -0.0459 1 30.8779 0)">
			<stop  offset="0" style="stop-color:#97CB59"/>
			<stop  offset="1" style="stop-color:#75AE39"/>
		</linearGradient>
		<path fill="url(#SVGID_13_)" d="M512.166,432.537c-7.612-21.502-10.833-44.246-9.224-66.288
			c-2.697,21.425-0.749,44.155,5.797,66.288H512.166z"/>
		
			<linearGradient id="SVGID_14_" gradientUnits="userSpaceOnUse" x1="479.9258" y1="399.3926" x2="493.0049" y2="399.3926" gradientTransform="matrix(1 0 -0.0921 1 61.7744 0)">
			<stop  offset="0" style="stop-color:#97CB59"/>
			<stop  offset="1" style="stop-color:#75AE39"/>
		</linearGradient>
		<path fill="url(#SVGID_14_)" d="M514.942,432.537c-6.754-21.502-9.065-44.246-6.575-66.288
			c-3.556,21.425-2.513,44.155,3.147,66.288H514.942z"/>
		
			<linearGradient id="SVGID_15_" gradientUnits="userSpaceOnUse" x1="453.9746" y1="399.3926" x2="467.9004" y2="399.3926" gradientTransform="matrix(1 0 -0.2042 1 138.0063 0)">
			<stop  offset="0" style="stop-color:#242E09"/>
			<stop  offset="1" style="stop-color:#797F52"/>
		</linearGradient>
		<path fill="url(#SVGID_15_)" d="M517.583,432.537c-4.664-21.502-4.769-44.246-0.139-66.288
			c-5.635,21.425-6.801,44.155-3.289,66.288H517.583z"/>
		
			<linearGradient id="SVGID_16_" gradientUnits="userSpaceOnUse" x1="459.6514" y1="399.3926" x2="473.5127" y2="399.3926" gradientTransform="matrix(1 0 -0.1954 1 131.562 0)">
			<stop  offset="0" style="stop-color:#97CB59"/>
			<stop  offset="1" style="stop-color:#75AE39"/>
		</linearGradient>
		<path fill="url(#SVGID_16_)" d="M520.557,432.537c-4.83-21.502-5.108-44.246-0.646-66.288c-5.471,21.425-6.462,44.155-2.78,66.288
			H520.557z"/>
		
			<linearGradient id="SVGID_17_" gradientUnits="userSpaceOnUse" x1="459.167" y1="399.3926" x2="473.1152" y2="399.3926" gradientTransform="matrix(1 0 -0.2068 1 139.5659 0)">
			<stop  offset="0" style="stop-color:#242E09"/>
			<stop  offset="1" style="stop-color:#797F52"/>
		</linearGradient>
		<path fill="url(#SVGID_17_)" d="M523.232,432.537c-4.616-21.502-4.671-44.246,0.01-66.288c-5.684,21.425-6.9,44.155-3.438,66.288
			H523.232z"/>
		
			<linearGradient id="SVGID_18_" gradientUnits="userSpaceOnUse" x1="434.584" y1="399.3926" x2="449.3438" y2="399.3926" gradientTransform="matrix(1 0 -0.3097 1 208.9507 0)">
			<stop  offset="0" style="stop-color:#97CB59"/>
			<stop  offset="1" style="stop-color:#75AE39"/>
		</linearGradient>
		<path fill="url(#SVGID_18_)" d="M524.338,432.537c-2.701-21.502-0.729-44.246,5.914-66.288
			c-7.591,21.425-10.832,44.155-9.341,66.288H524.338z"/>
		<g>
			
				<linearGradient id="SVGID_19_" gradientUnits="userSpaceOnUse" x1="452.1123" y1="399.3926" x2="466.4004" y2="399.3926" gradientTransform="matrix(1 0 -0.2504 1 168.9307 0)">
				<stop  offset="0" style="stop-color:#242E09"/>
				<stop  offset="1" style="stop-color:#797F52"/>
			</linearGradient>
			<path fill="url(#SVGID_19_)" d="M527.024,432.537c-3.806-21.502-3.001-44.246,2.511-66.288
				c-6.49,21.425-8.564,44.155-5.938,66.288H527.024z"/>
			
				<linearGradient id="SVGID_20_" gradientUnits="userSpaceOnUse" x1="443.6045" y1="399.3926" x2="458.2617" y2="399.3926" gradientTransform="matrix(1 0 -0.2966 1 199.8271 0)">
				<stop  offset="0" style="stop-color:#242E09"/>
				<stop  offset="1" style="stop-color:#797F52"/>
			</linearGradient>
			<path fill="url(#SVGID_20_)" d="M529.799,432.537c-2.945-21.502-1.231-44.246,5.16-66.288
				c-7.348,21.425-10.33,44.155-8.587,66.288H529.799z"/>
			
				<linearGradient id="SVGID_21_" gradientUnits="userSpaceOnUse" x1="418.4082" y1="399.3926" x2="433.9814" y2="399.3926" gradientTransform="matrix(1 0 -0.4088 1 275.2812 0)">
				<stop  offset="0" style="stop-color:#97CB59"/>
				<stop  offset="1" style="stop-color:#75AE39"/>
			</linearGradient>
			<path fill="url(#SVGID_21_)" d="M532.441,432.537c-0.86-21.502,3.064-44.246,11.596-66.288
				c-9.428,21.425-14.618,44.155-15.024,66.288H532.441z"/>
			
				<linearGradient id="SVGID_22_" gradientUnits="userSpaceOnUse" x1="423.2754" y1="399.3926" x2="438.7695" y2="399.3926" gradientTransform="matrix(1 0 -0.3999 1 269.6147 0)">
				<stop  offset="0" style="stop-color:#97CB59"/>
				<stop  offset="1" style="stop-color:#75AE39"/>
			</linearGradient>
			<path fill="url(#SVGID_22_)" d="M535.414,432.537c-1.022-21.502,2.725-44.246,11.089-66.288
				c-9.264,21.425-14.279,44.155-14.516,66.288H535.414z"/>
			
				<linearGradient id="SVGID_23_" gradientUnits="userSpaceOnUse" x1="422.7842" y1="399.3926" x2="438.373" y2="399.3926" gradientTransform="matrix(1 0 -0.4113 1 277.6191 0)">
				<stop  offset="0" style="stop-color:#242E09"/>
				<stop  offset="1" style="stop-color:#797F52"/>
			</linearGradient>
			<path fill="url(#SVGID_23_)" d="M538.089,432.537c-0.811-21.502,3.163-44.246,11.746-66.288
				c-9.477,21.425-14.718,44.155-15.174,66.288H538.089z"/>
			
				<linearGradient id="SVGID_24_" gradientUnits="userSpaceOnUse" x1="398.1445" y1="399.3926" x2="414.6016" y2="399.3926" gradientTransform="matrix(1 0 -0.5142 1 347.0042 0)">
				<stop  offset="0" style="stop-color:#97CB59"/>
				<stop  offset="1" style="stop-color:#75AE39"/>
			</linearGradient>
			<path fill="url(#SVGID_24_)" d="M539.195,432.537c1.104-21.502,7.104-44.246,17.649-66.288
				c-11.385,21.425-18.649,44.155-21.076,66.288H539.195z"/>
		</g>
		<linearGradient id="SVGID_25_" gradientUnits="userSpaceOnUse" x1="471.8516" y1="436.3174" x2="546.8623" y2="436.3174">
			<stop  offset="0" style="stop-color:#242E09"/>
			<stop  offset="1" style="stop-color:#797F52"/>
		</linearGradient>
		<path fill="url(#SVGID_25_)" d="M471.852,441.131l1.82-3.568l3.153-1.783l2.434-3.242l4.307-0.922c0,0,25.71,0,43.385,0
			c0.842,0,1.666,0,2.458,0c6.918-0.297,14.82-0.741,17.454,9.514c-5.597,0-11.525,0-16.995,0c-0.783,0-1.586,0-2.4,0
			c-11.064,0-24.55,0-35.757,0c-0.746,0-1.482,0-2.208,0c-5.559,0-11.486,0-17.02,0.002
			C471.852,441.131,473.562,441.131,471.852,441.131z"/>
	</g>
	<g>
		<linearGradient id="SVGID_26_" gradientUnits="userSpaceOnUse" x1="176.1792" y1="425.3965" x2="207.6011" y2="425.3965">
			<stop  offset="0" style="stop-color:#97CB59"/>
			<stop  offset="1" style="stop-color:#75AE39"/>
		</linearGradient>
		<path fill="url(#SVGID_26_)" d="M191.89,409.687c-8.677,0-15.71,7.033-15.71,15.71c0,8.678,7.034,15.711,15.71,15.711
			c8.677,0,15.711-7.033,15.711-15.711C207.601,416.72,200.567,409.687,191.89,409.687z M193.854,437.266v-7.566
			c-0.6,0.271-1.263,0.425-1.965,0.425c-0.701,0-1.364-0.154-1.964-0.425v7.566c-5.071-0.833-9.072-4.833-9.905-9.906h7.541
			c-0.286-0.613-0.45-1.293-0.45-2.015c0-0.681,0.144-1.327,0.4-1.911h-7.491c0.833-5.072,4.834-9.074,9.905-9.908v7.465
			c0.6-0.27,1.263-0.424,1.964-0.424c0.702,0,1.365,0.154,1.965,0.424v-7.465c5.07,0.834,9.072,4.836,9.905,9.908h-7.491
			c0.256,0.584,0.401,1.23,0.401,1.911c0,0.722-0.165,1.401-0.45,2.015h7.54C202.926,432.433,198.925,436.433,193.854,437.266z"/>
		<linearGradient id="SVGID_27_" gradientUnits="userSpaceOnUse" x1="188.1089" y1="425.3965" x2="195.6719" y2="425.3965">
			<stop  offset="0" style="stop-color:#242E09"/>
			<stop  offset="1" style="stop-color:#797F52"/>
		</linearGradient>
		<path fill="url(#SVGID_27_)" d="M191.89,421.615c-2.088,0-3.781,1.693-3.781,3.781s1.693,3.781,3.781,3.781
			c2.089,0,3.782-1.693,3.782-3.781S193.979,421.615,191.89,421.615z M191.89,427.018c-0.896,0-1.621-0.727-1.621-1.621
			c0-0.896,0.725-1.622,1.621-1.622s1.622,0.726,1.622,1.622C193.511,426.291,192.785,427.018,191.89,427.018z"/>
		<linearGradient id="SVGID_28_" gradientUnits="userSpaceOnUse" x1="190.6899" y1="425.3955" x2="193.0903" y2="425.3955">
			<stop  offset="0" style="stop-color:#97CB59"/>
			<stop  offset="1" style="stop-color:#75AE39"/>
		</linearGradient>
		<circle fill="url(#SVGID_28_)" cx="191.89" cy="425.396" r="1.2"/>
		<linearGradient id="SVGID_29_" gradientUnits="userSpaceOnUse" x1="282.2876" y1="387.6113" x2="282.2876" y2="395.3518">
			<stop  offset="0" style="stop-color:#97CB59"/>
			<stop  offset="1" style="stop-color:#75AE39"/>
		</linearGradient>
		<path fill="url(#SVGID_29_)" d="M289.8,392.906c0,1.021-0.828,1.852-1.851,1.852h-11.321c-1.023,0-1.853-0.83-1.853-1.852v-3.277
			c0-1.021,0.83-1.854,1.853-1.854h11.321c1.023,0,1.851,0.832,1.851,1.854V392.906z"/>
		<linearGradient id="SVGID_30_" gradientUnits="userSpaceOnUse" x1="268.9053" y1="391.2681" x2="273.2646" y2="391.2681">
			<stop  offset="0" style="stop-color:#242E09"/>
			<stop  offset="1" style="stop-color:#797F52"/>
		</linearGradient>
		<path fill="url(#SVGID_30_)" d="M273.249,392.906v-3.277c0-0.053,0.014-0.104,0.016-0.155h-3.188l-1.171,3.589h4.359
			C273.263,393.012,273.249,392.959,273.249,392.906z"/>
		<linearGradient id="SVGID_31_" gradientUnits="userSpaceOnUse" x1="238.0742" y1="429.4639" x2="258.9849" y2="429.4639">
			<stop  offset="0" style="stop-color:#242E09"/>
			<stop  offset="1" style="stop-color:#797F52"/>
		</linearGradient>
		<path fill="url(#SVGID_31_)" d="M254.92,418.486l-5.893,16.355l-7.242-14.129l-3.711,0.629l9.645,18.812
			c0.309,0.602,0.927,0.977,1.597,0.977c0.039,0,0.077-0.002,0.116-0.004c0.713-0.045,1.332-0.51,1.573-1.184l7.98-22.146
			L254.92,418.486z"/>
		<g>
			<linearGradient id="SVGID_32_" gradientUnits="userSpaceOnUse" x1="190.0952" y1="404.8574" x2="193.6846" y2="404.8574">
				<stop  offset="0" style="stop-color:#242E09"/>
				<stop  offset="1" style="stop-color:#797F52"/>
			</linearGradient>
			<path fill="url(#SVGID_32_)" d="M191.89,408.158c0.606,0,1.205,0.033,1.795,0.095v-3.783l-3.589-3.008v6.791
				C190.686,408.191,191.284,408.158,191.89,408.158z"/>
			<linearGradient id="SVGID_33_" gradientUnits="userSpaceOnUse" x1="207.7446" y1="419.9795" x2="212.8491" y2="419.9795">
				<stop  offset="0" style="stop-color:#242E09"/>
				<stop  offset="1" style="stop-color:#797F52"/>
			</linearGradient>
			<path fill="url(#SVGID_33_)" d="M209.698,417.889l-1.954,0.747c0.467,1.089,0.823,2.241,1.059,3.435l4.046-1.538L209.698,417.889
				z"/>
		</g>
		<linearGradient id="SVGID_34_" gradientUnits="userSpaceOnUse" x1="222.7173" y1="422.9434" x2="222.7173" y2="388.5703">
			<stop  offset="0" style="stop-color:#97CB59"/>
			<stop  offset="1" style="stop-color:#75AE39"/>
		</linearGradient>
		<polygon fill="url(#SVGID_34_)" points="259.786,416.115 218.34,423.139 176.512,388.088 268.922,388.088 		"/>
		<linearGradient id="SVGID_35_" gradientUnits="userSpaceOnUse" x1="186.9316" y1="382.5225" x2="261.436" y2="382.5225">
			<stop  offset="0" style="stop-color:#242E09"/>
			<stop  offset="1" style="stop-color:#797F52"/>
		</linearGradient>
		<path fill="url(#SVGID_35_)" d="M186.932,386.842h74.504c0,0-13.634-5.76-15.17-5.76s-8.192,0-8.192,0l-6.594-2.879
			c0,0-7.296,1.918-7.296,2.112c0,0.192-8.641,0.384-8.641,0.384l-9.601,1.825h-7.298L186.932,386.842z"/>
	</g>
	<g>
		
			<linearGradient id="SVGID_36_" gradientUnits="userSpaceOnUse" x1="127.793" y1="685.752" x2="141.9092" y2="685.752" gradientTransform="matrix(0 1 -1 0 1075.8945 226.0566)">
			<stop  offset="0" style="stop-color:#97CB59"/>
			<stop  offset="1" style="stop-color:#75AE39"/>
		</linearGradient>
		<polygon fill="url(#SVGID_36_)" points="401.499,363.824 401.499,362.137 401.498,359.678 401.498,357.995 378.785,353.85 
			378.785,359.678 378.785,362.137 378.785,367.966 		"/>
		
			<linearGradient id="SVGID_37_" gradientUnits="userSpaceOnUse" x1="126.334" y1="698.8037" x2="143.3701" y2="698.8037" gradientTransform="matrix(0 1 -1 0 1075.8945 226.0566)">
			<stop  offset="0" style="stop-color:#242E09"/>
			<stop  offset="1" style="stop-color:#797F52"/>
		</linearGradient>
		<path fill="url(#SVGID_37_)" d="M376.849,369.427c-0.39,0-0.702-0.315-0.702-0.702v-15.63c0-0.39,0.312-0.704,0.703-0.704h0.482
			c0.388,0,0.703,0.314,0.703,0.704v15.63c0,0.387-0.315,0.702-0.702,0.702H376.849z"/>
		
			<linearGradient id="SVGID_38_" gradientUnits="userSpaceOnUse" x1="126.334" y1="708.1523" x2="143.3701" y2="708.1523" gradientTransform="matrix(0 1 -1 0 1075.8945 226.0566)">
			<stop  offset="0" style="stop-color:#242E09"/>
			<stop  offset="1" style="stop-color:#797F52"/>
		</linearGradient>
		<path fill="url(#SVGID_38_)" d="M367.5,369.427c-0.389,0-0.702-0.315-0.702-0.703v-15.632c0-0.387,0.313-0.701,0.702-0.701h0.482
			c0.389,0,0.703,0.314,0.703,0.704v15.63c0,0.387-0.314,0.702-0.703,0.702H367.5z"/>
		
			<linearGradient id="SVGID_39_" gradientUnits="userSpaceOnUse" x1="127.793" y1="703.4785" x2="141.9092" y2="703.4785" gradientTransform="matrix(0 1 -1 0 1075.8945 226.0566)">
			<stop  offset="0" style="stop-color:#97CB59"/>
			<stop  offset="1" style="stop-color:#75AE39"/>
		</linearGradient>
		<rect x="369.436" y="353.85" fill="url(#SVGID_39_)" width="5.961" height="14.116"/>
		
			<linearGradient id="SVGID_40_" gradientUnits="userSpaceOnUse" x1="128.0645" y1="714.5146" x2="141.6387" y2="714.5146" gradientTransform="matrix(0 1 -1 0 1075.8945 226.0566)">
			<stop  offset="0" style="stop-color:#242E09"/>
			<stop  offset="1" style="stop-color:#797F52"/>
		</linearGradient>
		<path fill="url(#SVGID_40_)" d="M365.815,354.121h-5.069c-2.1,0-3.802,1.703-3.802,3.803v5.969c0,2.1,1.702,3.803,3.802,3.803
			h5.069V354.121z"/>
		<g>
			<linearGradient id="SVGID_41_" gradientUnits="userSpaceOnUse" x1="356.2607" y1="385.8945" x2="356.2607" y2="441.1313">
				<stop  offset="0" style="stop-color:#242E09"/>
				<stop  offset="1" style="stop-color:#797F52"/>
			</linearGradient>
			<path fill="url(#SVGID_41_)" d="M359.39,438.857c0,1.258-1.019,2.273-2.275,2.273h-1.709c-1.256,0-2.273-1.016-2.273-2.273
				V388.17c0-1.258,1.018-2.275,2.273-2.275h1.709c1.257,0,2.275,1.018,2.275,2.275V438.857z"/>
			<linearGradient id="SVGID_42_" gradientUnits="userSpaceOnUse" x1="415.4395" y1="385.8945" x2="415.4395" y2="441.1313">
				<stop  offset="0" style="stop-color:#242E09"/>
				<stop  offset="1" style="stop-color:#797F52"/>
			</linearGradient>
			<path fill="url(#SVGID_42_)" d="M418.569,438.857c0,1.258-1.019,2.273-2.273,2.273h-1.711c-1.256,0-2.274-1.016-2.274-2.273
				V388.17c0-1.258,1.019-2.275,2.274-2.275h1.711c1.255,0,2.273,1.018,2.273,2.275V438.857z"/>
		</g>
		<linearGradient id="SVGID_43_" gradientUnits="userSpaceOnUse" x1="385.8516" y1="395.3594" x2="385.8516" y2="431.6685">
			<stop  offset="0" style="stop-color:#242E09"/>
			<stop  offset="1" style="stop-color:#797F52"/>
		</linearGradient>
		<rect x="361.393" y="395.359" fill="url(#SVGID_43_)" width="48.917" height="36.309"/>
		<g>
			<linearGradient id="SVGID_44_" gradientUnits="userSpaceOnUse" x1="344.2744" y1="413.5137" x2="344.5211" y2="413.5137">
				<stop  offset="0" style="stop-color:#97CB59"/>
				<stop  offset="1" style="stop-color:#75AE39"/>
			</linearGradient>
			<path fill="url(#SVGID_44_)" d="M368.425,435.245c0,0.979-0.794,1.774-1.775,1.774h-1.337c-0.98,0-1.776-0.795-1.776-1.774
				v-43.462c0-0.981,0.796-1.775,1.776-1.775h1.337c0.981,0,1.775,0.794,1.775,1.775V435.245z"/>
			<linearGradient id="SVGID_45_" gradientUnits="userSpaceOnUse" x1="344.2705" y1="413.5137" x2="344.5172" y2="413.5137">
				<stop  offset="0" style="stop-color:#97CB59"/>
				<stop  offset="1" style="stop-color:#75AE39"/>
			</linearGradient>
			<path fill="url(#SVGID_45_)" d="M376.145,435.245c0,0.979-0.795,1.774-1.776,1.774h-1.337c-0.98,0-1.776-0.795-1.776-1.774
				v-43.462c0-0.981,0.796-1.775,1.776-1.775h1.337c0.981,0,1.776,0.794,1.776,1.775V435.245z"/>
			<linearGradient id="SVGID_46_" gradientUnits="userSpaceOnUse" x1="344.2725" y1="413.5137" x2="344.5192" y2="413.5137">
				<stop  offset="0" style="stop-color:#97CB59"/>
				<stop  offset="1" style="stop-color:#75AE39"/>
			</linearGradient>
			<path fill="url(#SVGID_46_)" d="M383.864,435.245c0,0.979-0.795,1.774-1.776,1.774h-1.337c-0.98,0-1.776-0.795-1.776-1.774
				v-43.462c0-0.981,0.796-1.775,1.776-1.775h1.337c0.981,0,1.776,0.794,1.776,1.775V435.245z"/>
			<linearGradient id="SVGID_47_" gradientUnits="userSpaceOnUse" x1="344.2734" y1="413.5137" x2="344.5201" y2="413.5137">
				<stop  offset="0" style="stop-color:#97CB59"/>
				<stop  offset="1" style="stop-color:#75AE39"/>
			</linearGradient>
			<path fill="url(#SVGID_47_)" d="M391.584,435.245c0,0.979-0.795,1.774-1.776,1.774h-1.336c-0.983,0-1.777-0.795-1.777-1.774
				v-43.462c0-0.981,0.794-1.775,1.777-1.775h1.336c0.981,0,1.776,0.794,1.776,1.775V435.245z"/>
			<linearGradient id="SVGID_48_" gradientUnits="userSpaceOnUse" x1="344.2637" y1="413.5137" x2="344.5104" y2="413.5137">
				<stop  offset="0" style="stop-color:#97CB59"/>
				<stop  offset="1" style="stop-color:#75AE39"/>
			</linearGradient>
			<path fill="url(#SVGID_48_)" d="M399.304,435.245c0,0.979-0.795,1.774-1.778,1.774h-1.336c-0.981,0-1.776-0.795-1.776-1.774
				v-43.462c0-0.981,0.795-1.775,1.776-1.775h1.336c0.983,0,1.778,0.794,1.778,1.775V435.245z"/>
			<linearGradient id="SVGID_49_" gradientUnits="userSpaceOnUse" x1="344.2627" y1="413.5137" x2="344.5094" y2="413.5137">
				<stop  offset="0" style="stop-color:#97CB59"/>
				<stop  offset="1" style="stop-color:#75AE39"/>
			</linearGradient>
			<path fill="url(#SVGID_49_)" d="M407.023,435.245c0,0.979-0.797,1.774-1.777,1.774h-1.337c-0.981,0-1.776-0.795-1.776-1.774
				v-43.462c0-0.981,0.795-1.775,1.776-1.775h1.337c0.98,0,1.777,0.794,1.777,1.775V435.245z"/>
		</g>
		<g>
			<linearGradient id="SVGID_50_" gradientUnits="userSpaceOnUse" x1="322.5107" y1="387.2114" x2="354.9697" y2="387.2114">
				<stop  offset="0" style="stop-color:#97CB59"/>
				<stop  offset="1" style="stop-color:#75AE39"/>
			</linearGradient>
			<path fill="url(#SVGID_50_)" d="M351.157,415.857c-15.795,0-28.646-12.85-28.646-28.646s12.852-28.646,28.646-28.646h3.812v4.688
				h-3.812c-13.211,0-23.958,10.746-23.958,23.959c0,13.21,10.747,23.958,23.958,23.958V415.857z"/>
		</g>
		
			<linearGradient id="SVGID_51_" gradientUnits="userSpaceOnUse" x1="578.6582" y1="357.0913" x2="578.6582" y2="382.2017" gradientTransform="matrix(0.7071 -0.7071 0.7071 0.7071 -257.0898 516.5229)">
			<stop  offset="0" style="stop-color:#97CB59"/>
			<stop  offset="1" style="stop-color:#75AE39"/>
		</linearGradient>
		<path fill="url(#SVGID_51_)" d="M404.578,359.854c0,0,2.406,14.434,5.728,17.756c3.321,3.32,8.707,3.32,12.029,0
			c3.32-3.322,3.32-8.706,0-12.027C419.013,362.262,404.578,359.854,404.578,359.854z M421.423,376.699
			c-2.814,2.812-7.392,2.812-10.205,0c-2.166-2.167-4.14-10.546-5.042-15.248c0.095,0.019,0.192,0.039,0.288,0.057
			c1.099,4.695,2.7,10.107,4.419,11.826c2.974,2.975,7.815,2.975,10.792,0c0.819-0.82,1.411-1.781,1.778-2.805
			C423.776,372.713,423.101,375.02,421.423,376.699z"/>
	</g>
	<g>
		<linearGradient id="SVGID_52_" gradientUnits="userSpaceOnUse" x1="57.9878" y1="439.1367" x2="78.2134" y2="439.1367">
			<stop  offset="0" style="stop-color:#242E09"/>
			<stop  offset="1" style="stop-color:#797F52"/>
		</linearGradient>
		<path fill="url(#SVGID_52_)" d="M78.213,441.131v-2.266c0-0.951-0.77-1.723-1.72-1.723H59.708c-0.95,0-1.72,0.771-1.72,1.723
			v2.266H78.213z"/>
		<linearGradient id="SVGID_53_" gradientUnits="userSpaceOnUse" x1="82.7051" y1="439.1367" x2="102.9307" y2="439.1367">
			<stop  offset="0" style="stop-color:#242E09"/>
			<stop  offset="1" style="stop-color:#797F52"/>
		</linearGradient>
		<path fill="url(#SVGID_53_)" d="M102.931,441.131v-2.266c0-0.951-0.77-1.723-1.72-1.723H84.425c-0.95,0-1.72,0.771-1.72,1.723
			v2.266H102.931z"/>
		<linearGradient id="SVGID_54_" gradientUnits="userSpaceOnUse" x1="107.4219" y1="439.1367" x2="127.6475" y2="439.1367">
			<stop  offset="0" style="stop-color:#242E09"/>
			<stop  offset="1" style="stop-color:#797F52"/>
		</linearGradient>
		<path fill="url(#SVGID_54_)" d="M127.647,441.131v-2.266c0-0.951-0.77-1.723-1.72-1.723h-16.786c-0.95,0-1.72,0.771-1.72,1.723
			v2.266H127.647z"/>
		<linearGradient id="SVGID_55_" gradientUnits="userSpaceOnUse" x1="92.311" y1="388.5908" x2="92.311" y2="392.7265">
			<stop  offset="0" style="stop-color:#242E09"/>
			<stop  offset="1" style="stop-color:#797F52"/>
		</linearGradient>
		<rect x="54.713" y="389.074" fill="url(#SVGID_55_)" width="75.196" height="3.454"/>
		<g>
			<linearGradient id="SVGID_56_" gradientUnits="userSpaceOnUse" x1="110.4712" y1="375.3281" x2="124.5986" y2="375.3281">
				<stop  offset="0" style="stop-color:#97CB59"/>
				<stop  offset="1" style="stop-color:#75AE39"/>
			</linearGradient>
			<path fill="url(#SVGID_56_)" d="M124.599,387.874v-14.191l-7.063-10.9l-7.064,10.9v14.191H124.599z"/>
			<linearGradient id="SVGID_57_" gradientUnits="userSpaceOnUse" x1="110.4712" y1="406.3311" x2="124.5986" y2="406.3311">
				<stop  offset="0" style="stop-color:#97CB59"/>
				<stop  offset="1" style="stop-color:#75AE39"/>
			</linearGradient>
			<rect x="110.471" y="393.729" fill="url(#SVGID_57_)" width="14.127" height="25.205"/>
			<linearGradient id="SVGID_58_" gradientUnits="userSpaceOnUse" x1="110.4712" y1="430.3301" x2="124.5986" y2="430.3301">
				<stop  offset="0" style="stop-color:#97CB59"/>
				<stop  offset="1" style="stop-color:#75AE39"/>
			</linearGradient>
			<rect x="110.471" y="424.785" fill="url(#SVGID_58_)" width="14.127" height="11.089"/>
		</g>
		<g>
			<linearGradient id="SVGID_59_" gradientUnits="userSpaceOnUse" x1="85.7539" y1="375.3281" x2="99.8809" y2="375.3281">
				<stop  offset="0" style="stop-color:#97CB59"/>
				<stop  offset="1" style="stop-color:#75AE39"/>
			</linearGradient>
			<path fill="url(#SVGID_59_)" d="M99.881,387.874v-14.191l-7.062-10.9l-7.064,10.9v14.191H99.881z"/>
			<linearGradient id="SVGID_60_" gradientUnits="userSpaceOnUse" x1="85.7539" y1="430.3301" x2="99.8809" y2="430.3301">
				<stop  offset="0" style="stop-color:#97CB59"/>
				<stop  offset="1" style="stop-color:#75AE39"/>
			</linearGradient>
			<rect x="85.754" y="424.785" fill="url(#SVGID_60_)" width="14.127" height="11.089"/>
			<linearGradient id="SVGID_61_" gradientUnits="userSpaceOnUse" x1="85.7539" y1="406.3311" x2="99.8809" y2="406.3311">
				<stop  offset="0" style="stop-color:#97CB59"/>
				<stop  offset="1" style="stop-color:#75AE39"/>
			</linearGradient>
			<rect x="85.754" y="393.729" fill="url(#SVGID_61_)" width="14.127" height="25.205"/>
		</g>
		<g>
			<linearGradient id="SVGID_62_" gradientUnits="userSpaceOnUse" x1="61.0371" y1="430.3301" x2="75.165" y2="430.3301">
				<stop  offset="0" style="stop-color:#97CB59"/>
				<stop  offset="1" style="stop-color:#75AE39"/>
			</linearGradient>
			<rect x="61.037" y="424.785" fill="url(#SVGID_62_)" width="14.128" height="11.089"/>
			<linearGradient id="SVGID_63_" gradientUnits="userSpaceOnUse" x1="61.0371" y1="375.3281" x2="75.165" y2="375.3281">
				<stop  offset="0" style="stop-color:#97CB59"/>
				<stop  offset="1" style="stop-color:#75AE39"/>
			</linearGradient>
			<path fill="url(#SVGID_63_)" d="M75.165,387.874v-14.191l-7.064-10.9l-7.063,10.9v14.191H75.165z"/>
			<linearGradient id="SVGID_64_" gradientUnits="userSpaceOnUse" x1="61.0371" y1="406.3311" x2="75.165" y2="406.3311">
				<stop  offset="0" style="stop-color:#97CB59"/>
				<stop  offset="1" style="stop-color:#75AE39"/>
			</linearGradient>
			<rect x="61.037" y="393.729" fill="url(#SVGID_64_)" width="14.128" height="25.205"/>
		</g>
		<linearGradient id="SVGID_65_" gradientUnits="userSpaceOnUse" x1="92.311" y1="419.6533" x2="92.311" y2="423.782">
			<stop  offset="0" style="stop-color:#242E09"/>
			<stop  offset="1" style="stop-color:#797F52"/>
		</linearGradient>
		<rect x="54.713" y="420.136" fill="url(#SVGID_65_)" width="75.196" height="3.448"/>
	</g>
</g>
</svg>
