<?xml version="1.0" encoding="utf-8"?>
<!-- Generator: Adobe Illustrator 16.0.0, SVG Export Plug-In . SVG Version: 6.00 Build 0)  -->
<!DOCTYPE svg PUBLIC "-//W3C//DTD SVG 1.1//EN" "http://www.w3.org/Graphics/SVG/1.1/DTD/svg11.dtd">
<svg version="1.1" id="Layer_1" xmlns="http://www.w3.org/2000/svg" xmlns:xlink="http://www.w3.org/1999/xlink" x="0px" y="0px"
	 width="612px" height="792px" viewBox="0 0 612 792" enable-background="new 0 0 612 792" xml:space="preserve">
<g>
	<g>
		<linearGradient id="SVGID_1_" gradientUnits="userSpaceOnUse" x1="514.5312" y1="427.085" x2="533.9531" y2="427.085">
			<stop  offset="0" style="stop-color:#242E09"/>
			<stop  offset="1" style="stop-color:#797F52"/>
		</linearGradient>
		<rect x="514.531" y="425.096" fill="url(#SVGID_1_)" width="19.422" height="3.979"/>
		<linearGradient id="SVGID_2_" gradientUnits="userSpaceOnUse" x1="521.0928" y1="438.6279" x2="527.6113" y2="438.6279">
			<stop  offset="0" style="stop-color:#97CB59"/>
			<stop  offset="1" style="stop-color:#75AE39"/>
		</linearGradient>
		<polygon fill="url(#SVGID_2_)" points="527.611,447.359 521.316,447.359 521.093,429.896 527.39,429.896 		"/>
		<linearGradient id="SVGID_3_" gradientUnits="userSpaceOnUse" x1="511.0645" y1="417.2637" x2="537.4199" y2="417.2637">
			<stop  offset="0" style="stop-color:#97CB59"/>
			<stop  offset="1" style="stop-color:#75AE39"/>
		</linearGradient>
		<path fill="url(#SVGID_3_)" d="M537.42,420.979c0,1.82-1.477,3.296-3.295,3.296h-19.767c-1.82,0-3.294-1.476-3.294-3.296v-7.43
			c0-1.82,1.474-3.297,3.294-3.297h19.767c1.818,0,3.295,1.477,3.295,3.297V420.979z"/>
		<linearGradient id="SVGID_4_" gradientUnits="userSpaceOnUse" x1="514.5312" y1="407.4414" x2="533.9531" y2="407.4414">
			<stop  offset="0" style="stop-color:#242E09"/>
			<stop  offset="1" style="stop-color:#797F52"/>
		</linearGradient>
		<rect x="514.531" y="405.451" fill="url(#SVGID_4_)" width="19.422" height="3.98"/>
		<g>
			<linearGradient id="SVGID_5_" gradientUnits="userSpaceOnUse" x1="550.3652" y1="384.7207" x2="550.3652" y2="398.4171">
				<stop  offset="0" style="stop-color:#242E09"/>
				<stop  offset="1" style="stop-color:#797F52"/>
			</linearGradient>
			<path fill="url(#SVGID_5_)" d="M562.251,400.782h-7.112v-3.515c0-0.516-0.421-0.936-0.938-0.936l-15.723,1.982v-12.73
				l15.723,3.637c5.702,1.238,8.05,3.609,8.05,8.047V400.782z"/>
		</g>
		<linearGradient id="SVGID_6_" gradientUnits="userSpaceOnUse" x1="511.0645" y1="393.7378" x2="537.4199" y2="393.7378">
			<stop  offset="0" style="stop-color:#97CB59"/>
			<stop  offset="1" style="stop-color:#75AE39"/>
		</linearGradient>
		<path fill="url(#SVGID_6_)" d="M511.064,382.845v18.489c0,1.822,1.474,3.297,3.294,3.297h19.767c1.818,0,3.295-1.475,3.295-3.297
			v-18.489H511.064z"/>
		<linearGradient id="SVGID_7_" gradientUnits="userSpaceOnUse" x1="503.3076" y1="354.4829" x2="501.7855" y2="363.2791">
			<stop  offset="0" style="stop-color:#97CB59"/>
			<stop  offset="1" style="stop-color:#75AE39"/>
		</linearGradient>
		<circle fill="url(#SVGID_7_)" cx="502.545" cy="358.891" r="4.473"/>
		<linearGradient id="SVGID_8_" gradientUnits="userSpaceOnUse" x1="512.6826" y1="347.5488" x2="512.6826" y2="358.1508">
			<stop  offset="0" style="stop-color:#242E09"/>
			<stop  offset="1" style="stop-color:#797F52"/>
		</linearGradient>
		<path fill="url(#SVGID_8_)" d="M518.56,349.6c0-0.725,0.144-1.413,0.396-2.051c-5.451,1.145-9.948,3.395-13.82,6.408
			c1.571,0.83,2.698,2.385,2.934,4.22c3.453-2.249,7.434-3.858,12.162-4.603C519.2,352.562,518.56,351.154,518.56,349.6z"/>
		<linearGradient id="SVGID_9_" gradientUnits="userSpaceOnUse" x1="524.8975" y1="345.1899" x2="523.3749" y2="353.9885">
			<stop  offset="0" style="stop-color:#97CB59"/>
			<stop  offset="1" style="stop-color:#75AE39"/>
		</linearGradient>
		<circle fill="url(#SVGID_9_)" cx="524.134" cy="349.6" r="4.473"/>
		<linearGradient id="SVGID_10_" gradientUnits="userSpaceOnUse" x1="485.6738" y1="361.5039" x2="485.6738" y2="406.4511">
			<stop  offset="0" style="stop-color:#242E09"/>
			<stop  offset="1" style="stop-color:#797F52"/>
		</linearGradient>
		<path fill="url(#SVGID_10_)" d="M497.623,361.504c-4.337,5.4-7.967,11.762-11.755,18.174c-4.543,8.029-9.306,16.08-15.556,22.211
			l0.445,4.673c7.313-5.839,12.482-14.505,17.371-23.146c4.077-6.898,7.948-13.732,12.906-19.166
			C499.561,363.834,498.333,362.832,497.623,361.504z"/>
		<g>
			<linearGradient id="SVGID_11_" gradientUnits="userSpaceOnUse" x1="524.4414" y1="354.9121" x2="524.4414" y2="369.5404">
				<stop  offset="0" style="stop-color:#242E09"/>
				<stop  offset="1" style="stop-color:#797F52"/>
			</linearGradient>
			<path fill="url(#SVGID_11_)" d="M524.567,369.518c0.431,0,0.847,0.012,1.254,0.025v-14.631c-0.531,0.17-1.1,0.262-1.687,0.262
				c-0.367,0-0.727-0.037-1.074-0.105v14.508C523.554,369.539,524.057,369.518,524.567,369.518z"/>
			<linearGradient id="SVGID_12_" gradientUnits="userSpaceOnUse" x1="519.3086" y1="361.541" x2="519.3086" y2="381.4357">
				<stop  offset="0" style="stop-color:#242E09"/>
				<stop  offset="1" style="stop-color:#797F52"/>
			</linearGradient>
			<path fill="url(#SVGID_12_)" d="M524.567,370.619c-5.159,0-9.6,2.268-9.6,2.268l-7.521-11.346
				c-0.943,1.741-2.787,2.924-4.902,2.924c-0.57,0-1.121-0.086-1.641-0.245c0.034,1.021,0.035,2.28,0.073,3.979
				c0.155,7.189,1.991,9.021,4.376,10.629c1.146,0.771,4.846,2.656,4.846,2.656h27.514v-6.279
				C537.713,375.205,534.572,370.619,524.567,370.619z"/>
		</g>
		
			<linearGradient id="SVGID_13_" gradientUnits="userSpaceOnUse" x1="531.2148" y1="299.7446" x2="531.2148" y2="329.2563" gradientTransform="matrix(1 0 0 1 27.1709 104.127)">
			<stop  offset="0" style="stop-color:#97CB59"/>
			<stop  offset="1" style="stop-color:#75AE39"/>
		</linearGradient>
		<path fill="url(#SVGID_13_)" d="M558.388,403.871c0,0-9.998,13.994-9.998,19.516c0,5.52,4.477,9.994,9.996,9.996
			c5.521-0.002,9.995-4.477,9.997-9.996C568.383,417.865,558.388,403.871,558.388,403.871z M558.388,431.867
			c-4.679-0.002-8.482-3.805-8.48-8.481c0-3.601,5.322-12.204,8.48-16.86c0.062,0.094,0.126,0.191,0.191,0.287
			c-2.99,4.814-6.156,10.645-6.156,13.499c0,4.944,4.023,8.972,8.97,8.972c1.36,0,2.652-0.311,3.807-0.854
			C563.651,430.512,561.175,431.865,558.388,431.867z"/>
		<linearGradient id="SVGID_14_" gradientUnits="userSpaceOnUse" x1="558.6719" y1="401.168" x2="558.6719" y2="402.6309">
			<stop  offset="0" style="stop-color:#97CB59"/>
			<stop  offset="1" style="stop-color:#75AE39"/>
		</linearGradient>
		<path fill="url(#SVGID_14_)" d="M562.886,402.088c0,0.301-0.243,0.543-0.542,0.543h-7.345c-0.299,0-0.542-0.242-0.542-0.543
			v-0.375c0-0.301,0.243-0.545,0.542-0.545h7.345c0.299,0,0.542,0.244,0.542,0.545V402.088z"/>
	</g>
	<g>
		<linearGradient id="SVGID_15_" gradientUnits="userSpaceOnUse" x1="201.4844" y1="405.1279" x2="246.0913" y2="405.1279">
			<stop  offset="0" style="stop-color:#242E09"/>
			<stop  offset="1" style="stop-color:#797F52"/>
		</linearGradient>
		<path fill="url(#SVGID_15_)" d="M222.297,408.518c8.009,0,15.964,0.801,23.794,2.385c-0.414-2.525-1.137-5.012-2.182-7.395
			c-1.088-2.367-4.25-4.154-6.603-4.154c-9.045,0-18.09,0-27.135,0c-2.353,0-5.516,1.787-6.603,4.154
			c-0.972,2.215-1.659,4.518-2.084,6.857C208.323,409.141,215.276,408.518,222.297,408.518z"/>
		<linearGradient id="SVGID_16_" gradientUnits="userSpaceOnUse" x1="188.9351" y1="442.3477" x2="188.9351" y2="436.1582">
			<stop  offset="0" style="stop-color:#242E09"/>
			<stop  offset="1" style="stop-color:#797F52"/>
		</linearGradient>
		<path fill="url(#SVGID_16_)" d="M192.072,439.07c0-0.57,0.06-1.131,0.156-1.676h-4.91c-0.925,0-1.676,0.75-1.676,1.676
			c0,0.929,0.751,1.676,1.676,1.676h4.91C192.131,440.203,192.072,439.643,192.072,439.07z"/>
		<linearGradient id="SVGID_17_" gradientUnits="userSpaceOnUse" x1="201.6245" y1="431.1211" x2="201.6245" y2="447.5574">
			<stop  offset="0" style="stop-color:#242E09"/>
			<stop  offset="1" style="stop-color:#797F52"/>
		</linearGradient>
		<path fill="url(#SVGID_17_)" d="M201.625,430.783c-4.577,0-8.287,3.711-8.287,8.287c0,4.578,3.71,8.289,8.287,8.289
			c4.577,0,8.288-3.711,8.288-8.289C209.912,434.494,206.201,430.783,201.625,430.783z M201.625,443.141
			c-2.247,0-4.069-1.822-4.069-4.07c0-2.246,1.822-4.068,4.069-4.068c2.248,0,4.07,1.822,4.07,4.068
			C205.695,441.318,203.872,443.141,201.625,443.141z"/>
		<linearGradient id="SVGID_18_" gradientUnits="userSpaceOnUse" x1="201.6245" y1="436.1963" x2="201.6245" y2="442.1427">
			<stop  offset="0" style="stop-color:#97CB59"/>
			<stop  offset="1" style="stop-color:#75AE39"/>
		</linearGradient>
		<circle fill="url(#SVGID_18_)" cx="201.625" cy="439.07" r="2.998"/>
		<g>
			<linearGradient id="SVGID_19_" gradientUnits="userSpaceOnUse" x1="258.8726" y1="442.3477" x2="258.8726" y2="436.1582">
				<stop  offset="0" style="stop-color:#242E09"/>
				<stop  offset="1" style="stop-color:#797F52"/>
			</linearGradient>
			<path fill="url(#SVGID_19_)" d="M260.441,437.395h-4.812c0.096,0.545,0.156,1.105,0.156,1.676c0,0.572-0.06,1.133-0.156,1.676
				h4.812c0.925,0,1.676-0.747,1.676-1.676C262.117,438.145,261.366,437.395,260.441,437.395z"/>
			<linearGradient id="SVGID_20_" gradientUnits="userSpaceOnUse" x1="223.9282" y1="442.3477" x2="223.9282" y2="436.1582">
				<stop  offset="0" style="stop-color:#242E09"/>
				<stop  offset="1" style="stop-color:#797F52"/>
			</linearGradient>
			<path fill="url(#SVGID_20_)" d="M236.835,440.746c-0.097-0.543-0.156-1.104-0.156-1.676c0-0.57,0.06-1.131,0.156-1.676h-25.813
				c0.097,0.545,0.156,1.105,0.156,1.676c0,0.572-0.059,1.133-0.156,1.676H236.835z"/>
		</g>
		<linearGradient id="SVGID_21_" gradientUnits="userSpaceOnUse" x1="223.8794" y1="410.3652" x2="223.8794" y2="436.2745">
			<stop  offset="0" style="stop-color:#97CB59"/>
			<stop  offset="1" style="stop-color:#75AE39"/>
		</linearGradient>
		<path fill="url(#SVGID_21_)" d="M262.782,416.941c-25.179-9.111-52.644-9.531-77.808-0.873c-3.283,1.184-4.437,4.771-2.636,7.785
			c2.367,4.146,4.732,7.921,7.099,12.066c1.062-0.008,2.123-0.01,3.184-0.014c1.308-3.719,4.84-6.389,9.004-6.389
			c4.155,0,7.681,2.659,8.995,6.363c8.864,0.019,17.727,0.061,26.588,0.081c1.291-3.747,4.839-6.444,9.024-6.444
			c4.175,0,7.715,2.684,9.014,6.416c1.026-0.006,2.051-0.006,3.077-0.014c2.366-3.75,4.732-7.877,7.099-11.629
			C267.222,421.576,266.067,418.189,262.782,416.941z"/>
		<linearGradient id="SVGID_22_" gradientUnits="userSpaceOnUse" x1="246.2319" y1="431.1211" x2="246.2319" y2="447.5574">
			<stop  offset="0" style="stop-color:#242E09"/>
			<stop  offset="1" style="stop-color:#797F52"/>
		</linearGradient>
		<path fill="url(#SVGID_22_)" d="M246.232,430.783c-4.578,0-8.288,3.711-8.288,8.287c0,4.578,3.71,8.289,8.288,8.289
			c4.577,0,8.288-3.711,8.288-8.289C254.52,434.494,250.809,430.783,246.232,430.783z M246.232,443.141
			c-2.248,0-4.07-1.822-4.07-4.07c0-2.246,1.822-4.068,4.07-4.068c2.247,0,4.069,1.822,4.069,4.068
			C250.301,441.318,248.479,443.141,246.232,443.141z"/>
		<linearGradient id="SVGID_23_" gradientUnits="userSpaceOnUse" x1="246.2319" y1="436.1963" x2="246.2319" y2="442.1427">
			<stop  offset="0" style="stop-color:#97CB59"/>
			<stop  offset="1" style="stop-color:#75AE39"/>
		</linearGradient>
		<circle fill="url(#SVGID_23_)" cx="246.232" cy="439.07" r="2.998"/>
		<linearGradient id="SVGID_24_" gradientUnits="userSpaceOnUse" x1="257.4287" y1="388.9824" x2="269.1406" y2="388.9824">
			<stop  offset="0" style="stop-color:#242E09"/>
			<stop  offset="1" style="stop-color:#797F52"/>
		</linearGradient>
		<path fill="url(#SVGID_24_)" d="M268.969,366.305v-3.395c-4.748,1.826-6.285,7.688-6.404,11.117l-5.137,39.805
			c1.264,0.388,2.523,0.795,3.779,1.223l5.242-40.621l0.016-0.197c0.001-0.062,0.167-4.723,2.675-6.892
			C269.031,367.016,268.969,366.67,268.969,366.305z"/>
		<linearGradient id="SVGID_25_" gradientUnits="userSpaceOnUse" x1="279.5879" y1="359.9658" x2="279.5879" y2="368.5837">
			<stop  offset="0" style="stop-color:#97CB59"/>
			<stop  offset="1" style="stop-color:#75AE39"/>
		</linearGradient>
		<path fill="url(#SVGID_25_)" d="M288.947,366.305c0,1.119-0.907,2.023-2.025,2.023h-14.67c-1.118,0-2.024-0.904-2.024-2.023
			v-4.439c0-1.119,0.906-2.025,2.024-2.025h14.67c1.118,0,2.025,0.906,2.025,2.025V366.305z"/>
	</g>
	<g>
		<linearGradient id="SVGID_26_" gradientUnits="userSpaceOnUse" x1="367.5879" y1="447.7227" x2="367.5879" y2="402.123">
			<stop  offset="0" style="stop-color:#242E09"/>
			<stop  offset="1" style="stop-color:#797F52"/>
		</linearGradient>
		<polygon fill="url(#SVGID_26_)" points="369.498,428.971 363.337,447.359 366.593,447.359 371.838,428.971 		"/>
		<linearGradient id="SVGID_27_" gradientUnits="userSpaceOnUse" x1="361.1758" y1="447.7227" x2="361.1758" y2="402.123">
			<stop  offset="0" style="stop-color:#242E09"/>
			<stop  offset="1" style="stop-color:#797F52"/>
		</linearGradient>
		<polygon fill="url(#SVGID_27_)" points="364.64,428.971 355.053,447.359 358.788,447.359 367.299,428.971 		"/>
		<linearGradient id="SVGID_28_" gradientUnits="userSpaceOnUse" x1="373.208" y1="447.7227" x2="373.208" y2="402.123">
			<stop  offset="0" style="stop-color:#242E09"/>
			<stop  offset="1" style="stop-color:#797F52"/>
		</linearGradient>
		<polygon fill="url(#SVGID_28_)" points="373.709,428.971 370.53,447.359 373.539,447.359 375.886,428.971 		"/>
		<linearGradient id="SVGID_29_" gradientUnits="userSpaceOnUse" x1="353.2812" y1="447.7227" x2="353.2812" y2="402.123">
			<stop  offset="0" style="stop-color:#242E09"/>
			<stop  offset="1" style="stop-color:#797F52"/>
		</linearGradient>
		<polygon fill="url(#SVGID_29_)" points="358.588,428.971 344.745,447.359 349.352,447.359 361.818,428.971 		"/>
		<linearGradient id="SVGID_30_" gradientUnits="userSpaceOnUse" x1="378.668" y1="447.7236" x2="378.668" y2="402.121">
			<stop  offset="0" style="stop-color:#242E09"/>
			<stop  offset="1" style="stop-color:#797F52"/>
		</linearGradient>
		<path fill="url(#SVGID_30_)" d="M361.369,425.277h2.952l9.276-13.683c0.022,0.021,0.044,0.042,0.067,0.065l-7.099,13.617h2.441
			l5.871-12.686c0.03,0.018,0.06,0.035,0.088,0.051l-4.231,12.635h2.156l3.433-12.028c0.031,0.009,0.064,0.019,0.099,0.03
			l-2.075,11.998h2.01l1.493-11.707c0.027,0.004,0.054,0.008,0.081,0.012l-0.256,11.695h1.964l-0.256-11.695
			c0.033-0.006,0.067-0.008,0.101-0.012l1.494,11.707h2.009l-2.074-12.003c0.031-0.013,0.065-0.022,0.097-0.032l3.435,12.035h2.156
			l-4.235-12.645c0.029-0.016,0.058-0.033,0.087-0.051l5.874,12.695h2.442l-7.104-13.631c0.021-0.021,0.042-0.045,0.064-0.066
			l9.285,13.697h2.953l-11.271-14.976c0.442-0.79,0.692-1.681,0.692-2.622c0-3.279-3.015-5.936-6.733-5.936
			c-3.717,0-6.73,2.656-6.73,5.936c0,0.947,0.254,1.842,0.702,2.639L361.369,425.277z"/>
		<linearGradient id="SVGID_31_" gradientUnits="userSpaceOnUse" x1="396.1582" y1="447.7227" x2="396.1582" y2="402.123">
			<stop  offset="0" style="stop-color:#242E09"/>
			<stop  offset="1" style="stop-color:#797F52"/>
		</linearGradient>
		<polygon fill="url(#SVGID_31_)" points="390.035,428.971 398.548,447.359 402.282,447.359 392.694,428.971 		"/>
		<linearGradient id="SVGID_32_" gradientUnits="userSpaceOnUse" x1="404.0547" y1="447.7227" x2="404.0547" y2="402.123">
			<stop  offset="0" style="stop-color:#242E09"/>
			<stop  offset="1" style="stop-color:#797F52"/>
		</linearGradient>
		<polygon fill="url(#SVGID_32_)" points="398.747,428.971 395.519,428.971 407.985,447.359 412.591,447.359 		"/>
		<linearGradient id="SVGID_33_" gradientUnits="userSpaceOnUse" x1="389.748" y1="447.7227" x2="389.748" y2="402.123">
			<stop  offset="0" style="stop-color:#242E09"/>
			<stop  offset="1" style="stop-color:#797F52"/>
		</linearGradient>
		<polygon fill="url(#SVGID_33_)" points="385.496,428.971 390.743,447.359 393.999,447.359 387.838,428.971 		"/>
		<linearGradient id="SVGID_34_" gradientUnits="userSpaceOnUse" x1="384.127" y1="447.7227" x2="384.127" y2="402.123">
			<stop  offset="0" style="stop-color:#242E09"/>
			<stop  offset="1" style="stop-color:#797F52"/>
		</linearGradient>
		<polygon fill="url(#SVGID_34_)" points="381.449,428.971 383.796,447.359 386.805,447.359 383.626,428.971 		"/>
		<linearGradient id="SVGID_35_" gradientUnits="userSpaceOnUse" x1="378.6582" y1="447.7227" x2="378.6582" y2="402.123">
			<stop  offset="0" style="stop-color:#242E09"/>
			<stop  offset="1" style="stop-color:#797F52"/>
		</linearGradient>
		<polygon fill="url(#SVGID_35_)" points="377.594,428.971 377.191,447.359 380.124,447.359 379.722,428.971 		"/>
		<linearGradient id="SVGID_36_" gradientUnits="userSpaceOnUse" x1="359.2422" y1="427.125" x2="398.0938" y2="427.125">
			<stop  offset="0" style="stop-color:#97CB59"/>
			<stop  offset="1" style="stop-color:#75AE39"/>
		</linearGradient>
		<polygon fill="url(#SVGID_36_)" points="398.094,428.1 359.242,428.1 360.712,426.149 396.624,426.149 		"/>
		<linearGradient id="SVGID_37_" gradientUnits="userSpaceOnUse" x1="374.6436" y1="373.3633" x2="382.2769" y2="373.3633">
			<stop  offset="0" style="stop-color:#97CB59"/>
			<stop  offset="1" style="stop-color:#75AE39"/>
		</linearGradient>
		<path fill="url(#SVGID_37_)" d="M378.656,399.547c1.249,0,2.437,0.236,3.515,0.658v-51.627c0-1.137-0.922-2.057-2.055-2.057
			h-2.896c-1.136,0-2.056,0.92-2.056,2.057v51.617C376.236,399.777,377.417,399.547,378.656,399.547z"/>
	</g>
	<g>
		<linearGradient id="SVGID_38_" gradientUnits="userSpaceOnUse" x1="84.1729" y1="437.7256" x2="101.0943" y2="437.7256">
			<stop  offset="0" style="stop-color:#242E09"/>
			<stop  offset="1" style="stop-color:#797F52"/>
		</linearGradient>
		<rect x="85.326" y="428.092" fill="url(#SVGID_38_)" width="15.533" height="19.268"/>
		<linearGradient id="SVGID_39_" gradientUnits="userSpaceOnUse" x1="86.998" y1="423.1738" x2="98.5597" y2="423.1738">
			<stop  offset="0" style="stop-color:#97CB59"/>
			<stop  offset="1" style="stop-color:#75AE39"/>
		</linearGradient>
		<rect x="87.786" y="420.084" fill="url(#SVGID_39_)" width="10.613" height="6.18"/>
		<linearGradient id="SVGID_40_" gradientUnits="userSpaceOnUse" x1="103.3955" y1="398.7021" x2="126.4183" y2="398.7021">
			<stop  offset="0" style="stop-color:#97CB59"/>
			<stop  offset="1" style="stop-color:#75AE39"/>
		</linearGradient>
		<polygon fill="url(#SVGID_40_)" points="105.887,405.314 126.097,399.771 124.039,392.09 104.964,397.328 		"/>
		<linearGradient id="SVGID_41_" gradientUnits="userSpaceOnUse" x1="64.6118" y1="387.624" x2="60.7464" y2="405.6067">
			<stop  offset="0" style="stop-color:#97CB59"/>
			<stop  offset="1" style="stop-color:#75AE39"/>
		</linearGradient>
		<path fill="url(#SVGID_41_)" d="M55.847,386.305c-5.349-1.434-10.723,1.285-12.004,6.069c-1.282,4.783,2.015,9.821,7.361,11.255
			c2.965,0.795,16.811,3.227,28.775,4.42l1.377-11.906C70.752,391.457,58.667,387.062,55.847,386.305z M78.277,405.924
			c-11.57-1.254-23.949-3.462-26.571-4.166c-4.308-1.152-6.997-5.139-5.993-8.884c0.101-0.375,0.238-0.735,0.406-1.081
			c-0.508,3.514,2.199,7.061,6.374,8.141c2.603,0.672,14.476,2.724,26.014,3.996L78.277,405.924z"/>
		<linearGradient id="SVGID_42_" gradientUnits="userSpaceOnUse" x1="80.376" y1="400.5605" x2="105.8076" y2="400.5605">
			<stop  offset="0" style="stop-color:#242E09"/>
			<stop  offset="1" style="stop-color:#797F52"/>
		</linearGradient>
		<path fill="url(#SVGID_42_)" d="M103.157,395.746c0-0.201-0.021-0.396-0.06-0.586c-0.139-7.049-4.563-12.707-10.004-12.707
			c-5.443,0-9.868,5.658-10.005,12.707c-0.04,0.189-0.061,0.385-0.061,0.586l-2.651,22.922h11.461h2.509h11.461L103.157,395.746z
			 M91.837,392.854h-4.834c0.832-3.542,3.242-6.471,6.09-6.471c2.846,0,5.256,2.929,6.089,6.471h-4.835H91.837z"/>
		
			<linearGradient id="SVGID_43_" gradientUnits="userSpaceOnUse" x1="842.7275" y1="396.563" x2="842.7275" y2="420.0356" gradientTransform="matrix(-0.3396 -0.9406 0.9406 -0.3396 41.686 1322.2617)">
			<stop  offset="0" style="stop-color:#97CB59"/>
			<stop  offset="1" style="stop-color:#75AE39"/>
		</linearGradient>
		<path fill="url(#SVGID_43_)" d="M128.502,394.916c0,0,13.171,3.699,17.3,2.209c4.13-1.489,6.269-6.049,4.779-10.176
			c-1.492-4.133-6.049-6.27-10.179-4.779C136.272,383.66,128.502,394.916,128.502,394.916z M149.447,387.355
			c1.262,3.5-0.554,7.373-4.055,8.635c-2.691,0.973-10.565-0.686-14.903-1.791c0.054-0.072,0.11-0.146,0.163-0.221
			c4.41,0.936,9.626,1.73,11.76,0.959c3.7-1.334,5.625-5.432,4.289-9.133c-0.368-1.018-0.947-1.9-1.666-2.617
			C147.012,383.782,148.693,385.27,149.447,387.355z"/>
		
			<linearGradient id="SVGID_44_" gradientUnits="userSpaceOnUse" x1="225.2705" y1="325.2251" x2="225.2705" y2="334.5845" gradientTransform="matrix(0.9637 -0.267 0.267 0.9637 -178.665 137.7329)">
			<stop  offset="0" style="stop-color:#242E09"/>
			<stop  offset="1" style="stop-color:#797F52"/>
		</linearGradient>
		<path fill="url(#SVGID_44_)" d="M128.534,399.084c0.104,0.373-0.114,0.761-0.487,0.861l-0.568,0.158
			c-0.373,0.104-0.76-0.113-0.862-0.488l-2.125-7.666c-0.102-0.375,0.115-0.762,0.489-0.865l0.569-0.157
			c0.373-0.103,0.758,0.114,0.862,0.487L128.534,399.084z"/>
	</g>
</g>
</svg>
