<?xml version="1.0" encoding="utf-8"?>
<!-- Generator: Adobe Illustrator 16.0.0, SVG Export Plug-In . SVG Version: 6.00 Build 0)  -->
<!DOCTYPE svg PUBLIC "-//W3C//DTD SVG 1.1//EN" "http://www.w3.org/Graphics/SVG/1.1/DTD/svg11.dtd">
<svg version="1.1" id="Layer_1" xmlns="http://www.w3.org/2000/svg" xmlns:xlink="http://www.w3.org/1999/xlink" x="0px" y="0px"
	 width="500.781px" height="492px" viewBox="0 0 500.781 492" enable-background="new 0 0 500.781 492" xml:space="preserve">
<g>
	<path fill-rule="evenodd" clip-rule="evenodd" fill="none" d="M197.001,213.491c6.333-3.333,12.668-6.667,19-10"/>
</g>
<g>
	<path fill-rule="evenodd" clip-rule="evenodd" fill="none" d="M174,0c-21.233,8.188-43.399,1.186-55,18
		c-5.94,8.609,4.167,26.424-4,33c-24.439,12.324-73.262-3.746-82,28c1.667,16.998,3.333,34.002,5,51
		c-15.032,1.383-35.377,13.26-38,27c3.333,20.665,6.667,41.335,10,62c8.563,40.892,13.088,85.549,23,120
		c5.176,17.991-1.519,38.922,9,52c16.624,20.667,37.917,17.278,68,26c3.667,23.664,7.333,47.336,11,71c3.667,1.333,7.333,2.667,11,4
		c0.024-3.062-0.962-1.399,1-4c34.433,0.298,131.31,7.859,151-6c0.333,2,0.667,4,1,6c67.326,0,134.674,0,202,0
		c3.655-24.233,21.428-79.179,10-98c-15.343-25.269-98.234-41.603-146-33c-17.184,3.095-33.652,9.656-49,13
		c-0.334-0.667-0.666-1.333-1-2c13.963-69.803-50.743-59.46-104-69c-0.333-0.667-0.667-1.333-1-2c8.637-57.24,14.79-63.252-41-82
		c1.515-24.279,15.35-50.632,2-69c0.333-0.667,0.667-1.333,1-2c1.667,0,3.333,0,5,0c1.005,3.891,0.388,3.003,3,5
		c2.558-20.387,17.036-11.275,35-16c6.333-3.333,12.667-6.667,19-10c-0.667,2-1.333,4-2,6c7.548-4.64,28.392-98.03,22-109
		C231.11,4.743,197.691,0.217,174,0z"/>
</g>
</svg>
